<svg width="960" height="960" viewBox="0 0 960 960" fill="none" xmlns="http://www.w3.org/2000/svg">
<g clip-path="url(#clip0_317_822)">
<path fill-rule="evenodd" clip-rule="evenodd" d="M519.453 308.572C526.873 306.431 534.293 304.29 541.888 302.148C546.63 334.421 544.543 367.532 535.522 399.287C535.278 400.144 535.776 401.037 536.634 401.281C537.492 401.525 538.385 401.027 538.628 400.169C547.813 367.838 549.909 334.119 545.022 301.267C547.147 300.672 549.288 300.076 551.449 299.48C556.573 333.935 558.123 377.668 545.281 418.894L526.854 424.878L541.912 426.106L541.794 427.526C528.22 460.849 505.033 489.376 475.188 509.471L474.94 509.557C476.242 513.424 477.548 517.285 478.858 521.139L478.191 521.365C468.915 519.49 459.323 519.893 450.238 522.541C441.152 525.188 432.845 530.001 426.029 536.565C423.259 539.284 420.703 542.325 418.15 545.362L418.15 545.363C412.193 552.45 406.256 559.513 397.667 562.4C387.613 565.779 376.667 562.399 366.656 558.879C356.645 555.359 345.914 551.624 335.667 554.379C323.567 557.618 315.647 568.888 308.767 579.361L308.444 579.405L305.785 561.666L304.224 561.902C304.224 561.902 209.255 571.02 131.756 513.272C98.9557 488.838 83.9857 455.147 77.6357 424.417L78.3357 424.266C95.3634 409.984 113.88 399.055 134.151 390.813C140.852 414.312 153.53 436.126 171.058 453.176C201.062 482.361 244.623 496.957 286.153 491.737C287.038 491.625 287.665 490.818 287.554 489.933C287.443 489.049 286.635 488.422 285.751 488.533C245.195 493.631 202.61 479.362 173.31 450.861C156.112 434.133 143.69 412.694 137.167 389.612C140.72 388.225 144.327 386.918 147.989 385.688L149.948 385.107C163.867 432.65 202.282 487.814 307.036 472.207L307.272 472.175C337.207 467.686 362.76 461.292 384.363 453.327C464.478 423.802 490.494 372.782 485.413 318.059L486.339 317.972C497.742 314.838 508.597 311.705 519.452 308.573L519.452 308.573L519.453 308.572Z" fill="url(#paint0_linear_317_822)"/>
<path d="M891.175 850.996L771.503 866.206L758.037 815.971L711.775 643.46L711.839 642.803L749.233 646.237L820.64 636.614L891.175 850.996Z" fill="#171717"/>
<path d="M820.64 625.979L739.588 637.626L732.882 615.861L709.353 539.514L677.826 437.193L706.92 439.572L760.868 424.879L820.64 625.979Z" fill="#171717"/>
<path d="M695.521 210.206L754.787 411.715L701.603 428.937L694.768 405.774H694.757L663.94 301.408L634.738 202.51L695.521 210.206Z" fill="#171717"/>
<path d="M704.219 642.093L654.469 830.857L647.817 798.566L614.223 635.398L614.363 633.837L704.219 642.093Z" fill="#171717"/>
<path d="M651.164 516.038V516.049L625.115 621.921L602.328 626.485L598.098 606.96L581.221 528.965L559.262 427.527L629.776 433.275L651.164 516.038Z" fill="#171717"/>
<path d="M548.607 282.862C549.619 288.093 550.588 293.662 551.449 299.481C529.082 305.649 508.771 311.806 486.339 317.973L485.413 318.06C485.035 313.96 484.486 309.848 483.766 305.724L483.852 305.714C504.917 294.982 525.379 287.264 548.607 282.862Z" fill="#171717"/>
<path d="M535.97 235.188C539.484 245.207 542.455 255.409 544.87 265.747C522.366 271.207 500.792 279.963 480.847 291.73L480.74 291.763C478.269 282.322 475.143 273.065 471.386 264.057L470.568 262.7C473.702 260.784 476.884 258.94 480.115 257.168C491.878 250.695 504.177 245.246 516.874 240.882C523.064 238.74 529.339 236.864 535.7 235.253L535.97 235.188Z" fill="url(#paint1_linear_317_822)"/>
<path d="M535.616 762.054L516.102 626.484L516.252 624.816L588.337 631.436L614.364 633.836L614.224 635.397L544.324 822.504L535.616 762.054Z" fill="#171717"/>
<path d="M372.178 614.882C361.078 615.937 350.578 620.802 341.684 627.519C332.79 634.236 326.484 641.684 319.898 650.671L319.145 650.779L313.311 611.9L313.817 611.825C316.017 605.866 319.686 600.56 324.484 596.397C329.282 592.235 335.054 589.352 341.264 588.015C352.864 585.637 364.783 588.93 376.311 591.686C387.839 594.442 400.261 596.659 411.283 592.31C428.161 585.647 436.104 566.143 450.915 555.649C456.16 551.982 462.144 549.506 468.447 548.394C474.75 547.283 481.22 547.562 487.404 549.212L488.255 548.921C491.935 559.825 495.624 570.732 499.32 581.643L498.642 581.869C484.235 579.457 469.445 582.455 457.115 590.287C444.877 598.133 435.34 610.619 421.487 615.043C405.729 620.059 388.636 613.31 372.178 614.882Z" fill="#171717"/>
<path d="M487.601 686.6L324.745 688.107L319.145 650.778L319.898 650.67C326.486 641.683 332.793 634.234 341.684 627.518C350.575 620.802 361.084 615.936 372.178 614.881C388.636 613.309 405.729 620.058 421.487 615.042C435.34 610.618 444.877 598.132 457.115 590.286C469.445 582.454 484.235 579.455 498.642 581.868L499.32 581.642L499.42 581.933L500.076 582.18L492.701 601.459L446.309 618.38L485.737 622.007L516.251 624.817L516.102 626.485L488.762 687.128L487.601 686.6Z" fill="url(#paint2_linear_317_822)"/>
<path d="M389.249 269.892C392.802 271.829 392.78 276.899 391.962 280.86C388.655 296.772 380.476 311.259 368.562 322.311L367.217 323.56C366.711 323.578 366.208 323.65 365.717 323.775C349.151 327.467 332.747 331.956 316.612 337.251C310.283 339.318 303.47 341.934 300.101 347.682C296.57 353.699 297.916 361.276 299.358 368.111C300.962 375.701 302.569 383.289 304.18 390.877C301.998 395.426 299.431 399.78 296.506 403.89C295.192 405.741 293.535 407.69 291.274 407.883C287.809 408.183 285.505 404.083 285.591 400.607C285.677 397.131 287.152 393.772 287.023 390.295C284.744 394.559 281.598 398.299 277.787 401.274C276.757 402.262 275.392 402.824 273.966 402.846C271.695 402.62 270.436 399.864 270.834 397.615C271.232 395.366 272.728 393.503 273.988 391.598C276.364 387.946 277.982 383.853 278.745 379.564C279.509 375.274 279.403 370.874 278.433 366.626C275.979 356.126 268.218 346.056 271.125 335.669C273.353 327.682 281.372 322.645 289.325 320.288C297.278 317.931 305.762 317.457 313.533 314.551C311.09 308.071 308.643 301.591 306.192 295.111C304.459 290.526 302.866 284.929 305.934 281.111C308.657 277.711 314.082 277.591 317.817 279.819C321.552 282.047 323.866 286.03 325.599 290.012C327.332 293.994 328.656 298.225 331.11 301.812C328.116 293.688 325.882 285.303 324.437 276.765C323.823 273.148 323.543 268.897 326.191 266.365C328.333 264.309 331.842 264.191 334.522 265.472C337.141 266.914 339.265 269.112 340.615 271.779C345.222 279.874 345.706 289.593 346.083 298.904C346.517 288.245 348.672 277.726 352.466 267.754C353.22 265.359 354.479 263.153 356.158 261.285C357.944 259.53 360.678 258.508 363.025 259.385C366.911 260.838 367.481 266.037 367.234 270.185C366.672 279.771 365.278 289.29 363.068 298.634C366.551 289.546 371.727 281.2 378.32 274.039C381.177 270.946 385.547 267.879 389.249 269.892Z" fill="#171717"/>
<path d="M333.816 414.514L333.805 414.6C331.536 414.308 329.405 413.349 327.681 411.844C325.681 409.97 324.368 407.479 323.952 404.77C323.536 402.061 324.042 399.291 325.388 396.904C326.098 395.72 327.239 394.558 328.606 394.665C329.898 394.773 330.806 395.914 331.685 396.865C333.021 398.272 334.638 399.379 336.432 400.116C334.798 402.09 333.698 404.451 333.24 406.973C332.782 409.494 332.98 412.091 333.816 414.514V414.514Z" fill="#171717"/>
<path d="M149.948 385.107L147.989 385.688C122.22 394.342 99.1645 406.796 78.3365 424.266L77.6365 424.417C76.3235 418.117 75.3865 411.941 74.7305 406L75.6445 405.9C97.4205 389.894 120.088 377.656 145.092 367.43L145.706 367.312C146.773 373.009 148.161 378.993 149.948 385.107Z" fill="#171717"/>
<path d="M128.368 326.94C132.673 325.659 137.029 324.435 141.435 323.269L142.393 323.323C141.977 332.55 142.29 341.796 143.329 350.975L141.779 351.094C116.635 358.822 94.0787 370.35 73.6547 386.926H73.4607C72.9017 362.966 76.2917 346.121 76.2917 346.121L76.6257 345.4C81.7277 343.31 86.8117 341.297 91.8777 339.361C103.944 334.765 115.978 330.621 128.368 326.94Z" fill="url(#paint3_linear_317_822)"/>
<path d="M836.592 683.501L919.667 682.704" stroke="#171717" stroke-width="3.229" stroke-linecap="round" stroke-linejoin="round"/>
<path d="M168.989 689.539L324.741 688.108L487.597 686.601" stroke="#171717" stroke-width="3.229" stroke-linecap="round" stroke-linejoin="round"/>
<path d="M304.227 551.257L305.788 561.666L308.447 579.404L313.312 611.9L319.146 650.779L324.743 688.108V688.129" stroke="#171717" stroke-width="3.229" stroke-linecap="round" stroke-linejoin="round"/>
<path d="M76.2917 346.121C76.2917 346.121 72.9017 362.966 73.4607 386.926C73.6007 392.889 73.9777 399.294 74.7317 406C75.3877 411.941 76.3247 418.12 77.6377 424.417C83.9877 455.147 98.9607 488.838 131.758 513.272C209.258 571.019 304.226 561.902 304.226 561.902" stroke="#171717" stroke-width="3.229" stroke-linecap="round" stroke-linejoin="round"/>
<path d="M142.393 323.323C141.977 332.55 142.29 341.796 143.329 350.975C143.857 356.002 144.621 361.502 145.708 367.315C146.774 373.009 148.162 378.993 149.949 385.107C163.867 432.651 202.282 487.815 307.036 472.207L307.272 472.175C337.207 467.686 362.76 461.292 384.363 453.327C464.478 423.802 490.494 372.782 485.413 318.059C485.035 313.958 484.486 309.846 483.766 305.723C482.97 301.083 481.962 296.43 480.742 291.763C478.27 282.322 475.144 273.064 471.388 264.057" stroke="#171717" stroke-width="3.229" stroke-linecap="round" stroke-linejoin="round"/>
<path d="M541.794 427.527C528.22 460.85 505.033 489.376 475.188 509.472" stroke="#171717" stroke-width="3.229" stroke-linecap="round" stroke-linejoin="round"/>
<path d="M535.971 235.188C539.484 245.207 542.455 255.409 544.871 265.747C546.131 270.935 547.401 276.672 548.606 282.861C549.618 288.092 550.587 293.661 551.448 299.48C556.572 333.935 558.122 377.668 545.28 418.894" stroke="#171717" stroke-width="3.229" stroke-linecap="round" stroke-linejoin="round"/>
<path d="M662.854 301.731L640.713 397.765L639.303 403.858L577.002 417.539L579.629 407.754L634.739 202.51L695.522 210.206L754.788 411.715L784.679 419.82L760.869 424.879L820.641 625.979L849.003 630.532L820.641 636.614L891.176 850.996L771.504 866.206L758.038 815.971L711.776 643.46" stroke="#171717" stroke-width="3.229" stroke-linecap="round" stroke-linejoin="round"/>
<path d="M694.757 405.774L663.94 301.408L634.738 202.51" stroke="#171717" stroke-width="3.229" stroke-linecap="round" stroke-linejoin="round"/>
<path d="M754.789 411.714L701.605 428.936L694.77 405.773" stroke="#171717" stroke-width="3.229" stroke-linecap="round" stroke-linejoin="round"/>
<path d="M760.869 424.879L706.921 439.572L677.827 437.193L670.701 436.612L629.776 433.275L559.263 427.527L541.911 426.107L526.854 424.879L545.281 418.895L579.629 407.754" stroke="#171717" stroke-width="3.229" stroke-linecap="round" stroke-linejoin="round"/>
<path d="M640.918 397.809L694.758 405.774H694.769" stroke="#171717" stroke-width="3.229" stroke-linecap="round" stroke-linejoin="round"/>
<path d="M629.777 433.275L651.165 516.038" stroke="#171717" stroke-width="3.229" stroke-linecap="round" stroke-linejoin="round"/>
<path d="M670.701 436.612L651.165 516.038V516.049L625.116 621.921L602.329 626.485L598.099 606.96L581.222 528.965L559.263 427.527L500.073 582.181L492.7 601.459L486.027 618.886L548.123 608.251L550.868 601.459L580.038 529.224" stroke="#171717" stroke-width="3.229" stroke-linecap="round" stroke-linejoin="round"/>
<path d="M708.19 539.869L687.782 610.522L687.416 611.793L625.115 621.921" stroke="#171717" stroke-width="3.229" stroke-linecap="round" stroke-linejoin="round"/>
<path d="M677.826 437.193L709.353 539.514L732.882 615.861L739.588 637.626L820.64 625.979" stroke="#171717" stroke-width="3.229" stroke-linecap="round" stroke-linejoin="round"/>
<path d="M492.699 601.459L446.307 618.38L485.735 622.007L516.25 624.817L588.335 631.437L614.362 633.837L704.218 642.093L711.839 642.803L749.233 646.237L820.64 636.614" stroke="#171717" stroke-width="3.229" stroke-linecap="round" stroke-linejoin="round"/>
<path d="M704.219 642.093L654.469 830.857L652.467 838.467L758.038 815.971" stroke="#171717" stroke-width="3.229" stroke-linecap="round" stroke-linejoin="round"/>
<path d="M441.754 791.353L488.76 687.127L516.1 626.484L535.614 762.054L544.322 822.504L614.222 635.397L647.816 798.565L654.468 830.856" stroke="#171717" stroke-width="3.229" stroke-linecap="round" stroke-linejoin="round"/>
<path d="M441.754 791.354L534.452 762.227" stroke="#171717" stroke-width="3.229" stroke-linecap="round" stroke-linejoin="round"/>
<path d="M544.322 822.504L647.816 798.565H647.827" stroke="#171717" stroke-width="3.229" stroke-linecap="round" stroke-linejoin="round"/>
<path d="M76.626 345.4C81.728 343.31 86.812 341.297 91.878 339.361C103.944 334.761 115.978 330.621 128.368 326.94C132.673 325.659 137.029 324.435 141.435 323.269" stroke="#171717" stroke-width="3.229" stroke-linecap="round" stroke-linejoin="round"/>
<path d="M128.216 327.123C128.27 327.058 128.323 327.004 128.367 326.94C136.491 317.332 142.4 306.054 145.675 293.906C146.256 291.731 146.547 288.933 144.663 287.684C142.252 286.07 139.313 288.771 137.663 291.172C132.486 298.728 127.301 306.284 122.11 313.84C119.591 299.955 114.424 248.73 104.586 250.377C98.4621 250.291 100.927 287.103 105.211 305.606C102.011 292.754 97.7301 279.906 94.5331 267.05C93.6401 263.487 90.3461 252.088 83.5221 255.45C79.7001 257.323 80.9921 263.264 82.1011 267.376C85.7817 281.024 89.4594 294.679 93.1341 308.343C88.4924 294.635 83.0175 281.223 76.7401 268.183C75.1261 264.836 72.3601 260.928 68.7211 261.703C66.3211 262.209 64.7931 264.76 64.6531 267.214C64.5131 269.668 65.4171 272.047 66.3211 274.329C74.6951 295.651 83.0764 316.971 91.4651 338.288" stroke="#171717" stroke-width="3.229" stroke-linecap="round" stroke-linejoin="round"/>
<path d="M470.344 262.841C470.419 262.798 470.495 262.741 470.57 262.701C473.703 260.785 476.885 258.941 480.117 257.169C491.88 250.695 504.178 245.247 516.876 240.883C523.065 238.741 529.34 236.865 535.702 235.254" stroke="#171717" stroke-width="3.229" stroke-linecap="round" stroke-linejoin="round"/>
<path d="M516.747 240.506C516.518 221.068 514.176 201.712 509.761 182.779C508.986 179.479 507.091 175.385 503.722 175.751C502.821 175.921 501.987 176.342 501.316 176.967C500.645 177.592 500.166 178.395 499.933 179.281C499.49 181.062 499.396 182.912 499.654 184.728C500.654 197.59 501.654 210.449 502.654 223.305C499.425 210.808 496.203 198.304 492.988 185.793C492.388 183.468 491.75 181.068 490.222 179.216C488.694 177.364 486.013 176.235 483.839 177.225C480.502 178.754 480.674 183.479 481.374 187.074L489.317 227.923C485.712 214.586 481.976 201.002 474.41 189.453C473.086 187.429 471.546 185.395 469.351 184.383C467.156 183.371 464.141 183.737 462.871 185.804C461.708 187.677 462.365 190.109 463.054 192.204C467.908 207.058 472.759 221.92 477.606 236.788C469.512 228.554 453.657 220.233 445.746 227.833C456.951 237.167 468.16 246.5 479.372 255.833" stroke="#171717" stroke-width="3.229" stroke-linecap="round" stroke-linejoin="round"/>
<path d="M307.283 472.907C307.197 472.671 307.111 472.445 307.036 472.207C305.744 468.601 304.495 464.907 304.409 461.088C304.334 457.008 305.798 452.681 309.135 450.335C311.244 449.055 313.585 448.202 316.023 447.827C316.099 447.816 316.163 447.795 316.239 447.784C332.664 444.146 349.086 440.512 365.505 436.884C367.431 436.454 369.369 436.034 371.295 435.603C372.896 435.148 374.565 434.979 376.225 435.103C379.648 435.587 382.296 438.603 383.383 441.895C384.47 445.187 384.298 448.741 384.115 452.195" stroke="#171717" stroke-width="3.229" stroke-linecap="round" stroke-linejoin="round"/>
<path d="M316.163 447.44C312.17 428.582 308.177 409.728 304.183 390.877C302.579 383.288 300.972 375.7 299.361 368.111C297.919 361.276 296.573 353.699 300.104 347.682C303.473 341.934 310.286 339.318 316.615 337.251C332.75 331.956 349.154 327.467 365.72 323.775C366.211 323.65 366.714 323.578 367.22 323.56C367.616 323.552 368.008 323.64 368.361 323.818C369.373 324.346 369.696 325.618 369.911 326.724C373.593 345.41 377.27 364.1 380.944 382.793C381.837 387.325 382.688 392.244 380.696 396.42C378.382 401.285 372.925 403.729 369.319 407.733C365.433 412.027 363.851 418.023 363.829 423.814C363.807 429.605 364.088 431.004 365.455 436.633" stroke="#171717" stroke-width="3.229" stroke-linecap="round" stroke-linejoin="round"/>
<path d="M342.567 391.4C346.011 392.832 349.983 389.7 350.855 386.061C351.727 382.422 350.455 378.661 349.197 375.136C346.701 368.108 344.201 361.074 341.697 354.036C340.782 351.442 339.91 348.363 341.482 346.103C342.612 344.478 344.657 343.821 346.562 343.272C351.31 341.894 356.057 340.52 360.803 339.15" stroke="#171717" stroke-width="3.229" stroke-linecap="round" stroke-linejoin="round"/>
<path d="M360 354.926C359.421 354.369 358.725 353.949 357.963 353.697C357.2 353.444 356.391 353.366 355.594 353.467C354.797 353.568 354.033 353.846 353.358 354.281C352.682 354.716 352.113 355.297 351.691 355.98" stroke="#171717" stroke-width="3.229" stroke-linecap="round" stroke-linejoin="round"/>
<path d="M328.853 359.457C328.404 358.639 327.735 357.962 326.923 357.504C326.11 357.046 325.185 356.824 324.253 356.863C323.32 356.902 322.418 357.201 321.646 357.726C320.875 358.251 320.265 358.981 319.887 359.834" stroke="#171717" stroke-width="3.229" stroke-linecap="round" stroke-linejoin="round"/>
<path d="M346.754 400.392C343.4 401.593 339.717 401.493 336.432 400.112C334.638 399.376 333.021 398.268 331.685 396.861C330.802 395.914 329.898 394.773 328.606 394.661C327.239 394.554 326.098 395.716 325.388 396.9C324.042 399.287 323.536 402.058 323.952 404.767C324.368 407.476 325.681 409.966 327.681 411.84C329.405 413.345 331.536 414.304 333.805 414.596C335.374 414.838 336.975 414.766 338.516 414.386C340.056 414.005 341.507 413.323 342.782 412.379" stroke="#171717" stroke-width="3.229" stroke-linecap="round" stroke-linejoin="round"/>
<path d="M333.815 414.514C332.979 412.091 332.78 409.494 333.239 406.972C333.697 404.45 334.796 402.088 336.431 400.114C336.452 400.092 336.474 400.06 336.495 400.039" stroke="#171717" stroke-width="3.229" stroke-linecap="round" stroke-linejoin="round"/>
<path d="M368.56 322.311C380.474 311.259 388.653 296.772 391.96 280.86C392.778 276.899 392.8 271.829 389.247 269.892C385.547 267.879 381.175 270.946 378.322 274.036C371.729 281.197 366.553 289.543 363.07 298.631C365.28 289.287 366.674 279.768 367.236 270.182C367.483 266.038 366.913 260.839 363.027 259.382C360.68 258.5 357.946 259.522 356.16 261.282C354.481 263.15 353.222 265.356 352.468 267.751C348.674 277.723 346.519 288.242 346.085 298.901C345.708 289.59 345.224 279.871 340.617 271.776C339.267 269.109 337.143 266.91 334.524 265.469C331.844 264.188 328.335 264.306 326.193 266.362C323.545 268.892 323.825 273.143 324.439 276.762C325.884 285.3 328.118 293.685 331.112 301.809C328.658 298.225 327.334 294.009 325.601 290.009C323.868 286.009 321.543 282.044 317.819 279.816C314.095 277.588 308.659 277.706 305.936 281.108C302.868 284.929 304.461 290.526 306.194 295.108C308.648 301.588 311.095 308.068 313.535 314.548C305.764 317.454 297.292 317.917 289.327 320.285C281.362 322.653 273.354 327.679 271.127 335.666C268.22 346.053 275.981 356.128 278.435 366.623C279.405 370.871 279.511 375.271 278.747 379.561C277.984 383.85 276.366 387.943 273.99 391.595C272.73 393.495 271.234 395.362 270.836 397.612C270.438 399.862 271.697 402.612 273.968 402.843C275.394 402.82 276.759 402.259 277.789 401.271C281.6 398.296 284.746 394.556 287.025 390.292C287.154 393.769 285.669 397.127 285.593 400.604C285.517 404.081 287.811 408.182 291.276 407.88C293.537 407.687 295.194 405.738 296.508 403.887C299.433 399.777 302 395.423 304.182 390.874C304.258 390.734 304.322 390.594 304.382 390.454" stroke="#171717" stroke-width="3.229" stroke-linecap="round" stroke-linejoin="round"/>
<path d="M474.67 508.762C474.756 509.031 474.853 509.289 474.939 509.562C476.241 513.428 477.547 517.289 478.857 521.144C481.99 530.4 485.124 539.661 488.257 548.925C491.938 559.829 495.626 570.736 499.322 581.647L499.422 581.938" stroke="#171717" stroke-width="3.229" stroke-linecap="round" stroke-linejoin="round"/>
<path d="M308.77 579.361C315.648 568.888 323.57 557.618 335.67 554.379C345.917 551.623 356.649 555.347 366.659 558.879C376.669 562.411 387.616 565.779 397.67 562.399C409.94 558.276 416.797 545.629 426.032 536.565C432.848 530.001 441.155 525.188 450.24 522.54C459.326 519.893 468.918 519.49 478.194 521.365" stroke="#171717" stroke-width="3.229" stroke-linecap="round" stroke-linejoin="round"/>
<path d="M313.816 611.825C316.016 605.866 319.686 600.56 324.484 596.397C329.282 592.235 335.054 589.352 341.263 588.015C352.863 585.637 364.782 588.93 376.31 591.686C387.838 594.442 400.26 596.659 411.282 592.31C428.16 585.647 436.103 566.143 450.914 555.649C456.16 551.982 462.144 549.506 468.447 548.394C474.75 547.283 481.22 547.562 487.403 549.212" stroke="#171717" stroke-width="3.229" stroke-linecap="round" stroke-linejoin="round"/>
<path d="M319.9 650.671C326.488 641.684 332.795 634.235 341.686 627.519C350.577 620.803 361.086 615.937 372.18 614.882C388.638 613.31 405.731 620.059 421.489 615.043C435.342 610.619 444.879 598.133 457.117 590.287C469.447 582.455 484.238 579.456 498.644 581.869" stroke="#171717" stroke-width="3.229" stroke-linecap="round" stroke-linejoin="round"/>
<path d="M480.848 291.731C500.792 279.963 522.366 271.207 544.871 265.748C544.947 265.726 545.033 265.705 545.108 265.683" stroke="#171717" stroke-width="3.229" stroke-linecap="round" stroke-linejoin="round"/>
<path d="M483.852 305.714C504.917 294.982 525.379 287.264 548.607 282.862C548.629 282.862 548.64 282.851 548.661 282.851" stroke="#171717" stroke-width="3.229" stroke-linecap="round" stroke-linejoin="round"/>
<path d="M486.338 317.973C508.77 311.806 529.081 305.649 551.448 299.481C551.717 299.406 551.997 299.331 552.266 299.255" stroke="#171717" stroke-width="3.229" stroke-linecap="round" stroke-linejoin="round"/>
<path d="M73.6543 386.926C94.0733 370.35 116.634 358.826 141.778 351.094" stroke="#171717" stroke-width="3.229" stroke-linecap="round" stroke-linejoin="round"/>
<path d="M75.6455 405.9C97.4215 389.894 120.089 377.656 145.093 367.43" stroke="#171717" stroke-width="3.229" stroke-linecap="round" stroke-linejoin="round"/>
<path d="M78.3369 424.266C99.1649 406.796 122.221 394.342 147.99 385.688" stroke="#171717" stroke-width="3.229" stroke-linecap="round" stroke-linejoin="round"/>
<path d="M550.867 601.459L598.098 606.96" stroke="#171717" stroke-width="3.229" stroke-linecap="round" stroke-linejoin="round"/>
<path d="M687.793 610.521L732.882 615.861" stroke="#171717" stroke-width="3.229" stroke-linecap="round" stroke-linejoin="round"/>
<path d="M588.336 631.436L602.329 626.484" stroke="#171717" stroke-width="3.229" stroke-linecap="round" stroke-linejoin="round"/>
<path d="M797.88 275.741C789.958 292.633 787.463 311.564 790.738 329.931C791.759 335.574 793.438 341.331 797.244 345.62C801.05 349.909 807.467 352.315 812.719 350.013C817.971 347.711 820.293 339.819 816.138 335.866C811.284 331.248 802.386 335.825 800.891 342.356C799.396 348.887 802.916 355.504 807.049 360.777C818.339 375.177 835.466 385.793 841.205 403.171C843.096 408.899 843.462 415.58 840.153 420.623C836.844 425.666 828.988 427.809 824.553 423.723" stroke="#171717" stroke-width="3.229" stroke-linecap="round" stroke-linejoin="round"/>
<path d="M863.83 540.666L865.981 520.897" stroke="#171717" stroke-width="3.229" stroke-linecap="round" stroke-linejoin="round"/>
<path d="M855.088 529.651L873.321 529.424" stroke="#171717" stroke-width="3.229" stroke-linecap="round" stroke-linejoin="round"/>
<path d="M757.068 187.319L747.951 172.883" stroke="#171717" stroke-width="3.229" stroke-linecap="round" stroke-linejoin="round"/>
<path d="M744.912 185.8L760.712 173.1C760.62 173.289 760.489 173.457 760.327 173.591C760.165 173.725 759.976 173.823 759.773 173.879C759.569 173.934 759.357 173.945 759.149 173.911C758.941 173.877 758.743 173.799 758.568 173.682" stroke="#171717" stroke-width="3.229" stroke-linecap="round" stroke-linejoin="round"/>
<path d="M686.447 177.454C688.509 171.242 691.839 165.528 696.228 160.673" stroke="#171717" stroke-width="3.229" stroke-linecap="round" stroke-linejoin="round"/>
<path d="M666.82 174.4C665.868 148.073 665.686 121.733 666.274 95.3789" stroke="#171717" stroke-width="3.229" stroke-linecap="round" stroke-linejoin="round"/>
<path d="M646.899 170.6L634.742 153.125" stroke="#171717" stroke-width="3.229" stroke-linecap="round" stroke-linejoin="round"/>
<path d="M49.1226 449.768C45.8778 452.428 43.3292 455.838 41.6968 459.703C40.0645 463.569 39.3975 467.773 39.7533 471.954C40.1092 476.135 41.4772 480.166 43.7394 483.7C46.0016 487.234 49.0898 490.164 52.7376 492.238C58.8066 495.688 67.0596 496.304 72.4016 491.809C77.7436 487.314 77.5666 477.13 71.1726 474.325C65.8836 472.005 59.3076 475.991 57.6276 481.518C55.9476 487.045 58.2836 493.179 62.1926 497.432C66.1016 501.685 71.3716 504.397 76.5976 506.857C82.4766 509.624 89.0746 512.852 91.0586 519.039C91.8432 521.486 91.7774 524.126 90.8718 526.531C89.9662 528.936 88.274 530.963 86.0701 532.285C83.8663 533.607 81.2803 534.144 78.7324 533.81C76.1845 533.476 73.8244 532.29 72.0356 530.446" stroke="#171717" stroke-width="3.229" stroke-linecap="round" stroke-linejoin="round"/>
<path d="M226.376 181C222.372 183.442 218.971 186.755 216.424 190.692C213.878 194.63 212.252 199.091 211.667 203.744C211.082 208.397 211.553 213.121 213.046 217.567C214.538 222.012 217.014 226.064 220.288 229.421C223.647 232.862 227.975 235.569 232.755 236.095C237.535 236.621 242.739 234.629 245.216 230.507C247.693 226.385 246.625 220.25 242.456 217.854C237.51 215.012 230.664 218.706 228.894 224.129C227.124 229.552 229.394 235.613 233.094 239.953C237.07 244.612 242.755 248.053 245.042 253.738C246.31 256.891 246.363 260.402 245.191 263.592C244.019 266.781 241.704 269.422 238.696 271.003C235.688 272.584 232.2 272.993 228.908 272.149C225.616 271.306 222.754 269.271 220.877 266.438" stroke="#171717" stroke-width="3.229" stroke-linecap="round" stroke-linejoin="round"/>
<path d="M409.266 207.16L416.047 192.697" stroke="#171717" stroke-width="3.229" stroke-linecap="round" stroke-linejoin="round"/>
<path d="M419.633 203.428L405.98 195.788" stroke="#171717" stroke-width="3.229" stroke-linecap="round" stroke-linejoin="round"/>
<path d="M158.963 618.019L166.542 607.369" stroke="#171717" stroke-width="3.229" stroke-linecap="round" stroke-linejoin="round"/>
<path d="M166.707 618.883C164.471 614.931 161.351 611.55 157.59 609.006" stroke="#171717" stroke-width="3.229" stroke-linecap="round" stroke-linejoin="round"/>
<path d="M290.457 171.453L297.386 177.321C297.595 177.498 297.745 177.735 297.815 178C297.886 178.264 297.873 178.544 297.779 178.802C297.686 179.059 297.516 179.282 297.292 179.44C297.068 179.598 296.801 179.683 296.527 179.685L287.446 179.731C287.181 179.732 286.923 179.812 286.703 179.961C286.483 180.109 286.313 180.319 286.212 180.564L282.772 188.964C282.668 189.218 282.489 189.433 282.259 189.582C282.029 189.731 281.759 189.805 281.485 189.796C281.211 189.786 280.947 189.693 280.727 189.529C280.508 189.365 280.344 189.137 280.258 188.877L277.408 180.255C277.325 180.003 277.169 179.782 276.96 179.619C276.752 179.456 276.499 179.359 276.235 179.339L267.179 178.664C266.906 178.644 266.645 178.54 266.432 178.368C266.22 178.195 266.065 177.961 265.99 177.697C265.914 177.434 265.921 177.154 266.009 176.894C266.098 176.635 266.264 176.409 266.485 176.247L273.804 170.872C274.018 170.715 274.18 170.498 274.271 170.249C274.362 170 274.376 169.729 274.313 169.472L272.156 160.651C272.091 160.385 272.109 160.105 272.208 159.85C272.307 159.594 272.482 159.375 272.709 159.222C272.936 159.068 273.205 158.988 273.478 158.992C273.752 158.996 274.019 159.084 274.241 159.244L281.615 164.544C281.83 164.699 282.086 164.786 282.351 164.796C282.616 164.805 282.878 164.735 283.103 164.596L290.825 159.819C291.058 159.675 291.33 159.605 291.604 159.62C291.877 159.635 292.14 159.734 292.356 159.902C292.572 160.071 292.731 160.302 292.812 160.564C292.893 160.825 292.891 161.106 292.808 161.367L290.046 170.018C289.965 170.271 289.96 170.542 290.033 170.798C290.106 171.053 290.254 171.281 290.457 171.453V171.453Z" fill="#171717"/>
<g opacity="0.1">
<path d="M79.4218 349.693C68.4548 370.464 70.2218 396.893 75.2218 419.201C80.5145 442.101 90.4449 463.672 104.4 482.584C134.273 523.426 179.979 548.848 229.377 557.848C258.416 563.058 288.117 563.426 317.277 558.939L304.266 551.551C310.815 594.723 317.445 637.882 324.156 681.026C325.041 686.735 332.196 689.894 337.302 688.491C343.402 686.815 345.648 681.071 344.767 675.344C338.129 632.195 331.429 589.056 324.667 545.928C323.712 539.853 316.753 537.74 311.656 538.541C266.586 545.623 218.729 540.522 177.801 519.533C138.45 499.352 108.036 465.616 94.4828 423.225C90.8418 412.077 88.5324 400.537 87.6028 388.845C86.7028 376.456 87.3958 364.063 86.9398 351.728C86.7998 347.919 81.3778 346 79.4278 349.693H79.4218Z" fill="#171717"/>
</g>
<g opacity="0.1">
<path d="M366.461 323.641C362.773 320.933 358.061 323.211 354.061 324.303C349.094 325.658 344.178 327.21 339.217 328.588C330.034 331.14 320.094 332.607 311.28 336.245C307.383 337.792 303.889 340.206 301.064 343.304C298.238 346.402 296.156 350.102 294.973 354.125C292.262 363.708 295.573 373.274 293.884 382.851C293.061 387.508 295.14 392.297 300.006 393.634C304.181 394.781 310.036 392.214 310.789 387.512C312.279 378.207 310.543 369.303 310.741 359.988C310.8 357.2 311.011 353.916 312.779 351.644C314.805 349.044 318.379 347.644 321.355 346.544C329.429 343.563 337.868 341.515 346.049 338.832C350.34 337.425 354.639 336.032 358.837 334.364C362.788 332.796 366.811 332.025 368.056 327.558C368.24 326.82 368.184 326.044 367.898 325.339C367.611 324.635 367.109 324.04 366.462 323.64L366.461 323.641Z" fill="#171717"/>
</g>
</g>
<defs>
<linearGradient id="paint0_linear_317_822" x1="316.426" y1="299.48" x2="316.426" y2="579.405" gradientUnits="userSpaceOnUse">
<stop stop-color="#FFB800"/>
<stop offset="1" stop-color="#FF7F0A"/>
</linearGradient>
<linearGradient id="paint1_linear_317_822" x1="507.719" y1="235.188" x2="507.719" y2="291.763" gradientUnits="userSpaceOnUse">
<stop stop-color="#FFB800"/>
<stop offset="1" stop-color="#FF7F0A"/>
</linearGradient>
<linearGradient id="paint2_linear_317_822" x1="417.698" y1="581.055" x2="417.698" y2="688.107" gradientUnits="userSpaceOnUse">
<stop stop-color="#FFB800"/>
<stop offset="1" stop-color="#FF7F0A"/>
</linearGradient>
<linearGradient id="paint3_linear_317_822" x1="108.364" y1="323.269" x2="108.364" y2="386.926" gradientUnits="userSpaceOnUse">
<stop stop-color="#FFB800"/>
<stop offset="1" stop-color="#FF7F0A"/>
</linearGradient>
<clipPath id="clip0_317_822">
<rect width="884" height="775" fill="white" transform="translate(38 93)"/>
</clipPath>
</defs>
</svg>
