<svg width="960" height="960" viewBox="0 0 960 960" fill="none" xmlns="http://www.w3.org/2000/svg">
<g opacity="0.1">
<path d="M407.642 358.619C406.162 363.573 406.389 369.027 406.185 374.161C405.973 379.468 405.959 384.761 405.955 390.072C405.946 400.679 405.918 411.285 406.045 421.893L406.805 485.534C407.059 506.748 406.836 527.959 407.105 549.176L407.5 581C407.633 591.587 406.842 602.677 408.562 613.138C409.907 621.315 424.145 621.522 425.287 613.138C426.719 602.617 425.692 591.608 425.537 581L425.071 549.179C424.76 527.957 423.961 506.755 423.637 485.537L422.666 421.896C422.504 411.286 422.187 400.681 421.891 390.075C421.742 384.763 421.583 379.467 421.228 374.164C420.885 369.051 421 363.519 419.392 358.622C417.531 352.955 409.405 352.714 407.64 358.622L407.642 358.619Z" fill="#171717"/>
</g>
<g opacity="0.1">
<path d="M383.841 657.264C390.541 659.708 396.952 650.779 400.272 646.183C404.688 640.073 407.558 632.984 408.639 625.524C409.156 621.608 405.176 618.024 401.648 617.606C397.491 617.106 394.197 619.506 392.802 623.381C390.473 629.853 388.684 635.902 385.01 641.844C382.466 645.961 376.098 654.439 383.841 657.264V657.264Z" fill="#171717"/>
</g>
<g opacity="0.1">
<path d="M366.507 658.277C341.207 652.832 313.692 655.714 288.707 661.617C262.74 667.738 238.205 678.833 216.458 694.289C172.5 725.6 141.544 771.715 130.351 824.632C127.172 839.525 125.513 854.703 125.4 869.932C125.359 877.514 125.74 885.092 126.541 892.632C127.398 900.677 128.041 909.015 131.508 916.378C134.701 923.151 145.747 921.262 147.369 914.305C147.723 912.786 147.977 911.275 148.235 909.738C149.435 902.59 142.035 898.259 136.405 902.851C135.197 903.836 134.005 904.803 132.865 905.861L147.679 911.998C147.898 905.769 146.115 899.598 145.408 893.411C144.696 887.179 144.274 880.922 144.141 874.641C143.838 862.393 144.672 850.143 146.633 838.05C150.686 813.47 159.017 789.792 171.25 768.091C183.108 746.812 198.955 728.019 217.925 712.739C237.252 697.35 259.488 686.108 282.68 677.839C295.865 673.173 309.53 669.995 323.42 668.363C337.42 666.702 351.294 666.763 365.361 666.756C370.108 666.756 371.369 659.331 366.507 658.285V658.277Z" fill="#171717"/>
</g>
<path fill-rule="evenodd" clip-rule="evenodd" d="M431.496 219.526L431.34 219.562C426.428 222.355 421.372 225.184 415.785 226.015C410.198 226.846 403.89 225.256 400.591 220.669C397.052 215.733 397.891 208.883 400.091 203.213C403.859 193.485 412.805 184.513 423.192 185.431C419.918 176.667 419.492 166.699 422.904 157.982C426.316 149.265 433.739 142.007 442.804 139.671C451.869 137.335 462.319 140.405 468.038 147.809C470.47 139.948 473.6 132.109 478.921 125.838C484.242 119.567 492.116 115.003 500.338 115.338C508.56 115.673 516.675 121.815 517.65 129.99C518.77 119.66 530.086 112.196 540.343 113.845C550.6 115.494 558.666 124.789 560.46 135.022C561.58 141.355 560.256 148.59 555.272 152.647C564.59 157.896 571.403 167.647 572.439 178.29C573.475 188.933 568.395 200.117 559.329 205.79C550.263 211.463 537.563 210.943 529.376 204.069C527.827 208.747 524.967 212.882 521.135 215.981C517.304 219.08 512.663 221.013 507.764 221.55C502.866 222.086 497.916 221.204 493.505 219.007C489.093 216.811 485.406 213.393 482.882 209.161C481.358 211.982 479.216 214.422 476.614 216.297C474.013 218.171 471.02 219.431 467.861 219.983C464.703 220.534 461.46 220.363 458.377 219.481C455.295 218.599 452.452 217.03 450.063 214.892C450.334 220.263 449.263 225.618 446.945 230.471C444.627 235.325 441.135 239.524 436.786 242.688C432.437 245.853 427.368 247.884 422.037 248.596C416.706 249.309 411.281 248.682 406.254 246.771L406.001 246.687C406.469 245.41 406.936 244.131 407.403 242.852L407.404 242.849C408.015 241.175 408.625 239.502 409.239 237.838C411.97 239.123 415.01 239.607 418.006 239.232C421.001 238.858 423.829 237.641 426.161 235.724C428.492 233.806 430.231 231.266 431.176 228.399C432.121 225.531 432.233 222.455 431.499 219.527L431.496 219.526ZM536.489 121.293C536.679 120.314 537.627 119.675 538.606 119.865C541.1 120.349 543.465 121.353 545.546 122.811C547.627 124.269 549.377 126.149 550.684 128.328C551.99 130.508 552.824 132.938 553.13 135.46C553.435 137.982 553.207 140.541 552.459 142.969C552.165 143.923 551.154 144.457 550.201 144.164C549.248 143.87 548.713 142.859 549.007 141.906C549.606 139.962 549.789 137.914 549.544 135.895C549.299 133.875 548.632 131.93 547.586 130.186C546.54 128.441 545.139 126.936 543.473 125.769C541.807 124.602 539.914 123.798 537.918 123.411C536.938 123.22 536.299 122.273 536.489 121.293ZM506.075 121.48C504.082 119.982 501.645 119.193 499.151 119.238C498.154 119.256 497.36 120.079 497.378 121.076C497.396 122.073 498.219 122.867 499.216 122.849C500.905 122.819 502.555 123.353 503.906 124.368C505.256 125.383 506.229 126.819 506.669 128.45C506.929 129.413 507.921 129.982 508.884 129.722C509.847 129.462 510.416 128.47 510.156 127.507C509.505 125.1 508.069 122.979 506.075 121.48Z" fill="url(#paint0_linear_248_1704)"/>
<path fill-rule="evenodd" clip-rule="evenodd" d="M570.402 734.217C569.103 741.677 568.92 749.289 569.86 756.802L569.9 757.392C571.645 757.283 573.403 757.199 575.161 757.151C580.452 756.931 585.752 756.826 591.061 756.838C591.95 749.993 592.148 743.076 591.651 736.191C591.398 732.615 590.881 728.859 588.641 726.066C587.739 724.939 586.598 724.027 585.3 723.396C584.002 722.765 582.579 722.431 581.136 722.418C579.693 722.406 578.265 722.715 576.955 723.323C575.646 723.931 574.489 724.823 573.568 725.934C571.654 728.233 570.908 731.267 570.402 734.217ZM586.687 727.952C586.25 727.055 585.169 726.682 584.272 727.118C583.376 727.554 583.002 728.635 583.438 729.532C585.718 734.219 586.526 739.487 585.754 744.642C585.607 745.628 586.287 746.548 587.273 746.695C588.26 746.843 589.179 746.163 589.327 745.176C590.206 739.3 589.286 733.295 586.687 727.952Z" fill="url(#paint1_linear_248_1704)"/>
<path fill-rule="evenodd" clip-rule="evenodd" d="M492.912 912.358C485.515 838.23 482.848 763.706 484.925 689.239L484.834 689.154C482.992 690.935 479.874 691.345 477.165 691.489L455.11 692.681C453.22 692.777 451.1 692.801 449.5 691.947C444.198 765.75 440.847 839.629 439.447 913.585L439.459 914.585L492.936 913.658L492.912 912.358ZM476.169 702.427C476.176 701.429 475.373 700.615 474.376 700.608C473.378 700.601 472.564 701.404 472.557 702.401L471.28 885.108C471.273 886.106 472.076 886.92 473.073 886.927C474.071 886.934 474.885 886.131 474.892 885.134L476.169 702.427Z" fill="url(#paint2_linear_248_1704)"/>
<path d="M640.818 261.084L603.786 330.068L603.618 330.549L529.795 339.482L529.771 339.265L552.44 268.452L640.818 261.084Z" fill="#171717"/>
<path d="M609.481 390.527C613.333 396.258 617.138 402.085 619.726 408.49C622.543 415.412 623.879 423.165 622.098 430.437C621.098 434.518 618.474 438.837 614.298 439.337C611.991 439.484 609.719 438.714 607.978 437.194C606.268 435.676 604.766 433.938 603.512 432.026C598.733 425.368 593.95 418.718 589.162 412.077L588.127 411.921C592.172 384.665 597.902 357.565 603.609 330.609L603.862 330.658C603.103 340.445 605.571 350.305 609.917 359.106C614.263 367.907 620.451 375.706 627.289 382.738C629.076 384.427 630.675 386.304 632.057 388.338C633.432 390.401 633.969 392.912 633.557 395.357C632.774 398.969 629.114 401.473 625.43 401.69C621.746 401.907 618.171 400.149 615.402 397.717C613.13 395.582 611.14 393.166 609.481 390.527V390.527Z" fill="#171717"/>
<path d="M486.069 652.521L489.269 651.979L489.469 653.159C487.769 656.915 490.569 661.996 487.904 665.138C487.564 665.538 487.158 665.876 486.704 666.138C485.044 666.928 483.22 667.312 481.383 667.258C471.029 667.667 460.679 668.08 450.334 668.498C449.675 668.542 449.013 668.514 448.36 668.413C447.969 668.347 447.594 668.212 447.252 668.013C446.193 667.176 445.495 665.966 445.302 664.63C444.496 661.576 443.898 658.472 443.512 655.337L443.548 654.181C445.426 654.23 447.317 654.29 449.195 654.35C447.697 647.167 446.584 639.91 445.86 632.608L446.052 632.583L487.252 628.538L488.636 628.683L486.069 652.521Z" fill="url(#paint3_linear_248_1704)"/>
<path d="M486.888 666.421C486.767 672.2 486.643 677.974 486.515 683.745C486.582 685.132 486.343 686.517 485.815 687.802C485.558 688.3 485.225 688.756 484.828 689.151C482.986 690.932 479.868 691.342 477.159 691.486L455.104 692.678C453.214 692.778 451.095 692.798 449.494 691.944C449 691.687 448.562 691.335 448.205 690.908C446.953 689.44 446.929 687.333 446.99 685.408C447.146 680.014 447.527 674.636 448.133 669.275L448.362 668.408C449.015 668.509 449.677 668.537 450.336 668.493C460.678 668.071 471.027 667.657 481.385 667.253C483.222 667.307 485.046 666.923 486.706 666.133L486.888 666.421Z" fill="url(#paint4_linear_248_1704)"/>
<path d="M405.396 464.387L404.336 464.399C403.927 470.647 397.161 475.655 391.069 474.223C384.977 472.791 381.149 465.314 383.545 459.535C379.103 467.023 374.323 474.849 366.751 479.122C364.403 480.447 361.622 481.398 359.051 480.615C354.837 479.339 353.212 474.215 353.019 469.804C352.688 461.636 354.974 453.576 359.544 446.798C354.091 452.653 346.819 456.492 338.909 457.693C335.37 458.223 331.024 457.825 329.29 454.683C327.713 451.83 329.158 448.291 330.867 445.51C334.335 439.899 338.813 435 342.786 429.738C357.887 409.584 365.344 384.725 363.83 359.587L405.22 354.579C404.904 391.178 404.963 427.781 405.396 464.387Z" fill="#171717"/>
<path d="M487.887 476.654C493.81 481.47 503.417 477.413 506.993 470.654C510.569 463.895 509.882 455.798 509.1 448.201C506.174 419.668 503.248 391.131 500.323 362.592L560.903 360.1" stroke="#171717" stroke-width="3.612" stroke-linecap="round" stroke-linejoin="round"/>
<path d="M521.632 391.298C522.751 388.542 524.657 386.175 527.111 384.495C529.566 382.814 532.461 381.893 535.436 381.847C538.411 381.801 541.333 382.631 543.839 384.235C546.345 385.839 548.323 388.145 549.527 390.865" stroke="#171717" stroke-width="3.612" stroke-linecap="round" stroke-linejoin="round"/>
<path d="M469.792 392.454C467.887 390.582 465.588 389.16 463.062 388.293C460.537 387.426 457.849 387.136 455.196 387.445C452.544 387.753 449.994 388.652 447.734 390.075C445.475 391.498 443.563 393.409 442.139 395.668" stroke="#171717" stroke-width="3.612" stroke-linecap="round" stroke-linejoin="round"/>
<path d="M481.663 516.263C473.193 516.653 464.893 513.799 458.454 508.283C452.014 502.767 447.919 495.004 447.003 486.575" stroke="#171717" stroke-width="3.612" stroke-linecap="round" stroke-linejoin="round"/>
<path d="M409.2 615.151C407.238 564.912 405.971 514.657 405.4 464.387C404.966 427.787 404.905 391.184 405.219 354.579V354.001" stroke="#171717" stroke-width="3.612" stroke-linecap="round" stroke-linejoin="round"/>
<path d="M368.256 653.821C367.717 653.929 367.168 653.981 366.618 653.978C79.223 653.978 126.97 919.978 126.97 919.978L439.454 914.585L492.931 913.658L817.012 908.072C817.012 908.072 880.746 637.339 577.364 642.443C577.364 642.443 577.264 642.227 577.087 641.817C574.98 637.026 560.943 606.326 547.627 605.544C544.088 605.339 532.916 606.037 518.048 607.229C509.825 607.891 500.471 608.698 490.659 609.577C475.574 610.925 459.394 612.442 444.574 613.877C431.138 615.165 418.81 616.377 409.408 617.32C398.308 618.42 391.265 619.138 391.265 619.138C391.265 619.138 381.836 651.352 368.256 653.821Z" stroke="#171717" stroke-width="4" stroke-linecap="round" stroke-linejoin="round"/>
<path d="M603.786 330.068L640.818 261.084L552.44 268.452L529.771 339.265" stroke="#171717" stroke-width="3.612" stroke-linecap="round" stroke-linejoin="round"/>
<path d="M426.669 351.172L355.278 274.121L292.398 298.475L363.212 359.66L363.826 359.587L405.216 354.579L426.766 351.967L529.796 339.482L603.619 330.549C603.619 330.573 603.607 330.585 603.607 330.609C597.9 357.565 592.17 384.665 588.125 411.921C584.489 436.372 582.201 460.932 582.49 485.648C582.599 495.026 582.815 505.271 577.073 512.687C569.705 522.174 555.92 523.029 545.218 528.494C532.408 535.044 524.21 548.467 520.634 562.394C517.058 576.321 517.468 590.951 517.901 605.337" stroke="#171717" stroke-width="3.612" stroke-linecap="round" stroke-linejoin="round"/>
<path d="M363.812 359.359C363.812 359.431 363.824 359.515 363.824 359.587C365.338 384.725 357.881 409.584 342.78 429.738C338.807 435 334.329 439.899 330.861 445.51C329.152 448.291 327.707 451.83 329.284 454.683C331.018 457.825 335.364 458.223 338.903 457.693C346.813 456.492 354.085 452.652 359.538 446.798C354.968 453.576 352.682 461.636 353.013 469.804C353.206 474.211 354.831 479.339 359.045 480.615C361.621 481.398 364.402 480.447 366.745 479.122C374.317 474.849 379.097 467.022 383.539 459.535C381.139 465.314 384.972 472.802 391.063 474.223C397.154 475.644 403.921 470.647 404.33 464.399" stroke="#171717" stroke-width="3.612" stroke-linecap="round" stroke-linejoin="round"/>
<path d="M608.518 389.095C608.77 389.48 609.035 389.865 609.288 390.251C609.348 390.335 609.409 390.431 609.481 390.527C613.333 396.258 617.138 402.085 619.726 408.49C622.543 415.412 623.879 423.165 622.098 430.437C621.098 434.518 618.474 438.837 614.298 439.337C611.991 439.485 609.72 438.714 607.978 437.194C606.268 435.676 604.766 433.939 603.512 432.026C598.733 425.368 593.95 418.719 589.162 412.077" stroke="#171717" stroke-width="3.612" stroke-linecap="round" stroke-linejoin="round"/>
<path d="M603.859 330.658C603.1 340.445 605.568 350.305 609.914 359.106C614.26 367.907 620.448 375.706 627.286 382.738C629.073 384.427 630.672 386.305 632.054 388.338C633.429 390.402 633.966 392.912 633.554 395.357C632.771 398.969 629.111 401.473 625.427 401.69C621.743 401.907 618.168 400.149 615.399 397.717C613.127 395.583 611.136 393.168 609.476 390.529" stroke="#171717" stroke-width="3.612" stroke-linecap="round" stroke-linejoin="round"/>
<path d="M444.836 616.596C444.969 621.941 445.31 627.278 445.859 632.608C446.583 639.909 447.697 647.167 449.194 654.35V654.374" stroke="#171717" stroke-width="3.612" stroke-linecap="round" stroke-linejoin="round"/>
<path d="M368.312 654.145C393.378 653.411 418.455 653.423 443.543 654.181C445.421 654.23 447.312 654.29 449.19 654.35C449.29 654.35 449.37 654.362 449.467 654.362" stroke="#171717" stroke-width="3.612" stroke-linecap="round" stroke-linejoin="round"/>
<path d="M490.668 609.745C489.994 616.054 489.315 622.367 488.633 628.683L486.069 652.521C486.057 652.721 486.033 652.93 486.009 653.135" stroke="#171717" stroke-width="3.612" stroke-linecap="round" stroke-linejoin="round"/>
<path d="M485.082 652.689C485.407 652.628 485.744 652.58 486.069 652.52L489.269 651.978C517.864 647.173 546.7 643.938 575.649 642.287" stroke="#171717" stroke-width="3.612" stroke-linecap="round" stroke-linejoin="round"/>
<path d="M446.051 632.583L487.251 628.538" stroke="#171717" stroke-width="3.612" stroke-linecap="round" stroke-linejoin="round"/>
<path d="M443.512 655.337C443.899 658.472 444.499 661.577 445.306 664.631C445.499 665.967 446.197 667.178 447.256 668.014C447.598 668.213 447.973 668.348 448.364 668.414C449.017 668.515 449.679 668.544 450.338 668.499C460.68 668.077 471.029 667.664 481.387 667.259C483.224 667.313 485.048 666.929 486.708 666.139C487.162 665.877 487.568 665.539 487.908 665.139C490.569 661.997 487.776 656.916 489.473 653.16" stroke="#171717" stroke-width="3.612" stroke-linecap="round" stroke-linejoin="round"/>
<path d="M448.134 669.278C447.534 674.636 447.153 680.013 446.991 685.411C446.93 687.337 446.954 689.444 448.206 690.911C448.563 691.338 449.001 691.69 449.495 691.947C451.095 692.801 453.215 692.777 455.105 692.681L477.16 691.489C479.869 691.345 482.987 690.935 484.829 689.154C485.226 688.759 485.559 688.303 485.816 687.805C486.344 686.52 486.583 685.135 486.516 683.748C486.636 677.969 486.76 672.194 486.889 666.424" stroke="#171717" stroke-width="3.612" stroke-linecap="round" stroke-linejoin="round"/>
<path d="M449.512 691.827C449.514 691.868 449.51 691.909 449.5 691.948C444.202 765.735 440.851 839.614 439.447 913.586" stroke="#171717" stroke-width="3.612" stroke-linecap="round" stroke-linejoin="round"/>
<path d="M484.925 689.239C482.847 763.706 485.515 838.23 492.912 912.358" stroke="#171717" stroke-width="3.612" stroke-linecap="round" stroke-linejoin="round"/>
<path d="M635.581 760.847V819.489C635.579 822.137 634.526 824.676 632.652 826.548C630.778 828.419 628.238 829.47 625.589 829.469H552.934C551.623 829.469 550.325 829.211 549.114 828.71C547.903 828.208 546.803 827.473 545.876 826.547C544.949 825.62 544.214 824.519 543.712 823.308C543.211 822.097 542.953 820.799 542.953 819.489V760.847" stroke="#171717" stroke-width="3.612" stroke-linecap="round" stroke-linejoin="round"/>
<path d="M542.532 759.885L542.832 759.849C551.825 758.705 560.846 757.89 569.896 757.404V757.393C571.641 757.284 573.396 757.199 575.157 757.151C580.455 756.922 585.755 756.818 591.057 756.839C605.821 756.865 620.571 757.766 635.228 759.539" stroke="#171717" stroke-width="3.612" stroke-linecap="round" stroke-linejoin="round"/>
<path d="M591.012 757.247C591.036 757.115 591.048 756.97 591.06 756.838C591.949 749.993 592.147 743.076 591.65 736.191C591.397 732.615 590.88 728.859 588.64 726.066C587.738 724.939 586.597 724.027 585.299 723.396C584.001 722.765 582.578 722.431 581.135 722.418C579.692 722.406 578.264 722.715 576.955 723.323C575.646 723.931 574.488 724.823 573.567 725.934C571.653 728.234 570.907 731.267 570.401 734.217C569.102 741.677 568.919 749.289 569.859 756.802C570.245 756.693 570.63 756.602 571.015 756.489" stroke="#171717" stroke-width="3.612" stroke-linecap="round" stroke-linejoin="round"/>
<path d="M576.951 728.727C576.192 738.189 575.594 747.664 575.158 757.151C574.508 771.188 574.219 785.237 574.291 799.299" stroke="#171717" stroke-width="3.612" stroke-linecap="round" stroke-linejoin="round"/>
<path d="M406.251 246.77C411.279 248.681 416.703 249.308 422.035 248.596C427.366 247.883 432.435 245.852 436.784 242.688C441.133 239.523 444.624 235.324 446.942 230.471C449.26 225.617 450.332 220.263 450.06 214.891C452.449 217.03 455.292 218.599 458.375 219.48C461.458 220.362 464.7 220.534 467.859 219.982C471.018 219.431 474.01 218.17 476.612 216.296C479.213 214.421 481.356 211.982 482.879 209.16C485.404 213.392 489.091 216.81 493.502 219.007C497.914 221.203 502.863 222.085 507.762 221.549C512.66 221.012 517.302 219.08 521.133 215.98C524.965 212.881 527.825 208.746 529.373 204.068C537.56 210.942 550.261 211.448 559.326 205.789C568.391 200.13 573.472 188.935 572.437 178.289C571.402 167.643 564.587 157.895 555.269 152.646C560.253 148.589 561.578 141.354 560.458 135.021C558.664 124.788 550.598 115.494 540.341 113.844C530.084 112.194 518.767 119.659 517.647 129.989C516.672 121.814 508.558 115.662 500.335 115.337C492.112 115.012 484.235 119.563 478.918 125.837C473.601 132.111 470.467 139.947 468.035 147.808C462.316 140.408 451.866 137.347 442.801 139.67C433.736 141.993 426.301 149.265 422.901 157.981C419.501 166.697 419.915 176.666 423.189 185.43C412.8 184.515 403.855 193.484 400.089 203.212C397.898 208.882 397.055 215.732 400.589 220.668C403.889 225.255 410.196 226.844 415.782 226.014C421.368 225.184 426.425 222.354 431.337 219.561" stroke="#171717" stroke-width="3.612" stroke-linecap="round" stroke-linejoin="round"/>
<path d="M405.912 246.926C405.936 246.842 405.972 246.77 405.996 246.686C407.079 243.736 408.151 240.774 409.234 237.837C411.966 239.122 415.006 239.606 418.001 239.232C420.997 238.857 423.825 237.641 426.156 235.723C428.488 233.805 430.227 231.265 431.172 228.398C432.117 225.531 432.228 222.454 431.494 219.526C431.386 219.08 431.254 218.635 431.109 218.201" stroke="#171717" stroke-width="3.612" stroke-linecap="round" stroke-linejoin="round"/>
<path d="M124.768 756.675C131.131 733.553 146.301 713.844 167.026 701.775" stroke="#171717" stroke-width="3.612" stroke-linecap="round" stroke-linejoin="round"/>
<path d="M832.251 745.767C830.425 726.259 823.133 707.661 811.212 692.111" stroke="#171717" stroke-width="3.612" stroke-linecap="round" stroke-linejoin="round"/>
<path d="M579.864 542.341C592.818 540.241 603.242 527.73 602.964 514.611" stroke="#171717" stroke-width="3.612" stroke-linecap="round" stroke-linejoin="round"/>
<path d="M683.812 303.478C691.403 312.094 699.167 320.999 702.989 331.828C706.811 342.657 705.797 356.012 697.489 363.934C689.181 371.856 672.971 370.68 668.314 360.183C666.953 357.113 666.804 353.16 669.105 350.714C673.668 345.863 681.656 351.133 685.305 356.706C690.671 365.033 694.157 374.431 695.519 384.243C696.881 394.055 696.087 404.047 693.192 413.521C690.924 420.767 687.1 427.971 680.601 431.897C674.102 435.823 664.496 435.249 660.082 429.071C657.999 426.157 657.882 421.159 661.205 419.821C664.237 418.599 667.352 421.39 669.115 424.143C677.628 437.432 675.835 456.431 664.986 467.892" stroke="#171717" stroke-width="3.612" stroke-linecap="round" stroke-linejoin="round"/>
<path d="M643.819 292.905L654.919 272.539" stroke="#171717" stroke-width="3.612" stroke-linecap="round" stroke-linejoin="round"/>
<path d="M601.454 223.321C604.845 219.883 610.946 222.01 614.127 225.643C617.308 229.276 619.027 234.074 622.527 237.402C629.856 244.372 641.502 242.391 651.551 243.538C658.468 244.395 665.076 246.911 670.81 250.874C676.544 254.836 681.235 260.127 684.482 266.294L684.443 262.216" stroke="#171717" stroke-width="3.612" stroke-linecap="round" stroke-linejoin="round"/>
<path d="M635.312 203.749L662.512 177.415" stroke="#171717" stroke-width="3.612" stroke-linecap="round" stroke-linejoin="round"/>
<path d="M636.002 179.788L641.102 175.539" stroke="#171717" stroke-width="3.612" stroke-linecap="round" stroke-linejoin="round"/>
<path d="M655.548 207.832L662.348 201.032" stroke="#171717" stroke-width="3.612" stroke-linecap="round" stroke-linejoin="round"/>
<path d="M598.24 147.697L666.659 108.514" stroke="#171717" stroke-width="3.612" stroke-linecap="round" stroke-linejoin="round"/>
<path d="M595.426 113.458C593.626 104.798 592.937 95.9433 593.377 87.1089" stroke="#171717" stroke-width="3.612" stroke-linecap="round" stroke-linejoin="round"/>
<path d="M581.599 102.401L605.394 95.6011" stroke="#171717" stroke-width="3.612" stroke-linecap="round" stroke-linejoin="round"/>
<path d="M322.529 171.063L345.606 181.939L338.556 149.094L375.647 125.752" stroke="#171717" stroke-width="3.612" stroke-linecap="round" stroke-linejoin="round"/>
<path d="M364.443 164.753C363.7 161.453 362.994 157.823 364.572 154.832C366.15 151.841 371.088 150.656 372.813 153.565C373.379 154.77 373.602 156.107 373.458 157.43C373.309 165.378 373.16 173.324 373.012 181.27C378.367 175.506 384.819 170.871 391.991 167.635" stroke="#171717" stroke-width="3.612" stroke-linecap="round" stroke-linejoin="round"/>
<path d="M438.112 114.262C425.054 97.2822 413.655 79.0878 404.074 59.9292" stroke="#171717" stroke-width="3.612" stroke-linecap="round" stroke-linejoin="round"/>
<path d="M358.263 213.872C335.278 209.368 311.854 207.494 288.445 208.287" stroke="#171717" stroke-width="3.612" stroke-linecap="round" stroke-linejoin="round"/>
<path d="M436.472 281.23L416.042 269.392" stroke="#171717" stroke-width="3.612" stroke-linecap="round" stroke-linejoin="round"/>
<path d="M420.006 285.082L433.006 262.282" stroke="#171717" stroke-width="3.612" stroke-linecap="round" stroke-linejoin="round"/>
<path d="M493.696 244.215C491.497 261.968 490.628 279.86 491.096 297.743L493.228 293.664" stroke="#171717" stroke-width="3.612" stroke-linecap="round" stroke-linejoin="round"/>
<path d="M296.946 352.205C293.617 351.534 290.508 350.04 287.904 347.859C285.3 345.678 283.283 342.881 282.037 339.721" stroke="#171717" stroke-width="3.612" stroke-linecap="round" stroke-linejoin="round"/>
<path d="M254.636 286.682C244.578 284.282 234.35 281.86 224.023 282.397C213.696 282.934 203.066 286.853 196.732 295.028C190.785 302.704 189.389 312.999 189.816 322.7C190.481 335.722 193.981 348.443 200.072 359.973C206.163 371.502 214.698 381.563 225.081 389.451C230.572 393.562 236.991 397.151 243.844 396.838C250.697 396.525 257.644 390.902 257.152 384.06C256.658 377.255 248.617 372.64 242.044 374.468C235.471 376.296 231.076 383.068 230.577 389.874C230.078 396.68 232.866 403.368 236.771 408.961C242.1 416.594 249.428 422.554 256.043 429.104C262.658 435.654 268.818 443.259 270.768 452.361C272.718 461.463 269.268 472.274 260.854 476.261C252.44 480.248 240.254 473.706 241.054 464.432" stroke="#171717" stroke-width="3.612" stroke-linecap="round" stroke-linejoin="round"/>
<path d="M500.795 91.021C498.609 80.9314 495.452 71.0771 491.367 61.596L505.889 69.321L510.389 55.064L518.14 84.264" stroke="#171717" stroke-width="3.612" stroke-linecap="round" stroke-linejoin="round"/>
<path d="M533.331 57.0868C532.064 55.2668 529.365 54.8868 527.337 55.7778C525.348 56.8045 523.78 58.4929 522.903 60.5518C521.345 63.5383 520.898 66.9807 521.642 70.2658C522.035 71.8918 522.842 73.3887 523.984 74.6118C525.125 75.8349 526.563 76.7428 528.158 77.2478C529.77 77.6926 531.486 77.5807 533.027 76.9302C534.568 76.2797 535.844 75.1286 536.651 73.6628" stroke="#171717" stroke-width="3.612" stroke-linecap="round" stroke-linejoin="round"/>
<path d="M537.339 44.643C537.294 44.0028 537.391 43.3605 537.624 42.7625C537.857 42.1645 538.22 41.6257 538.686 41.1849C539.153 40.7441 539.711 40.4123 540.321 40.2134C540.932 40.0146 541.578 39.9536 542.215 40.035C542.613 43.772 541.863 47.5417 540.063 50.841L547.905 48.067" stroke="#171717" stroke-width="3.612" stroke-linecap="round" stroke-linejoin="round"/>
<path d="M528.412 203.576C527.48 195.207 519.517 188.203 520.727 179.87C521.289 175.995 523.851 172.638 526.972 170.27C530.197 168.041 533.696 166.239 537.384 164.91C539.774 163.93 542.316 162.93 544.868 163.335C549.588 164.082 552.199 169.079 554.075 173.474C555.717 177.32 557.275 182.064 554.739 185.393C552.45 188.404 548.056 188.556 544.275 188.433L545.992 187.552" stroke="#171717" stroke-width="3.612" stroke-linecap="round" stroke-linejoin="round"/>
<path d="M502.489 141.221C499.767 138.204 495.044 137.483 491.252 138.942C489.381 139.747 487.688 140.915 486.271 142.377C484.853 143.84 483.739 145.568 482.992 147.463C481.519 151.263 480.809 155.317 480.904 159.392" stroke="#171717" stroke-width="3.612" stroke-linecap="round" stroke-linejoin="round"/>
<path d="M467.895 146.689L463.366 164.257C462.872 165.566 462.831 167.002 463.248 168.337C464.083 170.205 466.422 170.76 468.448 171.059C474.292 171.92 480.162 172.571 486.057 173.014C488.657 173.214 491.509 173.292 493.585 171.714C495.613 170.176 496.323 167.494 496.905 165.014" stroke="#171717" stroke-width="3.612" stroke-linecap="round" stroke-linejoin="round"/>
<path d="M482.295 209.043L474.71 199.543C474.024 198.851 473.586 197.952 473.462 196.986C473.445 195.396 475.039 194.334 476.44 193.586L497.825 182.104L502.362 195.121C502.651 195.809 502.808 196.544 502.825 197.29C502.725 198.071 502.401 198.807 501.89 199.406C501.379 200.006 500.705 200.444 499.95 200.667C498.432 201.087 496.846 201.202 495.284 201.005" stroke="#171717" stroke-width="3.612" stroke-linecap="round" stroke-linejoin="round"/>
<path d="M449.312 214.315C446.253 212.139 443.465 209.608 441.004 206.774C439.652 205.423 438.701 203.724 438.256 201.865C437.808 199.096 439.472 196.328 441.727 194.665C443.982 193.002 446.751 192.212 449.453 191.459C451.367 193.337 452.344 195.946 453.253 198.471C454.162 200.996 455.095 203.612 456.953 205.541C458.811 207.47 461.891 208.511 464.253 207.232" stroke="#171717" stroke-width="3.612" stroke-linecap="round" stroke-linejoin="round"/>
<path d="M423.445 185.45C424.599 186.502 426.021 187.213 427.555 187.504C429.089 187.796 430.673 187.656 432.132 187.101C433.591 186.545 434.867 185.596 435.818 184.359C436.77 183.122 437.36 181.645 437.522 180.092C438.088 174.673 433.442 169.314 435.207 164.159C436.107 161.543 438.497 159.71 441.007 158.541C443.842 157.22 447.746 156.799 449.631 159.294C451.487 161.752 450.139 165.223 448.904 168.044C447.816 170.531 446.845 173.328 447.691 175.908C449.505 181.442 457.658 181.676 461.28 186.237" stroke="#171717" stroke-width="3.612" stroke-linecap="round" stroke-linejoin="round"/>
<path d="M423.298 185.695C421.373 186.163 420.254 188.332 420.344 190.31C420.582 192.286 421.327 194.167 422.507 195.77C423.686 197.366 424.584 199.151 425.163 201.049C425.611 203.684 425.096 206.393 423.713 208.681C422.613 210.713 420.813 212.72 418.505 212.722C416.176 212.722 414.296 210.576 413.791 208.302C413.286 206.028 413.825 203.669 414.362 201.402" stroke="#171717" stroke-width="3.612" stroke-linecap="round" stroke-linejoin="round"/>
<path d="M499.18 157.161C503.737 156.472 508.342 157.595 512.9 158.279C517.458 158.963 522.4 159.142 526.371 156.805C531.64 153.705 533.655 147.216 535.241 141.312C535.801 139.576 536.099 137.766 536.123 135.942C536.128 135.029 535.931 134.126 535.546 133.298C535.16 132.47 534.596 131.738 533.894 131.154C531.142 129.126 526.939 130.926 525.242 133.894C523.545 136.862 523.642 140.486 523.79 143.902" stroke="#171717" stroke-width="3.612" stroke-linecap="round" stroke-linejoin="round"/>
<path d="M771.8 875.884L785.021 861.327" stroke="#171717" stroke-width="3.612" stroke-linecap="round" stroke-linejoin="round"/>
<path d="M731.097 843.301L717.997 830.465L719.002 828.196" stroke="#171717" stroke-width="3.612" stroke-linecap="round" stroke-linejoin="round"/>
<path d="M666.453 776.743L679.968 758.552" stroke="#171717" stroke-width="3.612" stroke-linecap="round" stroke-linejoin="round"/>
<path d="M648.462 867.662L636.806 858.734L637.514 857.165" stroke="#171717" stroke-width="3.612" stroke-linecap="round" stroke-linejoin="round"/>
<path d="M601.683 798.139L610.183 785.111" stroke="#171717" stroke-width="3.612" stroke-linecap="round" stroke-linejoin="round"/>
<path d="M615.7 710.583L603.9 700.839" stroke="#171717" stroke-width="3.612" stroke-linecap="round" stroke-linejoin="round"/>
<path d="M536.494 881.377L548.981 867.234" stroke="#171717" stroke-width="3.612" stroke-linecap="round" stroke-linejoin="round"/>
<path d="M514.658 741.221L523.479 729.568" stroke="#171717" stroke-width="3.612" stroke-linecap="round" stroke-linejoin="round"/>
<path d="M400.479 877.847C405.649 874.626 410.082 870.351 413.488 865.301" stroke="#171717" stroke-width="3.612" stroke-linecap="round" stroke-linejoin="round"/>
<path d="M399.204 803.286L385.323 792.486" stroke="#171717" stroke-width="3.612" stroke-linecap="round" stroke-linejoin="round"/>
<path d="M396.612 714.66C401.104 709.4 404.748 703.471 407.412 697.087L407.399 698.598" stroke="#171717" stroke-width="3.612" stroke-linecap="round" stroke-linejoin="round"/>
<path d="M334.765 735.537L319.474 724.057" stroke="#171717" stroke-width="3.612" stroke-linecap="round" stroke-linejoin="round"/>
<path d="M307.926 814.986L316.087 803.577" stroke="#171717" stroke-width="3.612" stroke-linecap="round" stroke-linejoin="round"/>
<path d="M268.034 867.285C263.107 864.412 259.007 860.312 256.134 855.385" stroke="#171717" stroke-width="3.612" stroke-linecap="round" stroke-linejoin="round"/>
<path d="M188.784 835.664L203.284 817.864" stroke="#171717" stroke-width="3.612" stroke-linecap="round" stroke-linejoin="round"/>
<path d="M254.437 770.406L237.691 757.597" stroke="#171717" stroke-width="3.612" stroke-linecap="round" stroke-linejoin="round"/>
<path d="M244.196 712.556L257.785 703.197" stroke="#171717" stroke-width="3.612" stroke-linecap="round" stroke-linejoin="round"/>
<path d="M224.694 444.079L213.221 433.879" stroke="#171717" stroke-width="3.612" stroke-linecap="round" stroke-linejoin="round"/>
<path d="M210.859 450.592L226.101 430.156" stroke="#171717" stroke-width="3.612" stroke-linecap="round" stroke-linejoin="round"/>
<path d="M711.636 405.838L724.383 396.915" stroke="#171717" stroke-width="3.612" stroke-linecap="round" stroke-linejoin="round"/>
<path d="M720.559 408.387L715.459 396.915" stroke="#171717" stroke-width="3.612" stroke-linecap="round" stroke-linejoin="round"/>
<path d="M675.944 488.694L689.965 484.87" stroke="#171717" stroke-width="3.612" stroke-linecap="round" stroke-linejoin="round"/>
<path d="M682.625 496.291L679.889 479.751" stroke="#171717" stroke-width="3.612" stroke-linecap="round" stroke-linejoin="round"/>
<path d="M187.727 280.915L180.079 271.992" stroke="#171717" stroke-width="3.612" stroke-linecap="round" stroke-linejoin="round"/>
<path d="M179.193 280.468C181.388 276.909 184.481 273.991 188.16 272.007" stroke="#171717" stroke-width="3.612" stroke-linecap="round" stroke-linejoin="round"/>
<path d="M719.335 722.742C713.03 718.527 707.906 712.772 704.448 706.021" stroke="#171717" stroke-width="3.612" stroke-linecap="round" stroke-linejoin="round"/>
<defs>
<linearGradient id="paint0_linear_248_1704" x1="485.38" y1="113.616" x2="485.38" y2="248.882" gradientUnits="userSpaceOnUse">
<stop stop-color="#FFB800"/>
<stop offset="1" stop-color="#FF7F0A"/>
</linearGradient>
<linearGradient id="paint1_linear_248_1704" x1="580.594" y1="722.418" x2="580.594" y2="757.392" gradientUnits="userSpaceOnUse">
<stop stop-color="#FFB800"/>
<stop offset="1" stop-color="#FF7F0A"/>
</linearGradient>
<linearGradient id="paint2_linear_248_1704" x1="466.192" y1="689.154" x2="466.192" y2="914.585" gradientUnits="userSpaceOnUse">
<stop stop-color="#FFB800"/>
<stop offset="1" stop-color="#FF7F0A"/>
</linearGradient>
<linearGradient id="paint3_linear_248_1704" x1="466.49" y1="628.538" x2="466.49" y2="668.518" gradientUnits="userSpaceOnUse">
<stop stop-color="#FFB800"/>
<stop offset="1" stop-color="#FF7F0A"/>
</linearGradient>
<linearGradient id="paint4_linear_248_1704" x1="466.93" y1="666.133" x2="466.93" y2="692.726" gradientUnits="userSpaceOnUse">
<stop stop-color="#FFB800"/>
<stop offset="1" stop-color="#FF7F0A"/>
</linearGradient>
</defs>
</svg>
