<svg width="960" height="960" viewBox="0 0 960 960" fill="none" xmlns="http://www.w3.org/2000/svg">
<g clip-path="url(#clip0_385_963)">
<path fill-rule="evenodd" clip-rule="evenodd" d="M289.113 316.401C294.628 316.123 300.295 313.993 305.313 311.466C322.856 302.622 337.75 289.298 348.484 272.844C359.12 283.079 372.731 289.671 387.356 291.669L387.217 292.678C393.606 322.975 385.946 358.726 366.846 383.097C363.536 387.325 359.913 391.295 356.291 395.262C351.897 400.075 347.506 404.886 343.679 410.154C336.697 419.765 331.595 431.571 333.373 443.312L334.401 443.479C344.558 444.479 354.568 445.858 362.54 447.136C364.865 447.51 367.013 447.868 368.948 448.21L369.038 448.226C369.634 448.333 370.282 448.449 370.948 448.581C373.809 449.109 377.326 449.812 381.226 450.618C411.514 441.608 427.922 417.45 438.376 391.357V391.348L439.089 337.485C439.225 326.235 443.573 315.445 451.274 307.243L451.265 307.234C444.858 263.251 417.292 210.722 341.132 208.129C279.244 206.02 253.226 259.322 239.641 287.153C235.451 295.737 232.444 301.898 229.932 303.262C224.14 306.4 217.458 306.874 210.809 307.345C208.826 307.485 206.846 307.625 204.894 307.836C167.383 311.858 136.975 344.688 128.549 381.458C120.123 418.228 127.03 469.804 167.782 510.138L167.976 510.323C198.2 478.699 236.923 459.025 270.119 449.007C273.573 447.96 276.971 447.025 280.286 446.183C285.092 444.979 289.731 443.988 294.166 443.201C294.355 443.162 294.544 443.129 294.728 443.098L294.823 443.081C297.665 400.826 295.753 358.386 289.123 316.558L289.113 316.401ZM375.777 221.412C375.023 221.069 374.134 221.403 373.791 222.157C373.449 222.911 373.783 223.801 374.537 224.143C388.789 230.615 401.516 240.02 411.887 251.744C422.258 263.468 430.041 277.247 434.726 292.182C434.974 292.973 435.816 293.413 436.606 293.165C437.397 292.917 437.836 292.075 437.588 291.284C432.777 275.947 424.785 261.796 414.134 249.756C403.484 237.717 390.414 228.058 375.777 221.412Z" fill="#171717"/>
<path d="M882.6 487.063C891.008 496.934 895.943 510.092 894.471 522.981C893.371 532.611 888.841 541.602 882.971 549.315C876.243 558.064 867.824 565.369 858.214 570.797C848.605 576.225 838.001 579.664 827.035 580.909L826.275 580.881L827.961 538.009L826.396 537.139C832.424 536.778 838.378 535.667 843.47 532.565C851.508 527.665 856.1 518.37 857.285 509.036C858.47 499.702 856.647 490.249 854.295 481.136C853.008 476.182 851.56 471.275 849.952 466.414L850.252 466.314C862.561 470.415 874.191 477.193 882.6 487.063Z" fill="url(#paint0_linear_385_963)"/>
<path d="M820.792 320.04C821.197 309.764 817.618 299.727 810.801 292.026C803.984 284.324 794.457 279.552 784.207 278.706L784.217 278.567L794.726 278.614C800.255 278.345 805.779 279.229 810.948 281.211C816.117 283.193 820.817 286.228 824.749 290.124C828.681 294.021 831.759 298.692 833.788 303.843C835.817 308.993 836.751 314.509 836.533 320.04L831.82 443.433L830.468 478.915L830.616 479.944C825.316 480.666 820.069 481.202 814.764 481.609L814.643 480.109L820.792 320.04Z" fill="#171717"/>
<path d="M765.133 672.848C770.496 673.341 775.903 672.738 781.025 671.074C786.146 669.41 790.876 666.721 794.925 663.171C798.974 659.621 802.258 655.283 804.577 650.423C806.896 645.562 808.201 640.281 808.412 634.9L812.212 538.008L812.24 537.147C815.04 537.247 817.768 537.295 820.388 537.295C822.379 537.295 824.388 537.258 826.388 537.138L827.953 538.008L826.267 580.88L824.147 634.9C823.247 657.614 803.739 675.781 781.109 673.688H769.966L769.938 673.975L765.068 673.531L765.133 672.848Z" fill="#171717"/>
<path d="M734.752 687.811C735.298 687.876 735.808 688.121 736.201 688.507C736.593 688.893 736.846 689.399 736.921 689.944C736.995 690.49 736.886 691.045 736.61 691.522C736.335 691.999 735.909 692.371 735.4 692.58L583.127 755.332C579.097 756.99 574.63 757.257 570.432 756.091L351.732 695.376C351.223 695.236 350.772 694.938 350.444 694.525C350.116 694.111 349.928 693.605 349.907 693.077C349.887 692.55 350.034 692.03 350.329 691.593C350.624 691.155 351.05 690.823 351.547 690.644L450.337 654.792C451.62 654.319 452.998 654.161 454.356 654.329L734.752 687.811Z" fill="#171717"/>
<path d="M734.215 367.468V389.21L594.766 396.988L596.452 373.098H596.507C612.026 371.598 626.307 362.875 641.879 362.422C652.546 362.107 662.907 365.709 672.879 369.515C682.851 373.321 692.917 377.431 703.556 378.215C714.195 378.999 725.756 375.853 732.362 367.464L734.215 367.468Z" fill="url(#paint1_linear_385_963)"/>
<path d="M734.215 345.985V367.467H732.363C725.763 375.856 714.196 378.995 703.557 378.218C692.918 377.441 682.843 373.318 672.88 369.518C662.917 365.718 652.546 362.11 641.88 362.425C626.305 362.878 612.027 371.601 596.508 373.101H596.453L597.814 353.86L734.215 345.985Z" fill="#171717"/>
<path d="M765.068 673.533L447.91 644.6C444.048 644.242 440.154 644.719 436.493 646L317.5 687.45C316.567 687.77 315.71 688.277 314.981 688.941C308.602 691.163 311.241 717.256 317.676 719.312L431.16 755.489L431.151 755.526C431.151 755.526 430.262 758.211 428.632 762.6C426.799 767.554 424.021 774.675 420.532 782.527C412.078 801.574 399.439 824.945 385.832 832.297C361.656 845.371 136.158 816.611 118.51 668.246C110.139 597.855 133.538 546.346 167.974 510.324C198.197 478.703 236.921 459.024 270.116 449.008C265.835 456.571 263.524 465.088 263.394 473.777C263.289 482.559 266.11 491.127 271.412 498.129C279.227 508.111 291.857 513.121 304.302 515.482C314.902 517.5 325.988 517.889 336.359 514.926C343.009 513.026 349.205 509.796 354.572 505.433C359.94 501.07 364.366 495.663 367.584 489.541C370.802 483.418 372.745 476.706 373.295 469.811C373.846 462.916 372.992 455.982 370.786 449.426L370.943 448.584C373.804 449.112 377.323 449.815 381.221 450.621C403.185 455.158 437.408 463.01 437.408 463.01L435.371 616.274C435.273 623.392 437.863 630.285 442.625 635.576C447.386 640.868 453.968 644.169 461.057 644.821L765.131 672.85L765.068 673.533Z" fill="url(#paint2_linear_385_963)"/>
<path d="M370.788 449.424C372.995 455.979 373.848 462.914 373.298 469.809C372.748 476.704 370.805 483.416 367.587 489.538C364.369 495.661 359.942 501.067 354.575 505.431C349.208 509.794 343.012 513.023 336.361 514.924C325.99 517.887 314.906 517.498 304.304 515.48C291.859 513.119 279.229 508.109 271.414 498.127C266.112 491.124 263.292 482.557 263.396 473.775C263.526 465.086 265.838 456.568 270.118 449.006C273.572 447.959 276.97 447.024 280.285 446.182L280.294 446.219C271.433 457.552 273.146 474.673 281.331 486.498C287.466 495.363 296.551 501.759 306.966 504.545C317.38 507.331 328.446 506.325 338.187 501.706C347.929 497.088 355.712 489.158 360.147 479.332C364.582 469.506 365.381 458.423 362.4 448.063L362.539 447.137C364.864 447.508 367.012 447.869 368.947 448.211C369.567 448.322 370.247 448.443 370.947 448.582L370.788 449.424Z" fill="url(#paint3_linear_385_963)"/>
<path d="M438.373 391.349L439.086 337.486C439.248 325.992 443.782 314.991 451.767 306.722C459.752 298.453 470.588 293.538 482.069 292.975L778.985 278.614C780.726 278.528 782.47 278.559 784.207 278.706C794.457 279.552 803.984 284.324 810.801 292.026C817.618 299.727 821.197 309.764 820.792 320.041L814.643 480.11" stroke="#171717" stroke-width="3" stroke-linecap="round" stroke-linejoin="round"/>
<path d="M812.217 538.009L808.417 634.901C808.205 640.282 806.9 645.564 804.581 650.424C802.262 655.284 798.978 659.621 794.929 663.171C790.88 666.722 786.15 669.41 781.029 671.074C775.907 672.737 770.5 673.341 765.138 672.847L461.059 644.818C453.97 644.167 447.388 640.866 442.627 635.574C437.865 630.282 435.275 623.389 435.373 616.271L437.41 463.007L438.373 391.357" stroke="#171717" stroke-width="3" stroke-linecap="round" stroke-linejoin="round"/>
<path d="M782.929 535.074L780.263 614.743C780.141 618.378 779.275 621.948 777.719 625.235C776.164 628.522 773.951 631.455 771.218 633.854C768.485 636.253 765.29 638.066 761.829 639.182C758.368 640.298 754.715 640.693 751.095 640.343L486.023 621.688C478.789 620.987 472.083 617.59 467.237 612.173C462.39 606.756 459.759 599.714 459.864 592.446L468.791 352.096C468.907 343.855 472.196 335.975 477.973 330.096C483.751 324.217 491.572 320.791 499.81 320.531L757.716 312.345C761.909 312.213 766.084 312.943 769.984 314.489C773.883 316.035 777.424 318.364 780.387 321.333C783.35 324.303 785.672 327.848 787.21 331.751C788.748 335.653 789.469 339.83 789.328 344.022L784.717 481.799" stroke="#171717" stroke-width="3" stroke-linecap="round" stroke-linejoin="round"/>
<path d="M457.392 745.387L317.675 700.793C316.508 700.418 315.458 699.745 314.629 698.84C313.8 697.936 313.221 696.831 312.949 695.635C312.677 694.439 312.722 693.193 313.078 692.019C313.434 690.845 314.09 689.784 314.98 688.941C315.71 688.277 316.567 687.77 317.499 687.45L436.493 646C440.154 644.719 444.048 644.242 447.91 644.6L765.068 673.536L769.938 673.98L786.309 675.471C787.537 675.582 788.694 676.096 789.598 676.934C790.503 677.771 791.104 678.885 791.309 680.101C791.513 681.317 791.308 682.566 790.727 683.653C790.146 684.74 789.221 685.604 788.096 686.11L616.8 763.35C589.293 775.758 558.166 777.545 529.418 768.369L484.981 754.526" stroke="#171717" stroke-width="3" stroke-linecap="round" stroke-linejoin="round"/>
<path d="M334.4 443.479C344.557 444.479 354.567 445.858 362.539 447.136C364.864 447.507 367.012 447.868 368.947 448.21C369.567 448.321 370.247 448.442 370.947 448.581C373.808 449.109 377.327 449.812 381.225 450.618C403.189 455.155 437.412 463.007 437.412 463.007" stroke="#171717" stroke-width="3" stroke-linecap="round" stroke-linejoin="round"/>
<path d="M431.151 755.525C431.151 755.525 430.262 758.21 428.632 762.599C426.799 767.553 424.021 774.674 420.532 782.526C412.078 801.573 399.439 824.944 385.832 832.296C361.656 845.37 136.158 816.61 118.51 668.245C110.139 597.854 133.538 546.345 167.974 510.323C198.197 478.702 236.921 459.023 270.116 449.007C273.57 447.96 276.968 447.025 280.283 446.183C285.089 444.983 289.728 443.983 294.163 443.201C294.385 443.155 294.607 443.118 294.82 443.081" stroke="#171717" stroke-width="3" stroke-linecap="round" stroke-linejoin="round"/>
<path d="M242.7 536.861C242.7 536.861 162.957 587.844 255.766 680.004" stroke="#171717" stroke-width="3" stroke-linecap="round" stroke-linejoin="round"/>
<path d="M827.959 538.01L826.273 580.882L824.153 634.902C823.253 657.616 803.745 675.783 781.115 673.69H769.966" stroke="#171717" stroke-width="3" stroke-linecap="round" stroke-linejoin="round"/>
<path d="M784.217 278.567L794.726 278.614C800.255 278.345 805.779 279.229 810.948 281.211C816.117 283.193 820.816 286.228 824.748 290.124C828.68 294.021 831.759 298.692 833.787 303.843C835.816 308.993 836.751 314.509 836.533 320.04L831.82 443.433L830.468 478.915" stroke="#171717" stroke-width="3" stroke-linecap="round" stroke-linejoin="round"/>
<path d="M434.632 756.599L431.16 755.488L317.675 719.311C311.24 717.255 308.601 691.162 314.98 688.94" stroke="#171717" stroke-width="3" stroke-linecap="round" stroke-linejoin="round"/>
<path d="M789.346 675.652C790.661 675.773 791.578 677.245 792.152 679.476C794.078 686.921 792.115 702.81 788.096 704.625L616.8 781.868C589.292 794.276 558.165 796.064 529.418 786.887L529.075 786.776L467.212 767.035" stroke="#171717" stroke-width="3" stroke-linecap="round" stroke-linejoin="round"/>
<path d="M428.632 762.599C435.484 755.729 440.854 756.09 448.966 750.766C451.727 748.94 454.637 747.35 457.666 746.015C463.493 743.334 469.853 742.01 476.266 742.145C479.989 742.293 484.257 743.469 485.702 746.895C486.739 749.377 485.887 752.33 484.229 754.46C482.448 756.483 480.326 758.179 477.961 759.47C474.248 761.784 470.532 764.096 466.812 766.405C462.923 768.822 459.031 771.242 455.136 773.664" stroke="#171717" stroke-width="3" stroke-linecap="round" stroke-linejoin="round"/>
<path d="M421.021 782.629C441.78 788.721 477.559 802.229 504.18 800.49C527.042 799 526.819 796.981 529.06 786.832" stroke="#171717" stroke-width="3" stroke-linecap="round" stroke-linejoin="round"/>
<path d="M566.969 345.985L560.247 599.631" stroke="#171717" stroke-width="3" stroke-linecap="round" stroke-linejoin="round"/>
<path d="M509.421 386.866C517.919 385.643 526.508 385.172 535.089 385.458" stroke="#171717" stroke-width="3" stroke-linecap="round" stroke-linejoin="round"/>
<path d="M501.1 423.237C514.137 422.098 527.208 421.57 540.314 421.654" stroke="#171717" stroke-width="3" stroke-linecap="round" stroke-linejoin="round"/>
<path d="M502.884 474.184C514.167 475.62 525.592 475.518 536.848 473.879" stroke="#171717" stroke-width="3" stroke-linecap="round" stroke-linejoin="round"/>
<path d="M502.393 518.3C513.579 518.179 524.764 518.052 535.95 517.92" stroke="#171717" stroke-width="3" stroke-linecap="round" stroke-linejoin="round"/>
<path d="M500.217 549.611C508.641 550.131 517.095 549.936 525.487 549.028" stroke="#171717" stroke-width="3" stroke-linecap="round" stroke-linejoin="round"/>
<path d="M597.812 458.711C646.546 455.007 695.353 452.612 744.234 451.525" stroke="#171717" stroke-width="3" stroke-linecap="round" stroke-linejoin="round"/>
<path d="M594.766 485.399C634.712 484.807 674.657 484.211 714.603 483.612" stroke="#171717" stroke-width="3" stroke-linecap="round" stroke-linejoin="round"/>
<path d="M603.924 421.821C609.008 421.555 614.095 421.292 619.184 421.034" stroke="#171717" stroke-width="3" stroke-linecap="round" stroke-linejoin="round"/>
<path d="M665.37 421.3L694.547 422.272" stroke="#171717" stroke-width="3" stroke-linecap="round" stroke-linejoin="round"/>
<path d="M734.215 367.467V345.985L597.813 353.856L596.452 373.097L594.766 396.987L734.215 389.209V367.467Z" stroke="#171717" stroke-width="3" stroke-linecap="round" stroke-linejoin="round"/>
<path d="M596.507 373.1C612.026 371.6 626.307 362.877 641.879 362.424C652.546 362.109 662.907 365.711 672.879 369.517C682.851 373.323 692.917 377.433 703.556 378.217C714.195 379.001 725.756 375.855 732.362 367.466" stroke="#171717" stroke-width="3" stroke-linecap="round" stroke-linejoin="round"/>
<path d="M821.208 519.121C805.745 518.936 790.939 518.408 773.864 517.639C770.92 517.51 767.216 516.121 764.716 517.695C762.216 519.269 761.438 523.056 762.105 525.927C762.994 529.727 767.429 531.334 771.244 532.205C774.957 533.047 778.92 533.788 783.022 534.427C792.702 535.894 802.459 536.803 812.245 537.149C815.045 537.249 817.773 537.297 820.393 537.297C822.384 537.297 824.393 537.26 826.393 537.14C832.421 536.779 838.375 535.668 843.467 532.566C851.505 527.666 856.097 518.371 857.282 509.037C858.467 499.703 856.644 490.25 854.292 481.137C853.004 476.183 851.557 471.275 849.949 466.415C848.495 461.998 846.905 457.627 845.18 453.303C844.051 450.451 842.801 447.544 840.588 445.414C838.375 443.284 834.948 442.145 832.171 443.442" stroke="#171717" stroke-width="3" stroke-linecap="round" stroke-linejoin="round"/>
<path d="M821.208 519.12C823.384 519.194 825.496 519.22 827.533 519.185C825.412 519.175 823.3 519.148 821.208 519.12Z" stroke="#171717" stroke-width="3" stroke-linecap="round" stroke-linejoin="round"/>
<path d="M793.606 499.156C783.976 499.166 774.438 499.425 765.938 500.23C763.537 500.424 761.247 501.323 759.355 502.814C757.512 504.332 756.447 507.055 757.531 509.175C758.762 511.592 761.957 511.934 764.642 512.296C783.522 514.879 804.263 518.546 821.208 519.12" stroke="#171717" stroke-width="3" stroke-linecap="round" stroke-linejoin="round"/>
<path d="M793.605 499.156C806.253 500.025 818.936 500.248 831.605 499.823C820.392 499.629 806.911 499.147 793.605 499.156Z" stroke="#171717" stroke-width="3" stroke-linecap="round" stroke-linejoin="round"/>
<path d="M833.348 479.563C832.431 479.693 831.523 479.822 830.616 479.943C825.316 480.665 820.069 481.202 814.764 481.609C805.189 482.341 795.411 482.665 784.744 482.897C783.402 482.915 782.044 482.943 780.661 482.971C778.355 483.017 769.549 483.665 767.586 484.871C766.593 485.449 765.784 486.297 765.255 487.317C764.725 488.337 764.497 489.486 764.596 490.63C765.29 495.575 778.577 498.03 793.606 499.158" stroke="#171717" stroke-width="3" stroke-linecap="round" stroke-linejoin="round"/>
<path d="M850.255 466.313C862.561 470.413 874.191 477.193 882.599 487.063C891.007 496.933 895.942 510.092 894.47 522.981C893.37 532.611 888.84 541.602 882.97 549.315C876.242 558.064 867.822 565.369 858.213 570.797C848.603 576.225 838 579.664 827.034 580.909" stroke="#171717" stroke-width="3" stroke-linecap="round" stroke-linejoin="round"/>
<path d="M351.546 690.644L450.336 654.792C451.62 654.319 452.998 654.161 454.355 654.329L734.755 687.811C735.302 687.876 735.812 688.121 736.204 688.507C736.597 688.893 736.85 689.399 736.924 689.944C736.998 690.49 736.889 691.045 736.614 691.522C736.339 691.999 735.913 692.371 735.403 692.58L583.127 755.332C579.098 756.99 574.63 757.257 570.432 756.091L351.732 695.376C351.223 695.236 350.772 694.938 350.444 694.525C350.116 694.112 349.928 693.605 349.907 693.078C349.886 692.551 350.034 692.03 350.329 691.593C350.623 691.155 351.05 690.823 351.546 690.644V690.644Z" stroke="#171717" stroke-width="3" stroke-linecap="round" stroke-linejoin="round"/>
<path d="M333.37 443.313C331.592 431.572 336.694 419.766 343.676 410.155C350.658 400.544 359.519 392.455 366.843 383.098C385.943 358.727 393.603 322.976 387.214 292.679" stroke="#171717" stroke-width="3" stroke-linecap="round" stroke-linejoin="round"/>
<path d="M289.119 316.559C295.749 358.387 297.661 400.827 294.819 443.082" stroke="#171717" stroke-width="3" stroke-linecap="round" stroke-linejoin="round"/>
<path d="M438.373 391.349V391.358C427.919 417.451 411.511 441.609 381.223 450.619" stroke="#171717" stroke-width="3" stroke-linecap="round" stroke-linejoin="round"/>
<path d="M167.782 510.138C127.03 469.804 120.123 418.228 128.549 381.458C136.975 344.688 167.383 311.858 204.894 307.836C213.394 306.919 222.413 307.336 229.932 303.262C240.589 297.474 260.155 205.37 341.132 208.129C417.292 210.722 444.858 263.251 451.265 307.234" stroke="#171717" stroke-width="3" stroke-linecap="round" stroke-linejoin="round"/>
<path d="M279.628 314.689C282.595 316.044 285.855 316.633 289.109 316.402C294.628 316.124 300.295 313.994 305.309 311.467C322.851 302.623 337.743 289.299 348.477 272.845C359.113 283.079 372.724 289.671 387.349 291.67C390.916 292.164 394.518 292.369 398.118 292.281" stroke="#171717" stroke-width="3" stroke-linecap="round" stroke-linejoin="round"/>
<path d="M311.832 321.272C313.528 318.995 316.051 317.475 318.857 317.041C321.662 316.606 324.526 317.291 326.832 318.948" stroke="#171717" stroke-width="3" stroke-linecap="round" stroke-linejoin="round"/>
<path d="M350.333 314.393C352.711 311.942 355.864 310.39 359.256 309.998C362.648 309.606 366.071 310.4 368.945 312.244" stroke="#171717" stroke-width="3" stroke-linecap="round" stroke-linejoin="round"/>
<path d="M344.379 298.641C348.61 295.708 353.488 293.843 358.596 293.204C363.704 292.566 368.891 293.173 373.714 294.974" stroke="#171717" stroke-width="3" stroke-linecap="round" stroke-linejoin="round"/>
<path d="M348.954 339.782C350.318 339.345 351.782 339.327 353.157 339.73C354.532 340.133 355.754 340.938 356.667 342.042C357.531 343.185 357.991 344.582 357.976 346.014C357.961 347.447 357.471 348.833 356.583 349.958C355.636 351.029 354.332 351.72 352.914 351.904C351.496 352.088 350.059 351.752 348.87 350.958" stroke="#171717" stroke-width="3" stroke-linecap="round" stroke-linejoin="round"/>
<path d="M336.537 375.987C328.462 377.681 319.527 374.635 317.129 364.301" stroke="#171717" stroke-width="3" stroke-linecap="round" stroke-linejoin="round"/>
<path d="M280.294 446.221C271.433 457.554 273.146 474.675 281.331 486.5C287.465 495.365 296.551 501.762 306.966 504.548C317.381 507.335 328.447 506.328 338.189 501.71C347.931 497.091 355.714 489.16 360.148 479.333C364.583 469.507 365.381 458.423 362.4 448.063" stroke="#171717" stroke-width="3" stroke-linecap="round" stroke-linejoin="round"/>
<path d="M294.369 442.6C294.295 442.795 294.221 443 294.169 443.2C292.725 447.539 292.616 452.211 293.858 456.612C295.099 461.014 297.633 464.941 301.132 467.886C308.475 473.84 320.059 474.405 327.732 468.858C335.405 463.311 338.084 452.034 333.315 443.996" stroke="#171717" stroke-width="3" stroke-linecap="round" stroke-linejoin="round"/>
<path d="M270.2 448.85C270.173 448.906 270.145 448.95 270.117 449.008C265.837 456.57 263.526 465.087 263.395 473.777C263.291 482.559 266.112 491.126 271.413 498.129C279.228 508.111 291.858 513.121 304.303 515.482C314.903 517.5 325.989 517.889 336.36 514.926C343.011 513.025 349.207 509.796 354.574 505.432C359.941 501.069 364.368 495.663 367.586 489.54C370.804 483.418 372.747 476.706 373.297 469.811C373.847 462.916 372.994 455.981 370.787 449.426" stroke="#171717" stroke-width="3" stroke-linecap="round" stroke-linejoin="round"/>
<path d="M312.462 479.063C312.328 479.891 312.397 480.739 312.663 481.534C312.93 482.329 313.385 483.048 313.99 483.628C314.831 484.289 315.865 484.658 316.934 484.678C318.004 484.698 319.051 484.368 319.916 483.739C320.758 483.083 321.434 482.236 321.887 481.269C322.341 480.302 322.56 479.242 322.527 478.174C322.453 470.757 313.267 472.98 312.462 479.063Z" stroke="#171717" stroke-width="3" stroke-linecap="round" stroke-linejoin="round"/>
<path d="M221.545 519.076L221.11 508.183" stroke="#171717" stroke-width="3" stroke-linecap="round" stroke-linejoin="round"/>
<path d="M213.7 514.199C218.8 513.89 223.832 512.868 228.649 511.165" stroke="#171717" stroke-width="3" stroke-linecap="round" stroke-linejoin="round"/>
<path d="M202.651 644.366L191.951 637.11" stroke="#171717" stroke-width="3" stroke-linecap="round" stroke-linejoin="round"/>
<path d="M192.111 648.152L199.693 632.772" stroke="#171717" stroke-width="3" stroke-linecap="round" stroke-linejoin="round"/>
<path d="M330.527 652.024L341.479 641.189" stroke="#171717" stroke-width="3" stroke-linecap="round" stroke-linejoin="round"/>
<path d="M338.383 652.377L328 635.771" stroke="#171717" stroke-width="3" stroke-linecap="round" stroke-linejoin="round"/>
<path d="M386.747 564.041L395.917 557.97" stroke="#171717" stroke-width="3" stroke-linecap="round" stroke-linejoin="round"/>
<path d="M393.158 567.044L386.673 554.381" stroke="#171717" stroke-width="3" stroke-linecap="round" stroke-linejoin="round"/>
<path d="M297.733 581.886L287.366 570.906" stroke="#171717" stroke-width="3" stroke-linecap="round" stroke-linejoin="round"/>
<path d="M295.5 570.267C292.591 574.587 289.391 578.705 285.922 582.591" stroke="#171717" stroke-width="3" stroke-linecap="round" stroke-linejoin="round"/>
<path d="M373.189 782.073L369.289 767.361" stroke="#171717" stroke-width="3" stroke-linecap="round" stroke-linejoin="round"/>
<path d="M362.438 778.929L379.52 772.129" stroke="#171717" stroke-width="3" stroke-linecap="round" stroke-linejoin="round"/>
<path d="M271.372 789.824L255.333 779.591" stroke="#171717" stroke-width="3" stroke-linecap="round" stroke-linejoin="round"/>
<path d="M256.413 793.67L268.26 776.077" stroke="#171717" stroke-width="3" stroke-linecap="round" stroke-linejoin="round"/>
<path d="M227.2 720.742L215.447 720.367" stroke="#171717" stroke-width="3" stroke-linecap="round" stroke-linejoin="round"/>
<path d="M219.377 730.086L221.338 712.438" stroke="#171717" stroke-width="3" stroke-linecap="round" stroke-linejoin="round"/>
<path d="M153.678 684.984L142.894 678.121" stroke="#171717" stroke-width="3" stroke-linecap="round" stroke-linejoin="round"/>
<path d="M150.876 676.263L143.017 687.036" stroke="#171717" stroke-width="3" stroke-linecap="round" stroke-linejoin="round"/>
<path d="M409.271 490.551L420.299 480.02" stroke="#171717" stroke-width="3" stroke-linecap="round" stroke-linejoin="round"/>
<path d="M419.03 490.206L409.484 480.156" stroke="#171717" stroke-width="3" stroke-linecap="round" stroke-linejoin="round"/>
<path d="M855.532 555.237L858.585 546.087" stroke="#171717" stroke-width="3" stroke-linecap="round" stroke-linejoin="round"/>
<path d="M861.665 552.599L852.515 548.24" stroke="#171717" stroke-width="3" stroke-linecap="round" stroke-linejoin="round"/>
<path d="M417.615 203.138L442.23 187.617" stroke="#171717" stroke-width="3" stroke-linecap="round" stroke-linejoin="round"/>
<path d="M401.467 194.529C410.142 171.519 419.425 148.752 429.315 126.229" stroke="#171717" stroke-width="3" stroke-linecap="round" stroke-linejoin="round"/>
<path d="M386.256 183.554L383.315 156.1" stroke="#171717" stroke-width="3" stroke-linecap="round" stroke-linejoin="round"/>
<path d="M468.611 216.445L478.428 214.263" stroke="#171717" stroke-width="3" stroke-linecap="round" stroke-linejoin="round"/>
<path d="M473.964 220.835L470.649 208.85" stroke="#171717" stroke-width="3" stroke-linecap="round" stroke-linejoin="round"/>
<path d="M493.7 144.799L481.359 142.611" stroke="#171717" stroke-width="3" stroke-linecap="round" stroke-linejoin="round"/>
<path d="M486.039 150.999L488.219 137.91" stroke="#171717" stroke-width="3" stroke-linecap="round" stroke-linejoin="round"/>
<path d="M92.3363 637.699C91.6283 701.769 124.866 765.248 177.928 801.165" stroke="#171717" stroke-width="3" stroke-linecap="round" stroke-linejoin="round"/>
<path d="M322.226 190.623L313.861 183.823" stroke="#171717" stroke-width="3" stroke-linecap="round" stroke-linejoin="round"/>
<path d="M313.34 192.715L321.14 181.715" stroke="#171717" stroke-width="3" stroke-linecap="round" stroke-linejoin="round"/>
<path d="M218.969 284.13L202.654 271.894" stroke="#171717" stroke-width="3" stroke-linecap="round" stroke-linejoin="round"/>
<path d="M204.531 288.917L217.092 267.104" stroke="#171717" stroke-width="3" stroke-linecap="round" stroke-linejoin="round"/>
<path d="M261.088 191.1L251.17 184.805" stroke="#171717" stroke-width="3" stroke-linecap="round" stroke-linejoin="round"/>
<path d="M250.753 195.927L260.637 177.082" stroke="#171717" stroke-width="3" stroke-linecap="round" stroke-linejoin="round"/>
<path d="M45.3203 367.268C49.7726 363.81 55.1907 361.824 60.823 361.584C66.4553 361.345 72.0225 362.864 76.7523 365.931C81.353 369.189 84.8254 373.799 86.6878 379.12C88.5501 384.441 88.71 390.21 87.1453 395.626C85.3073 401.535 80.6863 407.115 74.5383 407.826C68.3903 408.537 61.8943 402.16 64.1383 396.394C65.5323 392.819 69.6843 390.822 73.5073 391.158C77.3303 391.494 80.7623 393.774 83.3323 396.624C86.1523 399.829 88.0841 403.717 88.9355 407.901C89.7869 412.084 89.5282 416.418 88.1853 420.47C84.4853 431.189 73.7973 437.997 68.6703 448.111C66.6155 452.164 65.5187 456.634 65.4646 461.178C65.4104 465.721 66.4004 470.217 68.358 474.317C70.3157 478.418 73.1889 482.014 76.756 484.828C80.3231 487.643 84.4889 489.601 88.9323 490.551" stroke="#171717" stroke-width="3" stroke-linecap="round" stroke-linejoin="round"/>
<path d="M877.557 312.107C865.478 326.152 864.272 348.435 874.764 363.701C877.755 368.054 881.742 371.948 886.742 373.648C891.742 375.348 897.848 374.429 901.342 370.472C904.836 366.515 904.571 359.459 900.171 356.539C894.118 352.522 885.477 359.111 885.156 366.369C884.835 373.627 889.915 379.991 895.409 384.744C905.03 393.069 917.799 400.455 919.509 413.062C919.992 417.355 919.074 421.689 916.891 425.416C914.709 429.144 911.379 432.066 907.4 433.746" stroke="#171717" stroke-width="3" stroke-linecap="round" stroke-linejoin="round"/>
<path d="M52.8 432.413L39.668 433.43" stroke="#171717" stroke-width="3" stroke-linecap="round" stroke-linejoin="round"/>
<path d="M46.3121 439.458L46.1641 426.387" stroke="#171717" stroke-width="3" stroke-linecap="round" stroke-linejoin="round"/>
<path d="M301.458 146.333L307.419 151.382C307.599 151.534 307.728 151.738 307.788 151.966C307.849 152.194 307.838 152.435 307.757 152.656C307.677 152.878 307.53 153.07 307.337 153.205C307.144 153.341 306.915 153.414 306.679 153.415L298.868 153.455C298.64 153.456 298.417 153.525 298.228 153.653C298.039 153.78 297.892 153.961 297.806 154.172L294.847 161.401C294.757 161.619 294.603 161.805 294.405 161.932C294.207 162.06 293.975 162.124 293.739 162.116C293.504 162.108 293.276 162.028 293.088 161.887C292.899 161.745 292.758 161.55 292.684 161.326L290.233 153.909C290.161 153.693 290.027 153.503 289.847 153.362C289.667 153.222 289.45 153.138 289.223 153.121L281.433 152.541C281.198 152.524 280.973 152.435 280.79 152.286C280.607 152.138 280.474 151.937 280.408 151.71C280.343 151.483 280.349 151.242 280.425 151.019C280.5 150.796 280.643 150.601 280.833 150.461L287.133 145.837C287.316 145.703 287.455 145.517 287.533 145.303C287.611 145.09 287.624 144.858 287.571 144.637L285.716 137.049C285.66 136.82 285.675 136.579 285.76 136.359C285.845 136.139 285.995 135.951 286.19 135.819C286.386 135.687 286.617 135.618 286.853 135.621C287.088 135.625 287.317 135.7 287.509 135.838L293.852 140.397C294.037 140.53 294.257 140.605 294.485 140.613C294.713 140.621 294.938 140.562 295.132 140.442L301.776 136.332C301.976 136.208 302.21 136.148 302.445 136.161C302.681 136.174 302.907 136.259 303.093 136.404C303.278 136.549 303.415 136.748 303.485 136.973C303.554 137.198 303.553 137.44 303.481 137.664L301.1 145.099C301.03 145.317 301.027 145.551 301.091 145.771C301.155 145.99 301.283 146.186 301.458 146.333V146.333Z" fill="#171717"/>
<g opacity="0.1">
<path d="M348.816 273.986C344.39 276.035 341.682 281.853 338.616 285.536C335.217 289.748 331.297 293.512 326.949 296.736C318.214 303.037 308.043 307.054 297.36 308.422C294.016 308.882 290.648 313.361 291.042 316.722C293.325 335.95 294.235 355.315 293.766 374.672C293.518 384.172 292.697 393.672 291.581 403.097C291.024 407.805 290.357 412.498 289.581 417.174C288.781 422.029 287.106 427.234 287.669 432.157C288.34 438.017 295.935 441.12 299.374 435.328C301.945 430.999 302.526 425.88 303.447 420.997C304.387 416.017 305.22 411.017 305.947 405.997C307.36 396.222 308.384 386.419 309.108 376.57C310.621 356.635 310.337 336.604 308.259 316.719L299.653 325.325C309.7 324.162 319.385 320.881 328.07 315.699C336.755 310.516 344.241 303.551 350.035 295.261C353.456 290.475 357.953 282.997 356.145 276.961C355.154 273.656 351.757 272.626 348.825 273.984L348.816 273.986Z" fill="#171717"/>
</g>
<g opacity="0.1">
<path d="M289.025 445.137C269.163 445.747 249.519 454.79 232.104 463.771C214.254 472.951 197.642 484.363 182.67 497.732C152.562 524.715 129.495 561.04 120.87 600.769C111.981 641.699 116.385 685.685 136.892 722.58C157.625 759.88 193.592 786.735 231.848 804.163C279.856 826.031 332.756 834.811 385.313 833.51C397.597 833.21 397.647 814.102 385.313 814.385C341.513 815.385 297.629 809.298 256.566 793.652C220.536 779.924 184.901 758.018 162.333 726.06C140.356 694.94 132.687 655.96 137.622 618.446C142.532 581.133 159.688 547.051 185.709 520.046C200.004 505.277 216.309 492.597 234.144 482.38C243.199 477.12 252.605 472.489 262.296 468.521C272.234 464.495 282.464 460.878 291.939 455.885C296.99 453.223 294.667 444.968 289.029 445.141L289.025 445.137Z" fill="#171717"/>
</g>
</g>
<defs>
<linearGradient id="paint0_linear_385_963" x1="860.503" y1="466.314" x2="860.503" y2="580.909" gradientUnits="userSpaceOnUse">
<stop stop-color="#FFB800"/>
<stop offset="1" stop-color="#FF7F0A"/>
</linearGradient>
<linearGradient id="paint1_linear_385_963" x1="664.49" y1="362.402" x2="664.49" y2="396.988" gradientUnits="userSpaceOnUse">
<stop stop-color="#FFB800"/>
<stop offset="1" stop-color="#FF7F0A"/>
</linearGradient>
<linearGradient id="paint2_linear_385_963" x1="440.968" y1="448.584" x2="440.968" y2="835.115" gradientUnits="userSpaceOnUse">
<stop stop-color="#FFB800"/>
<stop offset="1" stop-color="#FF7F0A"/>
</linearGradient>
<linearGradient id="paint3_linear_385_963" x1="318.427" y1="446.182" x2="318.427" y2="517.07" gradientUnits="userSpaceOnUse">
<stop stop-color="#FFB800"/>
<stop offset="1" stop-color="#FF7F0A"/>
</linearGradient>
<clipPath id="clip0_385_963">
<rect width="884" height="713" fill="white" transform="translate(38 124)"/>
</clipPath>
</defs>
</svg>
