<svg width="960" height="960" viewBox="0 0 960 960" fill="none" xmlns="http://www.w3.org/2000/svg">
<g clip-path="url(#clip0_164_3972)">
<g clip-path="url(#clip1_164_3972)">
<path fill-rule="evenodd" clip-rule="evenodd" d="M557.431 254.325C554.684 248.449 551.049 243.031 546.654 238.259L546.095 237.95C546.072 237.992 546.049 238.036 546.026 238.08C545.999 238.131 545.972 238.182 545.946 238.229L545.836 238.707C544.153 238.302 542.447 237.997 540.727 237.791C528.437 236.324 516.045 239.555 506.035 246.835C506.125 247.134 506.205 247.432 506.274 247.741C507.125 250.778 507.725 253.879 508.067 257.014C508.127 257.449 508.177 257.901 508.197 258.349C508.848 265.266 508.307 272.243 506.597 278.976C506.536 279.245 506.467 279.514 506.397 279.783C507.004 279.385 507.612 279.016 508.239 278.658C519.894 272.077 534.492 273.174 548.024 274.192C548.173 274.203 548.321 274.214 548.469 274.225C552.851 274.554 558.18 274.375 560.411 270.59C560.818 269.893 561.092 269.127 561.218 268.329C561.451 266.053 561.148 263.754 560.331 261.616C559.523 259.126 558.555 256.69 557.431 254.325ZM544.496 246.329C544.007 245.665 543.071 245.523 542.407 246.012C541.743 246.502 541.601 247.437 542.09 248.101C545.462 252.679 547.921 257.864 549.334 263.372C549.539 264.171 550.353 264.653 551.152 264.448C551.951 264.243 552.433 263.429 552.228 262.629C550.721 256.75 548.095 251.216 544.496 246.329Z" fill="url(#paint0_linear_164_3972)"/>
<path fill-rule="evenodd" clip-rule="evenodd" d="M558.178 253.976C561.046 251.264 563.965 248.608 566.933 246.008C579.821 234.7 593.676 224.5 608.796 216.516C609.842 215.968 610.898 215.42 611.954 214.893C631.834 204.912 679.006 189.205 676.187 204.145L676.864 204.335C677.199 203.54 677.365 202.684 677.352 201.822C677.338 200.959 677.145 200.109 676.785 199.325C675.918 197.761 674.205 196.904 672.571 196.187C649.866 186.24 624.284 185.041 600.749 192.821C594.007 195.087 587.521 198.052 581.396 201.665C566.521 210.29 554.308 222.843 546.096 237.95L546.654 238.259C551.048 243.03 554.683 248.449 557.431 254.325L558.178 253.976ZM635.06 196.11C635.885 196.109 636.553 195.44 636.552 194.614C636.551 193.789 635.881 193.121 635.056 193.122C615.619 193.145 596.595 198.731 580.231 209.219C579.536 209.665 579.334 210.589 579.779 211.283C580.225 211.978 581.149 212.18 581.843 211.735C597.727 201.554 616.193 196.133 635.06 196.11Z" fill="url(#paint1_linear_164_3972)"/>
<path fill-rule="evenodd" clip-rule="evenodd" d="M452.22 224.793C459.478 230.115 462.435 232.636 464.837 234.684C467.538 236.987 469.539 238.693 476.165 243.11L476.155 243.15C471.812 242.144 467.509 241.005 463.246 239.733C459.872 238.729 456.509 237.642 453.145 236.554L453.144 236.554C442.297 233.047 431.433 229.535 420.109 228.767C405.272 227.761 388.894 232.567 380.836 245.067C376.553 251.72 375.248 260.953 379.86 267.378C382.539 271.093 386.673 273.294 391.035 274.918L390.856 276.153L340.238 287.876L340.477 287.935L340.238 288.872L343.625 324.25L343.147 324.3C336.204 339.141 317.439 344.35 301.075 343.663C294.899 343.404 288.734 342.557 282.577 341.711C272.421 340.316 262.286 338.924 252.16 340.177C232.56 342.617 215.547 354.649 200.626 367.597C197.513 370.299 194.438 373.065 191.36 375.834C179.687 386.334 167.982 396.864 154.063 403.981C136.672 412.876 116.663 415.881 97.1498 414.818C77.9568 413.772 59.1498 408.918 40.9648 402.677L40.9748 402.647C81.0048 411.247 125.407 390.695 148.724 357.029C156.739 345.462 162.281 332.495 167.831 319.509C170.778 312.613 173.728 305.712 177.051 299.011C186.633 279.693 200.836 260.911 221.383 254.4C234.045 250.384 247.432 251.523 260.848 252.665C273.286 253.723 285.747 254.783 297.678 251.74C321.384 245.684 338.186 224.748 350.208 203.453C353.273 198.023 356.169 192.46 359.066 186.895L359.067 186.894C367.53 170.633 376.004 154.355 388.744 141.332C408.495 121.142 444.661 110.632 472.569 116.013L472.778 114.947C492.669 103.647 516.583 98.2475 538.854 103.533C561.125 108.819 581.065 125.873 586.533 148.095C590.876 165.714 586.155 184.141 581.394 201.67C566.519 210.295 554.306 222.849 546.094 237.955C546.068 238.003 546.042 238.052 546.016 238.102C546.001 238.13 545.987 238.157 545.972 238.184C545.963 238.201 545.954 238.218 545.945 238.234L545.835 238.712C544.151 238.308 542.445 238.002 540.726 237.796L541 235.8C546.158 226.747 547.772 216.102 545.531 205.927C543.29 195.751 537.353 186.769 528.869 180.72C527.334 179.431 525.431 178.66 523.431 178.52C520.383 178.57 518.052 181.1 516.031 183.371C498.84 202.628 476.807 216.93 452.22 224.793ZM522.328 109.033C529.232 108.258 536.222 108.925 542.855 110.993C549.488 113.061 555.62 116.483 560.861 121.044C566.102 125.605 570.339 131.205 573.303 137.489C576.267 143.773 577.893 150.604 578.08 157.549C578.102 158.374 577.451 159.061 576.626 159.083C575.801 159.105 575.115 158.454 575.093 157.63C574.918 151.098 573.388 144.674 570.6 138.764C567.813 132.854 563.828 127.588 558.899 123.299C553.97 119.009 548.204 115.79 541.966 113.846C535.728 111.901 529.154 111.273 522.661 112.002C521.841 112.094 521.102 111.504 521.009 110.684C520.917 109.864 521.508 109.125 522.328 109.033ZM292.845 260.919C293.639 260.693 294.099 259.866 293.872 259.073C293.646 258.279 292.82 257.819 292.026 258.046C283.815 260.387 275.03 259.996 266.232 259.225C265.123 259.128 264.008 259.025 262.888 258.922C255.205 258.212 247.29 257.48 239.463 258.488C230.465 259.646 221.183 263.435 215.527 270.92C215.029 271.578 215.16 272.515 215.818 273.012C216.476 273.51 217.413 273.38 217.911 272.721C222.913 266.102 231.311 262.549 239.844 261.451C247.319 260.489 254.876 261.185 262.589 261.895H262.589C263.713 261.999 264.841 262.103 265.971 262.202C274.784 262.973 284.057 263.426 292.845 260.919Z" fill="#171717"/>
<path fill-rule="evenodd" clip-rule="evenodd" d="M244.232 664.983C246.62 667.712 249.178 670.286 251.891 672.692C252.678 673.4 253.475 674.086 254.263 674.754C277.639 694.345 307.291 704.953 337.082 711.487C366.624 717.961 397.843 720.74 426.843 712.154C454.104 704.087 477.729 686.401 497.012 665.501C512.52 648.688 525.498 629.774 537.929 610.521C570.857 679.007 604.961 746.969 641.724 813.469C650.519 829.376 660.449 846.139 676.873 853.917C682.025 856.331 687.592 857.731 693.273 858.041C704.548 858.805 715.71 855.399 724.637 848.469C732.817 842.072 738.818 833.302 741.818 823.36C742.414 821.413 742.886 819.43 743.233 817.423C743.749 814.41 744.006 811.358 744 808.3C744.014 786.862 731.874 766.311 720.681 747.362L720.5 747.055C686.134 688.88 657.535 627.486 635.109 563.748V563.718C628.333 564.83 621.553 565.939 614.77 567.044C595.799 570.168 576.822 573.268 557.838 576.344C528.422 581.105 498.983 585.757 469.422 590.069L469.133 590.657C464.555 588.525 460.582 585.54 456.431 582.422C453.62 580.31 450.727 578.136 447.509 576.125C444.501 574.453 441.543 572.75 438.635 571.016C434.94 568.825 431.294 566.584 427.698 564.292L427.36 564.82C430.786 584.083 433.635 602.958 421.712 618.466C412.509 630.428 396.213 635.348 381.184 633.874C366.155 632.4 352.23 625.419 339.531 617.251C334.709 614.15 330.009 610.861 325.31 607.573C317.633 602.201 309.96 596.832 301.772 592.291C291.613 586.643 279.919 582.231 268.525 584.561C267.122 584.849 265.74 585.236 264.391 585.717C255.019 589.034 247.399 596.663 241.732 605C237.51 611.027 234.4 617.761 232.549 624.883C231.493 629.133 231.133 633.526 231.483 637.891C232.369 648.061 237.449 657.183 244.232 664.983ZM641.332 604.043C640.939 603.318 640.032 603.05 639.307 603.443C638.581 603.837 638.313 604.744 638.707 605.469C670.234 663.526 699.59 722.627 726.775 782.772C727.115 783.523 728 783.857 728.752 783.518C729.504 783.178 729.838 782.293 729.498 781.541C702.283 721.33 672.894 662.164 641.332 604.043Z" fill="#171717"/>
<path d="M742.51 429.893C752.49 414.923 733.416 376.566 721.065 378.04L720.607 378.11C720.538 377.71 720.478 377.323 720.418 376.925C716.434 357.004 712.45 338.08 707.241 319.275L706.992 317.333L717.55 315.988L717.44 314.624C738.87 327.46 755.046 347.488 763.087 371.138C766.793 382.194 768.625 394.225 765.757 405.53C762.889 416.835 754.691 427.214 743.476 430.401L742.51 429.893Z" fill="url(#paint2_linear_164_3972)"/>
<path d="M779.761 826.786C772.281 824.575 764.352 823.848 756.384 823.678C751.962 823.589 747.52 823.668 743.127 823.758L741.827 823.358C742.422 821.411 742.895 819.428 743.242 817.421C743.755 814.408 744.008 811.357 744 808.3H744.279C764.727 817.782 788.821 812.254 811.012 816.2C816.599 817.2 822.287 818.909 826.54 822.674C832.117 827.615 834.428 835.563 833.711 842.983C832.705 853.262 826.42 862.495 818.323 868.91C810.226 875.325 800.434 879.198 790.564 882.226C775.537 886.644 760.153 889.737 744.587 891.469C734.887 892.655 724.577 893.402 715.793 889.109C704.219 883.461 698.283 870.672 693.223 858.83L693.273 858.043C704.547 858.807 715.71 855.401 724.637 848.471L725.046 849.019C727.878 850.851 730.844 852.465 733.92 853.85C744.203 858.497 755.465 860.565 766.729 859.876C770.935 859.631 775.095 858.876 779.119 857.625C784.502 856.038 789.399 853.124 793.362 849.149C795.394 847.027 797.157 844.407 797.287 841.469C797.292 838.823 796.258 836.28 794.408 834.388C792.563 832.535 790.394 831.035 788.008 829.965C785.353 828.674 782.595 827.611 779.761 826.786V826.786Z" fill="url(#paint3_linear_164_3972)"/>
<path d="M558.177 253.976C561.043 251.268 563.962 248.612 566.932 246.008C576.105 246.034 585.059 243.21 592.558 237.927C600.057 232.644 605.73 225.163 608.794 216.516C609.84 215.968 610.894 215.416 611.952 214.893C631.832 204.912 679.004 189.205 676.185 204.145L676.862 204.335C676.553 205.218 676.181 206.076 675.747 206.904C665.528 226.934 648.157 242.904 628.117 253.104C624.123 255.131 620.027 256.949 615.846 258.552C599.586 264.639 582.425 267.969 565.069 268.403C564.381 268.432 563.694 268.452 563.007 268.462L561.215 268.333C561.448 266.057 561.144 263.758 560.328 261.62C559.52 259.13 558.551 256.694 557.428 254.329L558.177 253.976Z" fill="url(#paint4_linear_164_3972)"/>
<path d="M544.342 337.98L595.542 331.48L595.692 332.636L614.676 566.461L614.776 567.048C595.802 570.156 576.825 573.256 557.844 576.348L557.725 575.601L541.2 338.608L541.17 338.379L544.342 337.98Z" fill="url(#paint5_linear_164_3972)"/>
<path d="M597.47 283.867L600.259 330.879L595.537 331.476L544.342 337.98L541.553 291.187L597.47 283.867Z" fill="url(#paint6_linear_164_3972)"/>
<path d="M597.44 283.419L597.47 283.867L541.553 291.187V291.148L508.236 278.658C520.019 272.004 534.81 273.199 548.466 274.225C552.848 274.554 558.177 274.375 560.408 270.59C560.815 269.893 561.089 269.126 561.215 268.329L563.007 268.458C563.695 268.448 564.383 268.428 565.069 268.399L565.099 269.355L571.663 272.213L597.44 283.419Z" fill="url(#paint7_linear_164_3972)"/>
<path d="M421.872 282.841C421.015 282.681 420.159 282.522 419.302 282.353L419.451 281.576C412.838 278.05 409.82 269.494 411.643 262.223C413.079 257.033 416.289 252.511 420.716 249.444L420.756 249.504C429.88 260.171 442.278 267.518 456.016 270.398C469.754 273.279 484.059 271.532 496.7 265.43C500.774 263.49 504.628 261.116 508.194 258.349C508.844 265.266 508.303 272.243 506.594 278.976L506.106 278.857C499.126 280.986 492.01 282.637 484.806 283.797C463.922 287.01 442.648 286.687 421.872 282.841V282.841Z" fill="url(#paint8_linear_164_3972)"/>
<path d="M508.068 257.014L507.311 257.104C500.249 256.038 493.23 254.739 486.255 253.209C480.907 252.054 475.591 250.756 470.309 249.315C463.078 247.353 455.877 245.132 448.456 244.126C441.035 243.12 433.256 243.389 426.335 246.277C424.345 247.11 422.46 248.173 420.717 249.444C416.291 252.511 413.08 257.033 411.644 262.223C409.821 269.494 412.844 278.05 419.452 281.576L419.303 282.353C411.239 280.811 403.269 278.819 395.428 276.387C393.974 275.938 392.49 275.46 391.036 274.913C386.674 273.289 382.536 271.088 379.861 267.373C375.249 260.948 376.554 251.715 380.837 245.062C388.895 232.562 405.269 227.751 420.11 228.762C434.951 229.773 448.994 235.485 463.247 239.728C467.51 241.004 471.813 242.143 476.156 243.145C485.808 245.404 495.601 247.011 505.469 247.955L506.275 247.736C507.126 250.774 507.726 253.878 508.068 257.014V257.014Z" fill="url(#paint9_linear_164_3972)"/>
<path d="M496.335 264.644L496.704 265.43C484.062 271.533 469.756 273.279 456.018 270.397C442.279 267.516 429.881 260.168 420.757 249.5L420.717 249.44C422.46 248.169 424.345 247.106 426.335 246.273C433.257 243.385 441.026 243.116 448.456 244.122C455.886 245.128 463.078 247.349 470.309 249.311C475.587 250.745 480.903 252.043 486.255 253.205L486.206 253.444C489.34 257.389 492.724 261.13 496.335 264.644V264.644Z" fill="#171717"/>
<path d="M484.811 283.8L484.961 284.647L392.032 301L392.052 301.219L367.729 294.954L367.66 293.729L421.873 282.843C442.65 286.69 463.927 287.013 484.811 283.8V283.8Z" fill="url(#paint10_linear_164_3972)"/>
<path d="M424.989 493.24L424.84 491.716C424.354 487.989 424.22 484.224 424.44 480.471L425.526 480.55C426.052 480.879 426.594 481.182 427.15 481.457L426.701 482.303C428.973 499.117 431.239 515.93 433.501 532.742C434.975 543.609 436.442 554.475 437.901 565.342C438.15 567.225 438.409 569.097 438.658 570.97L438.628 571.02C434.923 568.828 431.277 566.587 427.691 564.296C424.166 562.055 420.691 559.775 417.213 557.444L417.562 556.916C414.634 536.288 410.65 515.372 408.279 494.286L408.369 493.32C413.898 493.851 419.466 493.825 424.989 493.24V493.24Z" fill="url(#paint11_linear_164_3972)"/>
<path d="M420.558 436.775C422.938 438.259 425.322 439.743 427.709 441.228C429.502 442.333 431.365 443.528 432.381 445.371C433.133 446.805 433.388 448.448 433.108 450.042C432.749 452.642 431.425 455.311 430.269 457.732C426.876 464.865 424.898 472.586 424.442 480.471C424.221 484.224 424.355 487.989 424.842 491.716L424.991 493.24C419.47 493.824 413.904 493.85 408.378 493.319C400.913 492.587 393.542 491.099 386.378 488.877C372.314 484.634 358.649 478.07 345.621 471.287C332.782 464.604 319.585 457.164 311.621 445.087C300.067 427.567 302.378 403.543 312.686 385.276C322.994 367.009 340.047 353.533 357.627 342.089L357.657 342.079C361.571 362.879 365.286 382.946 369.757 403.912L369.209 404.788C378.602 410.635 387.995 416.485 397.387 422.338C405.111 427.145 412.835 431.958 420.558 436.775Z" fill="url(#paint12_linear_164_3972)"/>
<path d="M395.767 347.472L409.343 351.347L409.134 352.084C409.871 357.492 410.601 362.897 411.325 368.299C413.147 381.805 414.97 395.318 416.793 408.837C418.048 418.15 419.303 427.463 420.558 436.775C412.828 431.955 405.103 427.141 397.381 422.333L397.581 422.014C393.726 395.849 390.738 370.949 386.176 345.052L386.256 344.763L395.767 347.472Z" fill="url(#paint13_linear_164_3972)"/>
<path d="M392.052 301.217L395.767 347.472L386.255 344.763L370.1 340.162L370.239 339.664L367.729 294.952L392.052 301.217Z" fill="url(#paint14_linear_164_3972)"/>
<path d="M219.2 637.782C214.6 644.188 210.588 650.995 207.21 658.12C205.895 660.909 204.674 663.744 203.545 666.626C200.855 673.509 198.724 681.079 200.597 688.22C201.513 691.72 203.585 695.132 206.891 696.567C212.33 698.917 218.385 695.172 222.808 691.228C225.548 688.777 228.154 686.18 230.616 683.449C233.876 679.839 236.869 675.995 239.571 671.949C240.935 669.907 242.23 667.826 243.445 665.684L244.232 664.984C246.62 667.713 249.178 670.288 251.891 672.693C247.549 680.193 243.146 687.723 237.479 694.257C231.752 700.857 224.591 706.468 216.224 708.988C207.857 711.508 198.216 710.582 191.254 705.313C183.714 699.595 180.328 689.675 180.278 680.213C180.228 670.751 183.067 661.538 185.878 652.513C191.715 633.778 197.641 614.923 206.854 597.602C209.862 591.925 213.269 586.367 217.791 581.802C222.313 577.237 228.08 573.695 234.434 572.729C245.38 571.065 256.058 577.171 264.305 584.551L264.394 585.717C255.022 589.034 247.402 596.663 241.735 605C237.513 611.027 234.404 617.759 232.552 624.88L230.092 624.452C226.174 628.653 222.535 633.106 219.2 637.782Z" fill="url(#paint15_linear_164_3972)"/>
<path d="M514.98 236.436C516.425 234.663 518.636 233.717 520.319 232.193C522.002 230.669 523.119 227.92 521.684 226.148C520.369 224.534 517.909 224.763 515.897 224.255C514.882 223.99 513.936 223.51 513.121 222.849C512.307 222.187 511.644 221.359 511.176 220.42" stroke="#171717" stroke-width="2.988" stroke-linecap="round" stroke-linejoin="round"/>
<path d="M510.9 200.072C511.913 201.392 513.307 202.37 514.894 202.872C516.48 203.375 518.183 203.378 519.771 202.881C521.359 202.385 522.757 201.413 523.775 200.096C524.793 198.78 525.382 197.182 525.462 195.52" stroke="#171717" stroke-width="2.988" stroke-linecap="round" stroke-linejoin="round"/>
<path d="M479.979 217.522C481.353 218.423 482.95 218.922 484.593 218.965C486.235 219.008 487.857 218.592 489.276 217.765C490.695 216.937 491.855 215.731 492.627 214.28C493.399 212.83 493.751 211.194 493.645 209.554" stroke="#171717" stroke-width="2.988" stroke-linecap="round" stroke-linejoin="round"/>
<path d="M505.855 246.954C505.913 246.911 505.973 246.872 506.034 246.835C516.045 239.555 528.436 236.324 540.726 237.791C542.446 237.997 544.152 238.302 545.835 238.707L546.114 238.767" stroke="#171717" stroke-width="2.988" stroke-linecap="round" stroke-linejoin="round"/>
<path d="M505.984 246.665C506.004 246.725 506.014 246.775 506.034 246.835C506.124 247.135 506.204 247.435 506.273 247.741C507.125 250.778 507.724 253.879 508.066 257.014C508.126 257.452 508.176 257.901 508.196 258.349C508.847 265.266 508.306 272.243 506.596 278.976C506.536 279.245 506.467 279.514 506.396 279.783C507.003 279.383 507.611 279.016 508.238 278.658C520.021 272.004 534.812 273.199 548.468 274.225C552.85 274.554 558.179 274.375 560.41 270.59C560.817 269.893 561.091 269.127 561.217 268.329C561.451 266.053 561.147 263.754 560.33 261.616C559.523 259.126 558.554 256.69 557.43 254.325C554.683 248.449 551.048 243.031 546.653 238.259" stroke="#171717" stroke-width="2.988" stroke-linecap="round" stroke-linejoin="round"/>
<path d="M545.947 238.229C545.996 238.14 546.047 238.04 546.096 237.95C554.308 222.843 566.521 210.29 581.396 201.665C587.522 198.052 594.008 195.087 600.749 192.821C624.285 185.041 649.867 186.24 672.571 196.187C674.205 196.904 675.918 197.761 676.785 199.325C677.146 200.109 677.339 200.959 677.352 201.822C677.366 202.684 677.2 203.54 676.864 204.335C676.556 205.218 676.183 206.076 675.749 206.904C665.53 226.934 648.159 242.904 628.119 253.104C624.126 255.131 620.03 256.949 615.848 258.552C599.589 264.639 582.427 267.969 565.071 268.403C564.384 268.432 563.697 268.452 563.009 268.462" stroke="#171717" stroke-width="2.988" stroke-linecap="round" stroke-linejoin="round"/>
<path d="M676.186 204.145C679.005 189.205 631.833 204.912 611.953 214.893C610.897 215.42 609.841 215.968 608.795 216.516C593.676 224.504 579.821 234.703 566.933 246.008C563.965 248.608 561.046 251.264 558.178 253.976C558.726 253.476 559.283 252.976 559.831 252.482" stroke="#171717" stroke-width="2.988" stroke-linecap="round" stroke-linejoin="round"/>
<path d="M566.863 246.008H566.933C576.106 246.034 585.061 243.211 592.56 237.927C600.059 232.644 605.732 225.163 608.795 216.516C608.813 216.488 608.826 216.458 608.835 216.426" stroke="#171717" stroke-width="2.988" stroke-linecap="round" stroke-linejoin="round"/>
<path d="M505.469 247.96C495.601 247.016 485.808 245.409 476.156 243.15C471.813 242.144 467.51 241.005 463.247 239.733C448.994 235.49 434.947 229.773 420.11 228.767C405.273 227.761 388.895 232.567 380.837 245.067C376.554 251.72 375.249 260.953 379.861 267.378C382.54 271.093 386.674 273.294 391.036 274.918C392.49 275.465 393.974 275.943 395.428 276.392C403.269 278.824 411.239 280.816 419.303 282.358C420.16 282.527 421.016 282.686 421.873 282.846C442.65 286.692 463.926 287.015 484.811 283.802C492.015 282.641 499.131 280.991 506.111 278.862" stroke="#171717" stroke-width="2.988" stroke-linecap="round" stroke-linejoin="round"/>
<path d="M507.311 257.1C500.249 256.033 493.23 254.735 486.255 253.205C480.907 252.05 475.592 250.752 470.309 249.311C463.078 247.349 455.877 245.128 448.456 244.122C441.035 243.116 433.256 243.385 426.335 246.273C424.345 247.106 422.46 248.169 420.717 249.44C416.291 252.507 413.08 257.029 411.644 262.219C409.821 269.49 412.844 278.046 419.452 281.572" stroke="#171717" stroke-width="2.988" stroke-linecap="round" stroke-linejoin="round"/>
<path d="M420.756 249.5C429.88 260.167 442.278 267.515 456.015 270.396C469.753 273.278 484.059 271.532 496.7 265.43C500.774 263.489 504.628 261.115 508.194 258.349C508.204 258.339 508.223 258.329 508.233 258.319" stroke="#171717" stroke-width="2.988" stroke-linecap="round" stroke-linejoin="round"/>
<path d="M390.856 276.148L340.238 287.871L340.477 287.93L367.728 294.952L392.051 301.217L416.633 307.552L541.553 291.187L597.47 283.867L713.685 268.648L647.3 262.582L616.304 259.743" stroke="#171717" stroke-width="2.988" stroke-linecap="round" stroke-linejoin="round"/>
<path d="M713.685 268.648L717.44 314.624L717.55 315.988L706.992 317.333L600.259 330.879L595.537 331.476L544.342 337.98L541.165 338.379L426.354 352.96L418.515 353.956L417.758 353.737L409.342 351.347L395.766 347.472L386.254 344.763L370.099 340.162L356.573 336.307L348.545 334.026L344.451 332.871L343.625 324.245L340.238 288.867" stroke="#171717" stroke-width="2.988" stroke-linecap="round" stroke-linejoin="round"/>
<path d="M386.344 488.967C389.744 506.407 392.728 525.331 396.712 543.26C403.645 548.15 410.418 552.881 417.22 557.443C420.696 559.774 424.173 562.054 427.698 564.295C431.294 566.587 434.939 568.828 438.635 571.019C441.543 572.753 444.501 574.456 447.509 576.128C455.477 581.108 461.454 587.084 469.133 590.66" stroke="#171717" stroke-width="2.988" stroke-linecap="round" stroke-linejoin="round"/>
<path d="M356.514 336.018C356.534 336.118 356.554 336.207 356.574 336.307C356.932 338.239 357.301 340.162 357.65 342.074C361.564 362.874 365.279 382.941 369.75 403.907" stroke="#171717" stroke-width="2.988" stroke-linecap="round" stroke-linejoin="round"/>
<path d="M724.284 402.164C723.128 393.857 721.923 386.417 720.608 378.11C720.539 377.71 720.479 377.323 720.419 376.925C716.435 357.004 712.451 338.08 707.242 319.275" stroke="#171717" stroke-width="2.988" stroke-linecap="round" stroke-linejoin="round"/>
<path d="M449.811 483.439C449.811 483.459 449.821 483.479 449.821 483.499C457.47 518.399 461.455 555.232 469.421 590.072C498.982 585.76 528.421 581.108 557.837 576.347C576.821 573.271 595.798 570.171 614.769 567.047C621.552 565.942 628.332 564.833 635.108 563.721C668.126 558.352 701.174 553.093 734.361 548.243C736.353 541.271 735.361 534.298 735.361 527.326C734.136 496.36 731.806 467.147 728.379 436.758" stroke="#171717" stroke-width="2.988" stroke-linecap="round" stroke-linejoin="round"/>
<path d="M426.482 353.956C431.572 385.889 438.544 417.761 443.713 449.624" stroke="#171717" stroke-width="2.988" stroke-linecap="round" stroke-linejoin="round"/>
<path d="M451.701 224.414C451.881 224.544 452.05 224.673 452.219 224.793C467.638 236.098 463.644 234.763 476.164 243.11" stroke="#171717" stroke-width="2.988" stroke-linecap="round" stroke-linejoin="round"/>
<path d="M450.029 225.48C450.766 225.261 451.493 225.032 452.22 224.793C476.803 216.928 498.833 202.625 516.02 183.369C518.042 181.098 520.373 178.569 523.42 178.518C525.42 178.658 527.324 179.428 528.858 180.718C537.344 186.765 543.284 195.747 545.528 205.923C547.771 216.099 546.157 226.745 541 235.8" stroke="#171717" stroke-width="2.988" stroke-linecap="round" stroke-linejoin="round"/>
<path d="M40.0684 402.363C40.3684 402.463 40.6684 402.572 40.9684 402.672C59.1554 408.917 77.9604 413.767 97.1534 414.813C116.665 415.879 136.675 412.871 154.066 403.976C171.655 394.982 185.709 380.54 200.629 367.592C215.549 354.644 232.562 342.612 252.163 340.172C268.428 338.16 284.703 342.972 301.078 343.658C317.453 344.344 336.207 339.136 343.15 324.295" stroke="#171717" stroke-width="2.988" stroke-linecap="round" stroke-linejoin="round"/>
<path d="M581.325 201.914C581.345 201.835 581.375 201.745 581.395 201.665C586.156 184.136 590.877 165.709 586.534 148.09C581.066 125.868 561.126 108.807 538.855 103.528C516.584 98.2493 492.67 103.637 472.779 114.942" stroke="#171717" stroke-width="2.988" stroke-linecap="round" stroke-linejoin="round"/>
<path d="M482.489 118.727C479.262 117.552 475.944 116.642 472.569 116.008C444.661 110.629 408.495 121.137 388.744 141.327C371.644 158.807 362.23 182.153 350.208 203.448C338.186 224.743 321.384 245.679 297.678 251.735C272.878 258.06 245.786 246.656 221.383 254.395C200.836 260.909 186.632 279.703 177.051 299.006C167.47 318.309 161 339.315 148.724 357.024C125.407 390.69 81.0046 411.237 40.9746 402.642" stroke="#171717" stroke-width="2.988" stroke-linecap="round" stroke-linejoin="round"/>
<path d="M357.619 342.084C340.039 353.528 322.997 366.994 312.678 385.271C302.359 403.548 300.059 427.562 311.613 445.082C319.581 457.164 332.778 464.604 345.613 471.282C358.641 478.065 372.306 484.629 386.37 488.872C393.534 491.094 400.905 492.582 408.37 493.314C413.896 493.845 419.462 493.819 424.983 493.235C425.183 493.225 425.392 493.195 425.591 493.175" stroke="#171717" stroke-width="2.988" stroke-linecap="round" stroke-linejoin="round"/>
<path d="M364.352 401.765C365.965 402.771 367.589 403.777 369.202 404.783C378.595 410.63 387.988 416.48 397.38 422.333C405.108 427.144 412.834 431.958 420.557 436.775C422.937 438.259 425.321 439.743 427.708 441.228C429.501 442.333 431.364 443.528 432.38 445.371C433.132 446.805 433.387 448.448 433.107 450.042C432.748 452.642 431.424 455.311 430.268 457.732C426.876 464.865 424.897 472.586 424.441 480.471C424.22 484.224 424.354 487.989 424.841 491.716" stroke="#171717" stroke-width="2.988" stroke-linecap="round" stroke-linejoin="round"/>
<path d="M433.773 450.152C436.423 452.393 440.616 451.975 443.425 449.933C443.534 449.853 443.654 449.763 443.753 449.674C446.313 447.602 447.259 444.196 448.893 441.297C470.885 402.413 466.672 435.809 460.845 445.371C460.396 446.089 460.165 446.922 460.179 447.769C460.193 448.616 460.452 449.44 460.925 450.142C461.96 451.467 463.943 451.467 465.616 451.297C482.488 449.534 498.933 442.473 515.816 444.097C518.177 444.326 521.155 445.462 520.995 447.822C520.856 449.874 518.416 450.8 516.424 451.258C515.358 451.497 514.302 451.746 513.236 451.986C499.382 455.153 485.528 458.317 471.673 461.478L473.117 461.298" stroke="#171717" stroke-width="2.988" stroke-linecap="round" stroke-linejoin="round"/>
<path d="M512.53 462.333C511.704 462.562 510.857 462.742 510.02 462.921C498.287 465.391 486.554 467.858 474.82 470.321" stroke="#171717" stroke-width="2.988" stroke-linecap="round" stroke-linejoin="round"/>
<path d="M513.246 452.024C516.195 451.317 518.946 453.324 519.153 455.471C519.172 456.556 518.9 457.625 518.365 458.569C517.831 459.513 517.054 460.297 516.115 460.839C515.009 461.521 513.802 462.026 512.539 462.333" stroke="#171717" stroke-width="2.988" stroke-linecap="round" stroke-linejoin="round"/>
<path d="M511.892 462.433C512.111 462.393 512.32 462.353 512.529 462.333H512.539C513.021 462.237 513.517 462.241 513.997 462.345C514.477 462.448 514.931 462.649 515.331 462.934C515.73 463.22 516.067 463.585 516.32 464.005C516.573 464.426 516.737 464.895 516.802 465.381C516.923 466.386 516.769 467.405 516.357 468.329C515.945 469.253 515.29 470.048 514.462 470.63C512.794 471.769 510.925 472.58 508.954 473.02C489.661 478.56 469.842 482.072 449.82 483.5C448.336 483.6 446.852 483.7 445.368 483.778C439.193 484.127 432.629 484.167 427.151 481.458C426.595 481.183 426.053 480.881 425.527 480.551" stroke="#171717" stroke-width="2.988" stroke-linecap="round" stroke-linejoin="round"/>
<path d="M721.066 378.04C733.417 376.566 752.491 414.923 742.511 429.893C741.44 431.459 740.042 432.773 738.413 433.744C736.785 434.716 734.964 435.322 733.078 435.52C731.485 435.759 729.891 435.998 728.298 436.22C715.021 438.12 701.574 439.506 688.108 439.028C686.477 439.062 684.854 438.799 683.317 438.251C681.853 437.624 680.658 436.319 680.817 434.915C681.046 432.883 683.717 431.847 685.977 431.249C686.377 431.14 686.784 431.04 687.182 430.941C697.68 428.204 708.324 426.062 719.064 424.526" stroke="#171717" stroke-width="2.77" stroke-linecap="round" stroke-linejoin="round"/>
<path d="M687.07 430.5C683.345 430.251 678.904 428.568 678.864 425.361C678.834 422.811 681.564 421.148 684.422 420.102C684.98 419.893 685.538 419.714 686.075 419.554C696.312 416.566 706.817 414.581 717.44 413.628" stroke="#171717" stroke-width="2.77" stroke-linecap="round" stroke-linejoin="round"/>
<path d="M684.253 419.654C683.561 419.677 682.874 419.543 682.241 419.262C681.609 418.982 681.048 418.562 680.601 418.034C680.153 417.507 679.831 416.885 679.658 416.215C679.485 415.545 679.465 414.845 679.601 414.166C680.006 412.791 680.741 411.535 681.74 410.507C682.74 409.48 683.974 408.71 685.338 408.266C697.888 404.232 711.364 402.699 724.283 402.566C726.195 402.536 728.083 402.546 729.97 402.586" stroke="#171717" stroke-width="2.77" stroke-linecap="round" stroke-linejoin="round"/>
<path d="M717.41 314.6C717.42 314.61 717.43 314.61 717.44 314.62C738.87 327.456 755.046 347.484 763.087 371.134C766.793 382.19 768.625 394.221 765.757 405.526C762.889 416.831 754.691 427.21 743.476 430.397" stroke="#171717" stroke-width="2.988" stroke-linecap="round" stroke-linejoin="round"/>
<path d="M427.36 564.823C430.786 584.086 433.635 602.961 421.712 618.469C412.512 630.431 396.204 635.341 381.184 633.877C366.164 632.413 352.22 625.421 339.531 617.254C326.842 609.087 314.969 599.614 301.772 592.294C291.613 586.646 279.919 582.234 268.525 584.564C267.122 584.853 265.74 585.239 264.391 585.72C255.019 589.037 247.399 596.666 241.732 605.003C237.51 611.03 234.4 617.762 232.549 624.883C231.493 629.133 231.133 633.526 231.483 637.891C232.369 648.061 237.449 657.184 244.232 664.983C246.62 667.712 249.178 670.286 251.891 672.692C252.678 673.399 253.475 674.086 254.272 674.754C277.648 694.345 307.3 704.954 337.091 711.487C366.633 717.961 397.848 720.74 426.852 712.154C454.113 704.087 477.738 686.397 497.021 665.501C512.529 648.688 525.507 629.774 537.938 610.521C540.938 605.849 543.923 601.168 546.892 596.477" stroke="#171717" stroke-width="2.988" stroke-linecap="round" stroke-linejoin="round"/>
<path d="M537.6 609.823C537.71 610.053 537.819 610.292 537.939 610.523C570.867 679.009 604.971 746.967 641.734 813.471C650.534 829.378 660.459 846.141 676.883 853.919C682.034 856.333 687.602 857.733 693.283 858.043C704.557 858.807 715.72 855.4 724.647 848.471C732.827 842.074 738.828 833.304 741.828 823.362C742.423 821.415 742.896 819.432 743.243 817.425C743.756 814.411 744.009 811.358 744 808.3C744.01 786.746 731.739 766.089 720.494 747.055C686.129 688.879 657.53 627.485 635.105 563.748" stroke="#171717" stroke-width="2.988" stroke-linecap="round" stroke-linejoin="round"/>
<path d="M264.301 584.554C256.054 577.174 245.376 571.068 234.43 572.732C228.076 573.698 222.319 577.244 217.787 581.805C213.255 586.366 209.858 591.925 206.85 597.605C197.637 614.926 191.711 633.781 185.874 652.516C183.066 661.54 180.227 670.753 180.274 680.216C180.321 689.679 183.71 699.598 191.25 705.316C198.212 710.585 207.863 711.501 216.22 708.991C224.577 706.481 231.748 700.863 237.475 694.26C243.142 687.726 247.545 680.196 251.887 672.696C251.927 672.636 251.957 672.567 251.997 672.507" stroke="#171717" stroke-width="2.988" stroke-linecap="round" stroke-linejoin="round"/>
<path d="M230.09 624.455C220.797 634.448 213.082 645.801 207.211 658.12C205.897 660.909 204.675 663.744 203.546 666.626C200.856 673.509 198.725 681.079 200.598 688.22C201.514 691.72 203.586 695.132 206.892 696.567C212.331 698.917 218.386 695.172 222.809 691.228C225.549 688.777 228.156 686.18 230.617 683.449C233.878 679.838 236.871 675.995 239.572 671.949C240.936 669.907 242.231 667.826 243.446 665.684" stroke="#171717" stroke-width="2.988" stroke-linecap="round" stroke-linejoin="round"/>
<path d="M232.429 688.081C231.802 686.547 231.194 685.003 230.616 683.449C228.394 677.602 226.456 671.666 224.8 665.64C222.278 656.498 220.407 647.189 219.2 637.782C218.871 635.202 218.583 632.612 218.354 630.013" stroke="#171717" stroke-width="2.988" stroke-linecap="round" stroke-linejoin="round"/>
<path d="M243.624 673.678L239.571 671.945C234.651 669.843 229.727 667.742 224.8 665.64C218.934 663.13 213.07 660.624 207.21 658.12C204.72 657.055 202.22 655.989 199.73 654.92" stroke="#171717" stroke-width="2.988" stroke-linecap="round" stroke-linejoin="round"/>
<path d="M725.051 849.017C727.883 850.848 730.85 852.463 733.925 853.848C744.208 858.495 755.47 860.563 766.734 859.874C770.94 859.629 775.1 858.873 779.124 857.623C784.507 856.036 789.405 853.122 793.367 849.147C795.399 847.025 797.162 844.405 797.292 841.467C797.297 838.821 796.263 836.278 794.413 834.386C792.568 832.532 790.399 831.033 788.013 829.963C785.359 828.673 782.6 827.61 779.766 826.786C772.286 824.575 764.357 823.848 756.389 823.678C751.967 823.589 747.525 823.668 743.132 823.758" stroke="#171717" stroke-width="2.988" stroke-linecap="round" stroke-linejoin="round"/>
<path d="M728.656 856.587C730.42 855.69 732.176 854.778 733.925 853.848C744.433 848.33 754.752 842.464 764.881 836.248C769.891 833.17 774.852 830.016 779.762 826.786C781.326 825.75 782.89 824.708 784.453 823.658" stroke="#171717" stroke-width="2.988" stroke-linecap="round" stroke-linejoin="round"/>
<path d="M752.969 818.658C754.114 820.332 755.253 822.005 756.385 823.678C759.233 827.862 762.067 832.052 764.885 836.248C769.676 843.35 774.424 850.475 779.128 857.623C780.452 859.615 781.767 861.607 783.073 863.599" stroke="#171717" stroke-width="2.988" stroke-linecap="round" stroke-linejoin="round"/>
<path d="M744.283 808.3C764.731 817.782 788.825 812.254 811.016 816.2C816.603 817.2 822.291 818.909 826.544 822.674C832.121 827.615 834.432 835.563 833.715 842.983C832.709 853.262 826.424 862.495 818.327 868.91C810.23 875.325 800.438 879.198 790.568 882.226C775.541 886.644 760.157 889.737 744.591 891.469C734.891 892.655 724.581 893.402 715.797 889.109C704.223 883.461 698.287 870.672 693.227 858.83" stroke="#171717" stroke-width="2.988" stroke-linecap="round" stroke-linejoin="round"/>
<path d="M486.205 253.448C489.34 257.393 492.723 261.134 496.334 264.648" stroke="#171717" stroke-width="2.988" stroke-linecap="round" stroke-linejoin="round"/>
<path d="M417.869 353.369C416.515 338.41 416.115 323.379 416.674 308.369" stroke="#171717" stroke-width="2.988" stroke-linecap="round" stroke-linejoin="round"/>
<path d="M507.799 278.498L508.237 278.658L541.554 291.148V291.187L544.343 337.98L544.363 338.259" stroke="#171717" stroke-width="2.988" stroke-linecap="round" stroke-linejoin="round"/>
<path d="M565.1 269.355L571.664 272.213L597.441 283.419L597.471 283.867L600.26 330.879" stroke="#171717" stroke-width="2.988" stroke-linecap="round" stroke-linejoin="round"/>
<path d="M541.195 338.608L557.719 575.6" stroke="#171717" stroke-width="2.988" stroke-linecap="round" stroke-linejoin="round"/>
<path d="M595.688 332.632L614.672 566.457" stroke="#171717" stroke-width="2.988" stroke-linecap="round" stroke-linejoin="round"/>
<path d="M485.298 284.584L484.96 284.644L392.031 300.998L392.051 301.217L395.766 347.472L395.776 347.632" stroke="#171717" stroke-width="2.988" stroke-linecap="round" stroke-linejoin="round"/>
<path d="M422.5 282.711L421.873 282.841L367.66 293.727L367.729 294.952L370.239 339.664" stroke="#171717" stroke-width="2.988" stroke-linecap="round" stroke-linejoin="round"/>
<path d="M426.701 482.3C428.973 499.114 431.239 515.927 433.501 532.739C434.975 543.606 436.442 554.473 437.901 565.339C438.15 567.222 438.409 569.094 438.658 570.967" stroke="#171717" stroke-width="2.988" stroke-linecap="round" stroke-linejoin="round"/>
<path d="M409.133 352.084C409.87 357.492 410.6 362.897 411.324 368.299C413.146 381.805 414.969 395.318 416.792 408.837C418.047 418.15 419.302 427.462 420.557 436.775C420.607 437.084 420.647 437.393 420.687 437.702" stroke="#171717" stroke-width="2.988" stroke-linecap="round" stroke-linejoin="round"/>
<path d="M408.287 494.285C410.658 515.371 414.642 536.285 417.57 556.915" stroke="#171717" stroke-width="2.988" stroke-linecap="round" stroke-linejoin="round"/>
<path d="M386.174 345.052C390.736 370.952 393.724 395.852 397.579 422.014" stroke="#171717" stroke-width="2.988" stroke-linecap="round" stroke-linejoin="round"/>
<path d="M571.783 271.934L647.242 263.259" stroke="#171717" stroke-width="2.988" stroke-linecap="round" stroke-linejoin="round"/>
<path d="M315.431 472.95C309.506 469.439 304.39 464.715 300.419 459.088C296.447 453.461 293.709 447.059 292.385 440.3" stroke="#171717" stroke-width="2.988" stroke-linecap="round" stroke-linejoin="round"/>
<path d="M205.328 572.4C206.713 567.567 209.673 563.335 213.739 560.376C217.805 557.418 222.743 555.904 227.768 556.073" stroke="#171717" stroke-width="2.988" stroke-linecap="round" stroke-linejoin="round"/>
<path d="M133.525 432.851C143.97 433.23 154.356 431.132 163.834 426.728C173.312 422.324 181.613 415.739 188.058 407.511" stroke="#171717" stroke-width="2.988" stroke-linecap="round" stroke-linejoin="round"/>
<path d="M171.953 281.107C181.493 258.046 205.172 241.549 230.11 240.588" stroke="#171717" stroke-width="2.988" stroke-linecap="round" stroke-linejoin="round"/>
<path d="M200.89 166.942C198.982 159.785 197.69 152.289 198.904 144.982C200.118 137.675 204.168 130.536 210.738 127.115C216.946 123.882 224.517 124.352 231.177 126.51C237.837 128.668 243.87 132.36 250.117 135.517C261.793 141.414 274.306 145.482 287.217 147.579C296.083 149.017 306.073 149.225 313.017 143.533C318.893 138.719 321.183 130.699 321.464 123.109C321.869 112.159 318.292 100.524 309.745 93.6682C306.352 90.9462 301.689 89.0452 297.678 90.7262C296.16 91.4505 294.859 92.5594 293.902 93.9427C292.946 95.326 292.369 96.9355 292.227 98.6112C291.993 101.982 292.845 105.339 294.659 108.19C299.545 116.455 309.504 121.052 319.096 120.625C326.222 120.308 333.579 117.109 337.212 110.97C340.036 106.198 340.289 100.391 341.748 95.0412C343.305 89.5271 346.15 84.4617 350.047 80.2621C353.945 76.0626 358.785 72.8491 364.168 70.8862" stroke="#171717" stroke-width="2.988" stroke-linecap="round" stroke-linejoin="round"/>
<path d="M789.654 416.1C793.748 408.551 796.211 400.226 796.883 391.665C797.555 383.103 796.421 374.496 793.554 366.4" stroke="#171717" stroke-width="2.988" stroke-linecap="round" stroke-linejoin="round"/>
<path d="M364.775 738.719C402.3 751.561 446.309 743.245 476.561 717.597" stroke="#171717" stroke-width="2.988" stroke-linecap="round" stroke-linejoin="round"/>
<path d="M157.038 549.229C144.346 561.584 133.153 576.045 127.69 592.893C122.227 609.741 123.15 629.27 133.106 643.919C136.819 649.382 142.138 654.281 148.675 655.229C155.212 656.177 162.71 651.724 163.128 645.13C163.49 639.43 158.382 634.37 152.743 633.47C147.104 632.57 141.362 635.07 137.007 638.76C123.345 650.344 122.307 671.222 126.367 688.669C130.427 706.116 138.449 722.825 139.115 740.724C139.415 748.86 138.058 757.312 133.567 764.102C129.076 770.892 121.02 775.673 112.937 774.703C104.854 773.733 97.7128 765.968 98.8428 757.902" stroke="#171717" stroke-width="2.988" stroke-linecap="round" stroke-linejoin="round"/>
<path d="M822.869 243.26C844.251 263.79 861.779 287.986 874.622 314.7C879.81 325.5 884.295 337.608 881.467 349.255C876.959 367.827 851.395 377.302 835.867 366.155C829.122 361.312 824.605 351.662 829.018 344.628C832.34 339.334 839.627 337.628 845.673 339.206C851.719 340.784 856.718 344.991 861.1 349.447C874.169 362.74 883.939 380.319 883.894 398.96C883.849 417.601 872.105 436.76 854.112 441.629C843.469 444.51 831.235 442.599 822.131 448.82C812.92 455.12 810.29 468.059 812.946 478.895C815.602 489.731 822.463 498.976 829.164 507.895" stroke="url(#paint16_linear_164_3972)" stroke-width="2.988" stroke-linecap="round" stroke-linejoin="round"/>
<path d="M828.399 314.7L824.109 298.686L825.235 299.936" stroke="#171717" stroke-width="2.988" stroke-linecap="round" stroke-linejoin="round"/>
<path d="M834.833 304.621L816.857 308.627" stroke="#171717" stroke-width="2.988" stroke-linecap="round" stroke-linejoin="round"/>
<path d="M914.88 457.075L907.5 438.092" stroke="#171717" stroke-width="2.988" stroke-linecap="round" stroke-linejoin="round"/>
<path d="M903.242 450.072C906.486 450.357 909.747 449.784 912.7 448.412C915.653 447.04 918.193 444.916 920.067 442.252" stroke="#171717" stroke-width="2.988" stroke-linecap="round" stroke-linejoin="round"/>
<path d="M645.727 156.407L653.043 140.557" stroke="url(#paint17_linear_164_3972)" stroke-width="2.988" stroke-linecap="round" stroke-linejoin="round"/>
<path d="M656.394 152.44L642.455 142.206" stroke="url(#paint18_linear_164_3972)" stroke-width="2.988" stroke-linecap="round" stroke-linejoin="round"/>
<path d="M589.828 87.8592L598.335 68.9072" stroke="#171717" stroke-width="2.988" stroke-linecap="round" stroke-linejoin="round"/>
<path d="M599.201 83.0683L586.719 71.2793" stroke="#171717" stroke-width="2.988" stroke-linecap="round" stroke-linejoin="round"/>
<path d="M170.327 172.332C165.314 171.355 160.611 169.183 156.617 166" stroke="#171717" stroke-width="2.988" stroke-linecap="round" stroke-linejoin="round"/>
<path d="M156.871 177.722L165.234 159.76" stroke="#171717" stroke-width="2.988" stroke-linecap="round" stroke-linejoin="round"/>
<path d="M215.1 534.3L220.207 524.554" stroke="#171717" stroke-width="2.988" stroke-linecap="round" stroke-linejoin="round"/>
<path d="M220.289 533.658C216.994 530.886 214.512 527.272 213.109 523.2" stroke="#171717" stroke-width="2.988" stroke-linecap="round" stroke-linejoin="round"/>
<path d="M136.568 534.447C133.348 533.264 130.628 531.017 128.859 528.078" stroke="url(#paint19_linear_164_3972)" stroke-width="2.988" stroke-linecap="round" stroke-linejoin="round"/>
<path d="M127.439 537.929L134.47 525.976" stroke="url(#paint20_linear_164_3972)" stroke-width="2.988" stroke-linecap="round" stroke-linejoin="round"/>
<path d="M107.755 636.359C104.886 638.58 101.499 640.032 97.9121 640.577" stroke="url(#paint21_linear_164_3972)" stroke-width="2.988" stroke-linecap="round" stroke-linejoin="round"/>
<path d="M102.633 645.511L101.723 630.759" stroke="url(#paint22_linear_164_3972)" stroke-width="2.988" stroke-linecap="round" stroke-linejoin="round"/>
<path d="M456.823 326.461L446.305 318.161" stroke="#171717" stroke-width="2.988" stroke-linecap="round" stroke-linejoin="round"/>
<path d="M486.51 319.762L490.717 312.725" stroke="#171717" stroke-width="2.988" stroke-linecap="round" stroke-linejoin="round"/>
<path d="M659.43 301.462C662.525 298.562 665.206 295.25 667.399 291.619" stroke="#171717" stroke-width="2.988" stroke-linecap="round" stroke-linejoin="round"/>
<path d="M611.156 271.971L624.756 271.071" stroke="#171717" stroke-width="2.988" stroke-linecap="round" stroke-linejoin="round"/>
<path d="M511.746 375.548C508.44 370.928 504.339 366.932 499.635 363.748" stroke="#171717" stroke-width="2.988" stroke-linecap="round" stroke-linejoin="round"/>
<path d="M454.57 383.005L459.256 372.223" stroke="#171717" stroke-width="2.988" stroke-linecap="round" stroke-linejoin="round"/>
<path d="M491.23 413.512L495.899 401.787" stroke="#171717" stroke-width="2.988" stroke-linecap="round" stroke-linejoin="round"/>
<path d="M520.691 513.79L527.253 503.009" stroke="#171717" stroke-width="2.988" stroke-linecap="round" stroke-linejoin="round"/>
<path d="M511.786 533.476C508.129 530.514 505.101 526.85 502.881 522.7" stroke="#171717" stroke-width="2.988" stroke-linecap="round" stroke-linejoin="round"/>
<path d="M520.607 565.25C523.503 562.772 526.01 559.873 528.044 556.65" stroke="#171717" stroke-width="2.988" stroke-linecap="round" stroke-linejoin="round"/>
<path d="M651.206 479.832L641.561 470.258" stroke="#171717" stroke-width="2.988" stroke-linecap="round" stroke-linejoin="round"/>
<path d="M704.9 488.479C708.983 484.768 712.324 480.314 714.743 475.355" stroke="#171717" stroke-width="2.988" stroke-linecap="round" stroke-linejoin="round"/>
<path d="M666.792 532.479C663.291 531.305 660.07 529.422 657.33 526.946C657.358 526.622 657.487 526.314 657.7 526.068C657.912 525.821 658.197 525.648 658.514 525.573" stroke="#171717" stroke-width="2.988" stroke-linecap="round" stroke-linejoin="round"/>
<path d="M666.074 448.229L673.174 438.434" stroke="#171717" stroke-width="2.988" stroke-linecap="round" stroke-linejoin="round"/>
<path d="M640.047 429.458C636.391 428.232 633.324 425.686 631.447 422.317" stroke="#171717" stroke-width="2.988" stroke-linecap="round" stroke-linejoin="round"/>
<path d="M659.391 398.916L668.764 389.54" stroke="#171717" stroke-width="2.988" stroke-linecap="round" stroke-linejoin="round"/>
<path d="M630.782 374.182L622.494 367.223L623.773 366.564" stroke="#171717" stroke-width="2.988" stroke-linecap="round" stroke-linejoin="round"/>
<path d="M667.412 353.5L677.769 342.764" stroke="#171717" stroke-width="2.988" stroke-linecap="round" stroke-linejoin="round"/>
<path d="M628.961 302.973C627.281 302.892 625.644 302.413 624.185 301.575C622.727 300.737 621.488 299.564 620.572 298.153" stroke="#171717" stroke-width="2.988" stroke-linecap="round" stroke-linejoin="round"/>
<path d="M403.48 328.627L408.462 321.014" stroke="#171717" stroke-width="2.988" stroke-linecap="round" stroke-linejoin="round"/>
<path d="M378.261 371.729L371.154 361.47" stroke="#171717" stroke-width="2.988" stroke-linecap="round" stroke-linejoin="round"/>
<path d="M377.23 398.459L383.212 390.871" stroke="#171717" stroke-width="2.988" stroke-linecap="round" stroke-linejoin="round"/>
<path d="M448.213 535.756L443.213 522.278" stroke="#171717" stroke-width="2.988" stroke-linecap="round" stroke-linejoin="round"/>
<path d="M398.422 520.377L401.81 511.512" stroke="#171717" stroke-width="2.988" stroke-linecap="round" stroke-linejoin="round"/>
<path d="M408.615 429.835C392.752 444.994 387.776 470.421 396.755 490.441" stroke="#171717" stroke-width="2.988" stroke-linecap="round" stroke-linejoin="round"/>
<path d="M719.463 366.659C724.235 363.542 730.563 365.918 735.645 368.494C747.897 374.704 760.418 382.588 765.953 395.159" stroke="#171717" stroke-width="2.988" stroke-linecap="round" stroke-linejoin="round"/>
<path d="M379.695 436.439L378.264 427.068" stroke="#171717" stroke-width="2.988" stroke-linecap="round" stroke-linejoin="round"/>
<path d="M372.57 434.086L382.619 430.434" stroke="#171717" stroke-width="2.988" stroke-linecap="round" stroke-linejoin="round"/>
<path d="M332.269 435.983C329.604 433.107 327.816 429.53 327.113 425.672" stroke="#171717" stroke-width="2.988" stroke-linecap="round" stroke-linejoin="round"/>
<path d="M324.25 436.874L332.837 427.639" stroke="#171717" stroke-width="2.988" stroke-linecap="round" stroke-linejoin="round"/>
<path d="M347.558 386.558L337.824 379.838" stroke="#171717" stroke-width="2.988" stroke-linecap="round" stroke-linejoin="round"/>
<path d="M338.361 387.706L345.392 377.863" stroke="#171717" stroke-width="2.988" stroke-linecap="round" stroke-linejoin="round"/>
<path d="M743.801 362.4L750.363 358.182" stroke="#171717" stroke-width="2.988" stroke-linecap="round" stroke-linejoin="round"/>
<path d="M748.486 365.207L745.205 357.707" stroke="#171717" stroke-width="2.988" stroke-linecap="round" stroke-linejoin="round"/>
<path d="M727.394 338.959L720.363 342.709" stroke="#171717" stroke-width="2.988" stroke-linecap="round" stroke-linejoin="round"/>
<path d="M725.5 345.529L721.758 337.089" stroke="#171717" stroke-width="2.988" stroke-linecap="round" stroke-linejoin="round"/>
<path d="M711.989 776.159C710.782 776.753 709.426 776.981 708.091 776.815C706.755 776.65 705.497 776.097 704.471 775.226C703.445 774.355 702.695 773.204 702.315 771.913C701.934 770.622 701.939 769.247 702.329 767.959C703.061 765.545 705.063 763.659 705.74 761.235C706.417 758.811 704.381 755.418 702.072 756.435" stroke="url(#paint23_linear_164_3972)" stroke-width="2.988" stroke-linecap="round" stroke-linejoin="round"/>
<path d="M648.79 753.238C647.645 753.977 646.302 754.348 644.94 754.3C643.579 754.253 642.264 753.789 641.174 752.973C640.084 752.156 639.27 751.025 638.841 749.731C638.413 748.438 638.391 747.045 638.778 745.738C639.285 744.038 640.441 742.613 641.295 741.054C642.149 739.495 642.695 737.554 641.904 735.965C641.113 734.376 638.496 733.806 637.58 735.329" stroke="url(#paint24_linear_164_3972)" stroke-width="2.988" stroke-linecap="round" stroke-linejoin="round"/>
<path d="M661.05 685.384C658.474 685.418 655.912 684.982 653.492 684.097C651.134 683.075 649.068 680.988 648.804 678.431C648.549 675.965 649.952 673.669 651.259 671.563C652.566 669.457 653.883 667.075 653.438 664.637C652.993 662.199 649.778 660.304 647.947 661.976" stroke="url(#paint25_linear_164_3972)" stroke-width="2.988" stroke-linecap="round" stroke-linejoin="round"/>
<path d="M599.374 664.162C596.988 663.089 595.115 661.127 594.155 658.692C593.195 656.258 593.224 653.545 594.235 651.132C595.315 648.826 597.246 647.056 598.935 645.148C600.624 643.24 602.159 640.955 602.149 638.409C602.139 635.863 599.913 633.227 597.405 633.67" stroke="url(#paint26_linear_164_3972)" stroke-width="2.988" stroke-linecap="round" stroke-linejoin="round"/>
<path d="M472.3 653.762C471.707 651.498 471.507 649.148 471.709 646.815C471.824 645.649 472.233 644.531 472.897 643.565C473.562 642.6 474.46 641.818 475.509 641.294C477.809 640.337 480.451 641.164 482.922 640.832C484.011 640.634 485.049 640.219 485.973 639.611C486.898 639.003 487.691 638.215 488.305 637.294C488.918 636.373 489.34 635.338 489.545 634.25C489.749 633.162 489.733 632.044 489.496 630.963" stroke="url(#paint27_linear_164_3972)" stroke-width="2.988" stroke-linecap="round" stroke-linejoin="round"/>
<path d="M397.533 658.911C397.919 655.05 400.833 651.318 404.686 650.854C406.968 650.579 409.217 651.412 411.409 652.103C413.601 652.794 416.009 653.348 418.16 652.54C420.311 651.732 421.867 649.019 420.68 647.05" stroke="url(#paint28_linear_164_3972)" stroke-width="2.988" stroke-linecap="round" stroke-linejoin="round"/>
<path d="M325.777 694C326.646 691.917 327.948 690.043 329.595 688.5C331.345 687.086 333.99 686.517 335.85 687.781C337.297 688.764 337.923 690.551 338.962 691.958C342.199 696.348 350.086 695.774 352.654 690.958" stroke="url(#paint29_linear_164_3972)" stroke-width="2.988" stroke-linecap="round" stroke-linejoin="round"/>
<path d="M279.701 627.241C279.897 626.177 280.409 625.197 281.169 624.428C281.93 623.659 282.905 623.138 283.967 622.931C285.028 622.724 286.128 622.841 287.122 623.268C288.116 623.695 288.958 624.411 289.539 625.323C291.301 628.089 290.312 631.987 292.124 634.723C294.084 637.681 299.224 637.565 301.053 634.523" stroke="url(#paint30_linear_164_3972)" stroke-width="2.988" stroke-linecap="round" stroke-linejoin="round"/>
<path d="M718.762 568.705C722.644 569.669 726.692 569.754 730.61 568.953C734.529 568.152 738.219 566.486 741.412 564.077C744.604 561.667 747.218 558.575 749.063 555.026C750.908 551.478 751.937 547.562 752.075 543.564" stroke="#171717" stroke-width="2.988" stroke-linecap="round" stroke-linejoin="round"/>
<path d="M744.709 578.647C749.392 576.379 753.074 572.462 755.048 567.647" stroke="#171717" stroke-width="2.988" stroke-linecap="round" stroke-linejoin="round"/>
<path d="M566.438 760.831L562.148 744.816" stroke="#171717" stroke-width="2.988" stroke-linecap="round" stroke-linejoin="round"/>
<path d="M572.87 750.748L554.9 754.754" stroke="#171717" stroke-width="2.988" stroke-linecap="round" stroke-linejoin="round"/>
<path d="M441.1 803.474L445.294 785.674" stroke="#171717" stroke-width="3.296" stroke-linecap="round" stroke-linejoin="round"/>
<path d="M452.614 797.035L433.055 791.541" stroke="#171717" stroke-width="3.296" stroke-linecap="round" stroke-linejoin="round"/>
<g opacity="0.1">
<path d="M355.2 344.549C348.062 347.497 342.3 352.212 336.377 357.112C330.616 361.769 325.336 366.991 320.617 372.7C311.35 384.163 304.206 398.708 304.549 413.789C305.296 446.644 332.405 470.676 361.239 481.262C379.331 487.904 398.7 490.139 417.715 492.478C422.573 493.078 426.762 487.893 426.762 483.432C426.762 478.032 422.585 475 417.715 474.385C391.361 471.056 361.651 467.463 341.064 448.954C331.994 440.8 324.711 430.22 322.602 418.019C320.538 406.08 324.302 395.233 331.132 385.528C335.253 379.959 339.921 374.815 345.065 370.174C350.443 365.1 356.719 360.828 361.26 354.965C362.988 352.735 363.76 350.02 362.235 347.411C360.963 345.233 357.702 343.511 355.195 344.545L355.2 344.549Z" fill="#171717"/>
</g>
<g opacity="0.1">
<path d="M413.9 254.8C408.826 262.709 418.456 271.9 424.419 276.05C431.789 281.177 441.326 284.094 450.09 285.634C469.33 289.055 489.161 286.139 506.601 277.323C516.413 272.397 507.783 257.658 497.989 262.591C484.593 269.33 469.408 271.658 454.609 269.242C447.681 268.199 440.99 265.951 434.838 262.598C429.327 259.447 425.176 252.771 418.717 252.037C416.769 251.816 414.88 253.273 413.9 254.8Z" fill="#171717"/>
</g>
<g opacity="0.1">
<path d="M566.949 260.868C579.565 262.105 593.549 256.597 604.049 249.752C613.886 243.34 621.476 234.552 625.365 223.411C628.936 213.184 612.765 208.832 609.183 218.95C606.415 226.768 600.025 232.656 592.978 236.702C583.654 242.055 572.838 243.449 563.804 249.24C558.325 252.753 560.904 260.275 566.954 260.868H566.949Z" fill="#171717"/>
</g>
<g opacity="0.1">
<path d="M733.354 372.318C732.987 363.518 730.659 354.699 728.768 346.131C726.981 338.037 726.036 327.731 721.712 320.596C717.583 313.788 707.19 316.76 706.949 324.596C706.816 328.915 708.355 333.111 709.402 337.268C710.439 341.38 711.436 345.501 712.393 349.632C714.293 357.821 715.45 366.416 718.183 374.372C720.883 382.218 733.736 381.472 733.354 372.319V372.318Z" fill="#171717"/>
</g>
</g>
</g>
<defs>
<linearGradient id="paint0_linear_164_3972" x1="533.665" y1="237.445" x2="533.665" y2="279.783" gradientUnits="userSpaceOnUse">
<stop stop-color="#FFB800"/>
<stop offset="1" stop-color="#FF7F0A"/>
</linearGradient>
<linearGradient id="paint1_linear_164_3972" x1="611.724" y1="187.746" x2="611.724" y2="254.325" gradientUnits="userSpaceOnUse">
<stop stop-color="#FFB800"/>
<stop offset="1" stop-color="#FF7F0A"/>
</linearGradient>
<linearGradient id="paint2_linear_164_3972" x1="737.078" y1="314.624" x2="737.078" y2="430.401" gradientUnits="userSpaceOnUse">
<stop stop-color="#FFB800"/>
<stop offset="1" stop-color="#FF7F0A"/>
</linearGradient>
<linearGradient id="paint3_linear_164_3972" x1="763.53" y1="808.3" x2="763.53" y2="892.39" gradientUnits="userSpaceOnUse">
<stop stop-color="#FFB800"/>
<stop offset="1" stop-color="#FF7F0A"/>
</linearGradient>
<linearGradient id="paint4_linear_164_3972" x1="617.145" y1="197.991" x2="617.145" y2="268.462" gradientUnits="userSpaceOnUse">
<stop stop-color="#FFB800"/>
<stop offset="1" stop-color="#FF7F0A"/>
</linearGradient>
<linearGradient id="paint5_linear_164_3972" x1="577.973" y1="331.48" x2="577.973" y2="576.348" gradientUnits="userSpaceOnUse">
<stop stop-color="#FFB800"/>
<stop offset="1" stop-color="#FF7F0A"/>
</linearGradient>
<linearGradient id="paint6_linear_164_3972" x1="570.906" y1="283.867" x2="570.906" y2="337.98" gradientUnits="userSpaceOnUse">
<stop stop-color="#FFB800"/>
<stop offset="1" stop-color="#FF7F0A"/>
</linearGradient>
<linearGradient id="paint7_linear_164_3972" x1="552.853" y1="268.329" x2="552.853" y2="291.187" gradientUnits="userSpaceOnUse">
<stop stop-color="#FFB800"/>
<stop offset="1" stop-color="#FF7F0A"/>
</linearGradient>
<linearGradient id="paint8_linear_164_3972" x1="459.79" y1="249.444" x2="459.79" y2="285.988" gradientUnits="userSpaceOnUse">
<stop stop-color="#FFB800"/>
<stop offset="1" stop-color="#FF7F0A"/>
</linearGradient>
<linearGradient id="paint9_linear_164_3972" x1="442.513" y1="228.632" x2="442.513" y2="282.353" gradientUnits="userSpaceOnUse">
<stop stop-color="#FFB800"/>
<stop offset="1" stop-color="#FF7F0A"/>
</linearGradient>
<linearGradient id="paint10_linear_164_3972" x1="426.311" y1="282.843" x2="426.311" y2="301.219" gradientUnits="userSpaceOnUse">
<stop stop-color="#FFB800"/>
<stop offset="1" stop-color="#FF7F0A"/>
</linearGradient>
<linearGradient id="paint11_linear_164_3972" x1="423.469" y1="480.471" x2="423.469" y2="571.02" gradientUnits="userSpaceOnUse">
<stop stop-color="#FFB800"/>
<stop offset="1" stop-color="#FF7F0A"/>
</linearGradient>
<linearGradient id="paint12_linear_164_3972" x1="368.562" y1="342.079" x2="368.562" y2="493.699" gradientUnits="userSpaceOnUse">
<stop stop-color="#FFB800"/>
<stop offset="1" stop-color="#FF7F0A"/>
</linearGradient>
<linearGradient id="paint13_linear_164_3972" x1="403.367" y1="344.763" x2="403.367" y2="436.775" gradientUnits="userSpaceOnUse">
<stop stop-color="#FFB800"/>
<stop offset="1" stop-color="#FF7F0A"/>
</linearGradient>
<linearGradient id="paint14_linear_164_3972" x1="381.748" y1="294.952" x2="381.748" y2="347.472" gradientUnits="userSpaceOnUse">
<stop stop-color="#FFB800"/>
<stop offset="1" stop-color="#FF7F0A"/>
</linearGradient>
<linearGradient id="paint15_linear_164_3972" x1="222.336" y1="572.454" x2="222.336" y2="710.33" gradientUnits="userSpaceOnUse">
<stop stop-color="#FFB800"/>
<stop offset="1" stop-color="#FF7F0A"/>
</linearGradient>
<linearGradient id="paint16_linear_164_3972" x1="847.93" y1="243.26" x2="847.93" y2="507.895" gradientUnits="userSpaceOnUse">
<stop stop-color="#FFB800"/>
<stop offset="1" stop-color="#FF7F0A"/>
</linearGradient>
<linearGradient id="paint17_linear_164_3972" x1="649.385" y1="140.557" x2="649.385" y2="156.407" gradientUnits="userSpaceOnUse">
<stop stop-color="#FFB800"/>
<stop offset="1" stop-color="#FF7F0A"/>
</linearGradient>
<linearGradient id="paint18_linear_164_3972" x1="649.425" y1="142.206" x2="649.425" y2="152.44" gradientUnits="userSpaceOnUse">
<stop stop-color="#FFB800"/>
<stop offset="1" stop-color="#FF7F0A"/>
</linearGradient>
<linearGradient id="paint19_linear_164_3972" x1="132.714" y1="528.078" x2="132.714" y2="534.447" gradientUnits="userSpaceOnUse">
<stop stop-color="#FFB800"/>
<stop offset="1" stop-color="#FF7F0A"/>
</linearGradient>
<linearGradient id="paint20_linear_164_3972" x1="130.955" y1="525.976" x2="130.955" y2="537.929" gradientUnits="userSpaceOnUse">
<stop stop-color="#FFB800"/>
<stop offset="1" stop-color="#FF7F0A"/>
</linearGradient>
<linearGradient id="paint21_linear_164_3972" x1="102.834" y1="636.359" x2="102.834" y2="640.577" gradientUnits="userSpaceOnUse">
<stop stop-color="#FFB800"/>
<stop offset="1" stop-color="#FF7F0A"/>
</linearGradient>
<linearGradient id="paint22_linear_164_3972" x1="102.178" y1="630.759" x2="102.178" y2="645.511" gradientUnits="userSpaceOnUse">
<stop stop-color="#FFB800"/>
<stop offset="1" stop-color="#FF7F0A"/>
</linearGradient>
<linearGradient id="paint23_linear_164_3972" x1="707.011" y1="756.25" x2="707.011" y2="776.868" gradientUnits="userSpaceOnUse">
<stop stop-color="#FFB800"/>
<stop offset="1" stop-color="#FF7F0A"/>
</linearGradient>
<linearGradient id="paint24_linear_164_3972" x1="643.185" y1="734.438" x2="643.185" y2="754.304" gradientUnits="userSpaceOnUse">
<stop stop-color="#FFB800"/>
<stop offset="1" stop-color="#FF7F0A"/>
</linearGradient>
<linearGradient id="paint25_linear_164_3972" x1="654.499" y1="661.342" x2="654.499" y2="685.386" gradientUnits="userSpaceOnUse">
<stop stop-color="#FFB800"/>
<stop offset="1" stop-color="#FF7F0A"/>
</linearGradient>
<linearGradient id="paint26_linear_164_3972" x1="597.802" y1="633.621" x2="597.802" y2="664.162" gradientUnits="userSpaceOnUse">
<stop stop-color="#FFB800"/>
<stop offset="1" stop-color="#FF7F0A"/>
</linearGradient>
<linearGradient id="paint27_linear_164_3972" x1="480.66" y1="630.963" x2="480.66" y2="653.762" gradientUnits="userSpaceOnUse">
<stop stop-color="#FFB800"/>
<stop offset="1" stop-color="#FF7F0A"/>
</linearGradient>
<linearGradient id="paint28_linear_164_3972" x1="409.312" y1="647.05" x2="409.312" y2="658.911" gradientUnits="userSpaceOnUse">
<stop stop-color="#FFB800"/>
<stop offset="1" stop-color="#FF7F0A"/>
</linearGradient>
<linearGradient id="paint29_linear_164_3972" x1="339.216" y1="687.08" x2="339.216" y2="694.936" gradientUnits="userSpaceOnUse">
<stop stop-color="#FFB800"/>
<stop offset="1" stop-color="#FF7F0A"/>
</linearGradient>
<linearGradient id="paint30_linear_164_3972" x1="290.377" y1="622.831" x2="290.377" y2="636.875" gradientUnits="userSpaceOnUse">
<stop stop-color="#FFB800"/>
<stop offset="1" stop-color="#FF7F0A"/>
</linearGradient>
<clipPath id="clip0_164_3972">
<rect width="960" height="960" fill="white"/>
</clipPath>
<clipPath id="clip1_164_3972">
<rect width="884" height="827" fill="white" transform="translate(38 67)"/>
</clipPath>
</defs>
</svg>
