<svg width="360" height="360" viewBox="0 0 960 960" fill="none" xmlns="http://www.w3.org/2000/svg">
<path d="M918.103 646.676L321.685 805.179L316.399 737.251L316.348 736.866L918.103 646.676Z" fill="#171717"/>
<path d="M916.7 646.446L701.342 637.146C701.406 628.806 701.483 620.209 701.624 611.433L916.7 646.446Z" fill="#171717"/>
<path d="M576.639 530.3C579.873 515.929 582.978 501.1 584.039 487.919C570.168 495.053 556.927 503.984 548.139 516.674C547.387 518.081 546.723 519.534 546.151 521.023C538.426 541.066 550.68 560.582 567.861 572.656L568.207 572.156C569.608 560.463 573.2 545.643 576.639 530.3ZM702.551 574.837C702.089 587.237 701.807 599.499 701.628 611.437C701.486 620.213 701.409 628.81 701.345 637.15L639.063 634.456C635.316 630.709 626.27 625.423 611.168 619.379L611.207 619.289C666.458 632.878 650.407 611.835 609.988 609.948C617.828 607.513 624.681 602.63 629.542 596.014C619.97 590.471 608.628 596.914 599.928 601.48L599.889 601.467C596.412 612.72 591.575 624.948 583.979 634.379C580.377 638.974 575.909 642.819 570.827 645.696C563.013 648.724 554.227 645.773 546.627 642.219C538.721 638.644 531.183 634.303 524.121 629.259C497.189 610.025 477.221 580.552 475.992 546.935C475.392 506.08 497.445 462.826 533.706 443.169C536.606 441.745 539.544 440.449 542.534 439.256C567.247 429.337 594.616 426.668 620.586 421.42L620.74 421.343C621.484 422.77 622.642 423.939 624.061 424.697C625.481 425.455 627.096 425.766 628.695 425.59C649.195 427.643 670.14 429.35 690.657 427.066C691.89 426.613 692.929 425.747 693.595 424.615C742.803 438.537 798.156 407.871 812.373 358.689C823.126 331.808 810.538 297.33 827.719 281.06C833.044 276.018 841.205 272.733 853.792 271.95C859.332 270.811 865.035 270.703 870.614 271.629C882.814 273.747 893.235 281.291 893.453 295.701C908.594 400.891 810.359 488.053 709.621 490.632C705.631 517.9 703.616 546.708 702.551 574.834V574.837Z" fill="#171717"/>
<path d="M705.786 293.755L705.863 293.819C722.98 278.371 740.327 280.898 716.692 300.594C738.992 284.119 753.892 317.967 702.283 316.145C698.6 316.017 694.583 315.709 690.209 315.183C676.98 315.055 663.058 310.923 650.086 313.772C641.694 317.262 640.206 328.322 639.986 337.407C639.886 341.936 639.729 346.568 639.575 351.277L639.319 351.264C628.119 362.633 622.15 341.782 626 330.978L625.756 330.914C605.021 338.959 609.063 319.969 622.394 313.938C615.294 311.244 606.958 303.224 619.071 300.158C627.001 301.107 634.545 301.736 641.859 297.463C652.942 293.065 665.056 291.943 676.759 294.23C680.942 295.051 685.369 296.283 689.333 294.73C697.225 291.125 700.933 282.13 707.669 277.254C718.309 275.856 711.47 286.544 705.786 293.755Z" fill="#171717"/>
<path d="M718.258 116.506C719.837 119.675 720.518 123.217 720.226 126.745C719.934 130.274 718.681 133.655 716.603 136.522C712.881 141.488 706.889 144.362 700.795 145.542C694.701 146.722 688.438 146.389 682.241 146.056C674.311 145.619 666.394 145.196 658.477 144.721C644.53 143.887 630.621 142.463 616.686 141.565C607.586 140.975 596.965 140.089 594.501 129.119C593.475 124.551 594.642 119.752 596.501 115.466C600.932 105.393 609.035 97.3863 619.161 93.0762C624.473 90.8432 630.67 89.7272 635.961 92.0372C639.837 93.9191 642.952 97.0703 644.789 100.967C646.588 104.848 647.878 108.945 648.625 113.157C648.753 106.664 650.293 100.043 654.078 94.7702C657.863 89.4972 664.112 85.7752 670.592 86.0832C677.418 86.4042 683.641 91.2922 686.169 97.6312C687.24 100.511 687.708 103.579 687.545 106.647C687.382 109.715 686.59 112.717 685.22 115.466C684.842 116.057 684.507 116.674 684.22 117.314C684.579 116.714 684.912 116.098 685.22 115.466C686.95 112.573 689.423 110.194 692.381 108.577C695.339 106.96 698.676 106.163 702.046 106.269C705.416 106.376 708.696 107.381 711.547 109.18C714.398 110.98 716.715 113.509 718.26 116.506H718.258Z" fill="url(#paint0_linear_36_3406)"/>
<path d="M673.195 404.347C674.35 404.411 675.504 404.462 676.659 404.514C682.228 405.437 692.134 403.846 694.648 409.89C694.982 413.983 696.009 420.758 693.596 424.607C692.929 425.739 691.891 426.605 690.658 427.058C670.141 429.342 649.201 427.635 628.696 425.582C627.096 425.758 625.481 425.447 624.061 424.689C622.642 423.931 621.484 422.762 620.741 421.335C618.021 416.421 618.996 408.517 622.512 404.501C625.078 402.242 628.863 402.281 632.276 402.448C634.098 402.538 635.92 402.615 637.742 402.704C649.56 403.244 661.377 403.791 673.195 404.347Z" fill="url(#paint1_linear_36_3406)"/>
<path d="M501.257 261.485C507.916 261.453 514.44 263.365 520.029 266.985C530.281 273.863 535.157 286.272 538.647 298.115C552.11 344.032 553.45 392.655 542.535 439.244C539.545 440.437 536.607 441.734 533.707 443.158C497.446 462.815 475.39 506.068 475.993 546.923C477.225 580.54 497.193 610.013 524.122 629.247L523.968 629.466L385.868 621.497C384.662 610.103 383.46 598.718 382.262 587.341C382.018 585.018 381.775 582.683 381.531 580.36C370.887 581.336 360.17 581.194 349.556 579.938C343.507 579.239 337.502 578.211 331.566 576.858C322.102 574.688 312.816 571.805 303.787 568.235C290.931 563.138 278.54 556.937 266.755 549.701C252.923 541.284 239.463 531.263 231.264 517.315C239.874 510.925 248.099 503.957 257.594 499.014C272.247 491.459 289.049 489.158 305.194 492.496C322.131 496.05 337.773 505.737 355.069 506.225C359.373 506.355 363.666 505.717 367.746 504.339C367.346 506.674 368.606 508.932 369.863 510.947C372.482 515.449 375.683 519.587 379.384 523.253C383.787 527.112 388.794 530.225 394.204 532.466C399.389 534.926 404.925 536.562 410.615 537.315C416.338 538.046 422.146 536.974 427.231 534.248C433.352 530.733 437.496 524.356 439.395 517.555C441.294 510.754 441.115 503.543 440.14 496.55C439.158 489.608 437.397 482.799 434.892 476.25L434.792 475.968C436.758 475.219 438.652 474.292 440.45 473.197C445.805 469.848 450.002 464.935 452.473 459.121L453.038 459.365C459.004 457.35 463.2 452.012 466.344 446.559C479.136 424.359 479.944 397.39 478.816 371.805C478.379 361.899 477.686 351.929 475.116 342.345C470.292 324.291 458.872 307.803 458.359 289.121C458.144 285.786 458.666 282.444 459.886 279.331C460.447 278.049 461.18 276.848 462.067 275.764C465.339 271.619 470.497 268.926 475.527 266.886C483.589 263.601 492.622 261.305 501.257 261.485Z" fill="url(#paint2_linear_36_3406)"/>
<path d="M440.143 496.551C441.118 503.544 441.284 510.768 439.398 517.556C437.512 524.344 433.355 530.734 427.234 534.249C422.149 536.974 416.341 538.047 410.618 537.316C404.929 536.562 399.392 534.926 394.207 532.466C388.797 530.225 383.79 527.113 379.387 523.253C375.687 519.587 372.485 515.45 369.866 510.948C368.609 508.934 367.351 506.675 367.749 504.34C370.685 503.358 373.427 501.869 375.849 499.94C379.714 507.324 385.38 513.613 392.324 518.224C396.752 521.336 401.893 523.282 407.272 523.883C412.635 524.306 418.307 522.741 422.143 518.969C425.685 515.478 427.353 510.487 428.097 505.569C429.444 496.677 428.084 487.592 426.224 478.79L426.172 478.546C427.443 478.264 428.713 477.946 429.972 477.584C431.607 477.128 433.217 476.588 434.797 475.967L434.897 476.25C437.402 482.798 439.162 489.608 440.143 496.551V496.551Z" fill="url(#paint3_linear_36_3406)"/>
<path d="M418.175 479.845C415.72 480.1 413.252 480.22 410.784 480.205V480.128C408.064 476.342 407.704 471.287 408.551 466.693C409.398 462.099 411.361 457.814 412.951 453.426C417.429 441.07 419.051 427.404 415.684 414.689C412.579 402.961 404.893 392.209 394.192 386.64L394.167 386.678C392.383 394.89 384.62 400.472 376.755 403.423C371.588 405.485 366.021 406.349 360.472 405.951L360.433 406.351C360.604 409.972 359.995 413.587 358.646 416.951C357.298 420.316 355.243 423.351 352.619 425.851C361.614 437.377 369.567 449.679 376.383 462.612C381.399 472.12 385.813 483.591 381.156 493.278C381.04 493.509 380.925 493.74 380.809 493.959C379.569 496.263 377.881 498.296 375.844 499.938C373.422 501.868 370.681 503.357 367.744 504.338C363.664 505.716 359.371 506.354 355.067 506.224C337.767 505.736 322.129 496.049 305.192 492.495C289.047 489.157 272.245 491.458 257.592 499.013C248.097 503.953 239.872 510.92 231.262 517.313C228.529 519.34 225.762 521.304 222.883 523.126C205.089 534.392 184.24 539.866 163.206 538.793C151.375 538.164 139.519 535.393 129.216 529.554C118.913 523.715 105.209 504.636 100.916 493.588C105.344 498.738 110.848 502.854 117.038 505.647C123.229 508.441 129.957 509.843 136.748 509.756C143.539 509.67 150.228 508.095 156.345 505.145C162.463 502.194 167.859 497.938 172.154 492.677C178.287 485.171 181.919 475.946 187.474 468.003C190.486 463.714 194.044 459.836 198.06 456.468C205.429 450.249 214.159 445.853 223.543 443.637C236.566 440.609 250.143 441.943 263.512 441.609C276.881 441.275 291.048 438.889 301.004 429.972C311.192 420.849 314.99 406.811 319.804 394.006C325.424 379.045 333.662 364.122 347.353 355.859C361.044 347.596 381.227 348.532 390.683 361.44L390.85 362.005C394.777 359.862 398.459 356.821 402.55 354.948C411.417 350.906 422.323 352.702 430.291 358.322C438.259 363.942 443.43 372.937 445.74 382.406C448.896 395.327 446.74 409.685 439.209 420.553L439.555 420.784C444.122 423.438 447.936 427.214 450.635 431.755C453.334 436.295 454.829 441.45 454.978 446.729C455.032 450.992 454.18 455.217 452.478 459.124C450.006 464.939 445.807 469.852 440.449 473.2C438.651 474.295 436.758 475.222 434.791 475.971C433.212 476.593 431.601 477.133 429.966 477.588C428.709 477.947 427.439 478.268 426.166 478.55C423.531 479.144 420.862 479.576 418.175 479.845Z" fill="#171717"/>
<path d="M382.261 587.346C383.453 598.727 384.655 610.112 385.867 621.502L308.931 617.075L290.891 577.389L349.144 583.74L382.261 587.346Z" fill="#171717"/>
<path d="M223.54 443.636C214.156 445.852 205.425 450.248 198.057 456.467L197.813 456.172C197.721 456.202 197.621 456.202 197.529 456.172C197.437 456.142 197.357 456.084 197.3 456.005C194.736 451.652 192.894 446.911 191.847 441.968C190.812 438.321 190.44 434.519 190.747 430.74C191.409 426.67 192.917 422.785 195.174 419.334C196.77 416.671 198.558 414.128 200.525 411.725C206.813 403.976 214.763 397.74 223.788 393.479C225.456 392.677 227.18 391.995 228.946 391.439V391.426C230.268 391.006 231.625 390.701 233 390.515C235.101 390.094 237.283 390.445 239.147 391.503C241.636 393.171 242.38 396.443 242.932 399.394C244.459 407.439 246.114 415.523 249.322 423.055C252.53 430.587 256.648 437.13 263.513 441.608C250.139 441.942 236.563 440.608 223.54 443.636Z" fill="url(#paint4_linear_36_3406)"/>
<path d="M716.577 300.7C715.326 301.628 714.138 302.64 713.023 303.728" stroke="#171717" stroke-width="3.849" stroke-linecap="round" stroke-linejoin="round"/>
<path d="M637.781 401.832C638.181 385.69 639 368.06 639.581 351.277C639.735 346.568 639.889 341.936 639.992 337.407C640.21 328.322 641.698 317.262 650.092 313.772C663.064 310.923 676.986 315.055 690.215 315.183C694.59 315.709 698.606 316.017 702.289 316.145C753.896 317.967 738.999 284.119 716.698 300.594" stroke="#171717" stroke-width="3.849" stroke-linecap="round" stroke-linejoin="round"/>
<path d="M639.32 351.265C628.12 362.634 622.152 341.783 626.002 330.979C626.608 328.926 627.904 327.145 629.671 325.937" stroke="#171717" stroke-width="3.849" stroke-linecap="round" stroke-linejoin="round"/>
<path d="M625.758 330.914C605.023 338.959 609.065 319.969 622.396 313.938C624.216 313.114 626.149 312.57 628.132 312.322" stroke="#171717" stroke-width="3.849" stroke-linecap="round" stroke-linejoin="round"/>
<path d="M622.653 314.042C622.566 314.014 622.48 313.981 622.396 313.942C615.296 311.247 606.96 303.228 619.073 300.161C627.002 301.11 634.547 301.739 641.861 297.466C652.945 293.067 665.058 291.945 676.761 294.233C680.944 295.054 685.37 296.286 689.335 294.733C697.226 291.128 700.935 282.133 707.671 277.257C718.308 275.857 711.471 286.547 705.785 293.757C703.834 296.246 702 298.325 701.085 299.339" stroke="#171717" stroke-width="3.849" stroke-linecap="round" stroke-linejoin="round"/>
<path d="M716.577 300.7C716.615 300.661 716.654 300.636 716.692 300.6C740.327 280.9 722.98 278.377 705.863 293.825" stroke="#171717" stroke-width="3.849" stroke-linecap="round" stroke-linejoin="round"/>
<path d="M673.233 404.809L673.195 404.347C672.065 390.747 676.402 385.19 689.503 382.123C699.845 369.587 699.803 333.48 702.283 316.145L702.321 315.838" stroke="#171717" stroke-width="3.849" stroke-linecap="round" stroke-linejoin="round"/>
<path d="M690.773 324.242C654.846 314.952 675.574 335.213 676.545 358.668C676.622 361.401 671.732 360.246 669.833 361.157" stroke="#171717" stroke-width="3.849" stroke-linecap="round" stroke-linejoin="round"/>
<path d="M662.417 332.365C659.234 329.735 654.551 331.236 651.908 333.956" stroke="#171717" stroke-width="3.849" stroke-linecap="round" stroke-linejoin="round"/>
<path d="M689.016 335.085C688.617 334.323 688.061 333.654 687.384 333.124C686.707 332.594 685.924 332.214 685.089 332.01C684.253 331.807 683.384 331.783 682.539 331.942C681.694 332.1 680.892 332.437 680.188 332.93" stroke="#171717" stroke-width="3.849" stroke-linecap="round" stroke-linejoin="round"/>
<path d="M663.275 376.041C657.681 379.041 653.139 372.692 651.381 368.047" stroke="#171717" stroke-width="3.849" stroke-linecap="round" stroke-linejoin="round"/>
<path d="M693.601 424.607C696.014 420.758 694.987 413.983 694.653 409.89C692.139 403.846 682.234 405.437 676.665 404.514C675.51 404.462 674.355 404.414 673.2 404.347C661.382 403.795 649.565 403.248 637.747 402.704C635.925 402.615 634.104 402.538 632.282 402.448C628.869 402.281 625.082 402.242 622.518 404.501C619.002 408.517 618.027 416.421 620.747 421.335C621.49 422.762 622.648 423.931 624.067 424.689C625.487 425.447 627.102 425.758 628.702 425.582C649.202 427.635 670.146 429.342 690.663 427.058C691.897 426.605 692.935 425.739 693.601 424.607V424.607Z" stroke="#171717" stroke-width="3.849" stroke-linecap="round" stroke-linejoin="round"/>
<path d="M693.102 424.466C693.269 424.517 693.435 424.556 693.602 424.607C742.81 438.529 798.163 407.863 812.38 358.681C823.133 331.799 810.545 297.322 827.726 281.052C833.051 276.01 841.212 272.725 853.799 271.942C859.339 270.804 865.041 270.695 870.621 271.621C882.821 273.738 893.242 281.283 893.46 295.693C908.601 400.882 810.366 488.044 709.628 490.623C708.528 490.649 707.421 490.662 706.318 490.675" stroke="#171717" stroke-width="3.849" stroke-linecap="round" stroke-linejoin="round"/>
<path d="M827.565 280.885C820.932 273.905 812.04 267.336 808.447 258.303C808.793 252.387 817.365 255.12 820.867 256.703C826.141 258.563 830.324 263.195 834.622 265.992C834.738 266.069 834.866 266.146 834.982 266.223" stroke="#171717" stroke-width="3.849" stroke-linecap="round" stroke-linejoin="round"/>
<path d="M870.614 271.6C872.077 256.369 874.386 239.945 868.548 225.485C856.384 212.499 859.797 252.943 858.527 258.692" stroke="#171717" stroke-width="3.849" stroke-linecap="round" stroke-linejoin="round"/>
<path d="M834.662 266.476C834.649 266.322 834.649 266.155 834.623 265.988C833.931 255.274 824.461 227.521 830.53 220.733C843.99 226.433 843.182 246.139 845.43 258.662V258.688" stroke="#171717" stroke-width="3.849" stroke-linecap="round" stroke-linejoin="round"/>
<path d="M858.424 258.688C857.205 249.167 857.051 219.809 844.644 219.668C840.781 231.883 844.544 245.856 845.439 258.662C845.478 259.239 845.516 259.817 845.539 260.381" stroke="#171717" stroke-width="3.849" stroke-linecap="round" stroke-linejoin="round"/>
<path d="M620.587 421.412C594.617 426.66 567.248 429.329 542.535 439.248C539.545 440.441 536.607 441.737 533.707 443.161C497.446 462.818 475.39 506.072 475.993 546.927C477.224 580.544 497.193 610.017 524.122 629.251C531.183 634.295 538.721 638.636 546.628 642.211C554.228 645.765 563.014 648.711 570.828 645.688C575.909 642.811 580.377 638.966 583.98 634.371C591.58 624.94 596.412 612.712 599.889 601.459C600.095 600.804 600.301 600.15 600.49 599.496C603.878 590.835 597.064 585.048 588.99 582.931C581.427 580.693 574.286 577.22 567.857 572.653C550.676 560.579 538.422 541.063 546.146 521.02C546.718 519.531 547.382 518.078 548.134 516.671C556.924 503.981 570.166 495.05 584.035 487.916C589.065 485.324 594.184 482.963 599.201 480.756" stroke="#171717" stroke-width="3.849" stroke-linecap="round" stroke-linejoin="round"/>
<path d="M584.069 487.558C584.056 487.673 584.056 487.802 584.043 487.917C582.978 501.095 579.873 515.927 576.643 530.298C573.204 545.644 569.612 560.464 568.213 572.154" stroke="#171717" stroke-width="3.849" stroke-linecap="round" stroke-linejoin="round"/>
<path d="M709.687 490.2C709.661 490.341 709.648 490.482 709.622 490.623C705.632 517.902 703.622 546.708 702.552 574.834C702.09 587.234 701.808 599.496 701.629 611.434C701.487 620.21 701.41 628.807 701.346 637.147V637.455" stroke="#171717" stroke-width="3.849" stroke-linecap="round" stroke-linejoin="round"/>
<path d="M599.93 601.473C608.63 596.905 619.972 590.464 629.544 596.007C624.683 602.622 617.83 607.505 609.99 609.941C609.374 610.134 608.745 610.313 608.116 610.467C608.517 610.344 608.895 610.153 609.232 609.903C609.4 609.801 609.555 609.681 609.694 609.543" stroke="#171717" stroke-width="3.849" stroke-linecap="round" stroke-linejoin="round"/>
<path d="M606.151 632.755C605.83 632.614 605.574 632.499 605.381 632.434" stroke="#171717" stroke-width="3.849" stroke-linecap="round" stroke-linejoin="round"/>
<path d="M583.891 634.294C583.917 634.32 583.955 634.345 583.981 634.371C597.181 645.406 613.031 657.48 631.187 654.849C642.209 652.476 612.556 635.705 606.204 632.78" stroke="#171717" stroke-width="3.849" stroke-linecap="round" stroke-linejoin="round"/>
<path d="M608.191 609.863L609.23 609.902L609.987 609.94C650.406 611.827 666.457 632.87 611.206 619.282" stroke="#171717" stroke-width="3.849" stroke-linecap="round" stroke-linejoin="round"/>
<path d="M604.855 632.267C605.291 632.433 605.716 632.6 606.156 632.754C606.169 632.767 606.181 632.767 606.206 632.78C633.549 643.109 646.356 641.71 639.068 634.448C635.321 630.701 626.274 625.415 611.172 619.371H611.159" stroke="#171717" stroke-width="3.849" stroke-linecap="round" stroke-linejoin="round"/>
<path d="M453.037 459.368C459.003 457.353 463.199 452.016 466.343 446.562C479.135 424.362 479.943 397.393 478.815 371.808C478.378 361.902 477.685 351.933 475.115 342.348C470.291 324.294 458.871 307.806 458.358 289.124C458.144 285.788 458.665 282.446 459.885 279.334C460.446 278.051 461.18 276.851 462.066 275.767C465.338 271.622 470.496 268.928 475.526 266.888C483.584 263.603 492.617 261.306 501.252 261.488C507.911 261.455 514.435 263.367 520.024 266.988C530.276 273.866 535.152 286.273 538.642 298.117C552.106 344.034 553.445 392.656 542.53 439.246C542.43 439.746 542.299 440.246 542.184 440.746" stroke="#171717" stroke-width="3.849" stroke-linecap="round" stroke-linejoin="round"/>
<path d="M410.785 480.128C408.065 476.342 407.705 471.287 408.552 466.693C409.399 462.099 411.362 457.814 412.952 453.426C417.43 441.07 419.052 427.404 415.685 414.689C412.58 402.961 404.894 392.209 394.193 386.64C393.293 386.165 392.384 385.74 391.447 385.34" stroke="#171717" stroke-width="3.849" stroke-linecap="round" stroke-linejoin="round"/>
<path d="M436.037 424.594C437.186 423.322 438.245 421.972 439.206 420.553C446.738 409.685 448.893 395.326 445.737 382.406C443.427 372.936 438.243 363.941 430.288 358.321C422.333 352.701 411.414 350.905 402.547 354.947C398.454 356.82 394.772 359.861 390.847 362.004C388.545 363.347 385.981 364.179 383.328 364.442" stroke="#171717" stroke-width="3.849" stroke-linecap="round" stroke-linejoin="round"/>
<path d="M410.4 480.205H410.785C413.254 480.22 415.721 480.1 418.176 479.845C420.865 479.574 423.534 479.14 426.169 478.545C427.44 478.263 428.71 477.945 429.969 477.583C431.604 477.128 433.215 476.588 434.794 475.966C436.761 475.217 438.655 474.29 440.452 473.195C445.808 469.846 450.005 464.933 452.475 459.119C454.177 455.211 455.03 450.986 454.975 446.724C454.826 441.444 453.331 436.29 450.632 431.75C447.933 427.209 444.119 423.433 439.552 420.779" stroke="#171717" stroke-width="3.849" stroke-linecap="round" stroke-linejoin="round"/>
<path d="M354.301 404.526C356.286 405.273 358.361 405.752 360.473 405.951C366.022 406.348 371.589 405.484 376.756 403.423C384.621 400.472 392.384 394.89 394.168 386.678" stroke="#171717" stroke-width="3.849" stroke-linecap="round" stroke-linejoin="round"/>
<path d="M347.963 429.33C349.654 428.369 351.219 427.201 352.62 425.853C355.244 423.352 357.299 420.317 358.647 416.952C359.995 413.588 360.605 409.973 360.434 406.353" stroke="#171717" stroke-width="3.849" stroke-linecap="round" stroke-linejoin="round"/>
<path d="M100.912 493.587C105.341 498.737 110.844 502.853 117.034 505.646C123.225 508.44 129.953 509.842 136.744 509.755C143.535 509.669 150.224 508.094 156.341 505.144C162.459 502.193 167.855 497.937 172.15 492.676C178.283 485.17 181.915 475.946 187.47 468.003C190.482 463.714 194.041 459.836 198.056 456.467C205.425 450.248 214.155 445.853 223.539 443.636C236.562 440.608 250.139 441.942 263.508 441.608C276.877 441.274 291.044 438.888 301 429.971C311.188 420.848 314.986 406.81 319.8 394.005C325.42 379.044 333.658 364.121 347.349 355.858C361.04 347.595 381.223 348.531 390.679 361.439" stroke="#171717" stroke-width="3.849" stroke-linecap="round" stroke-linejoin="round"/>
<path d="M352.506 425.7L352.621 425.854C361.616 437.379 369.569 449.682 376.385 462.615C381.401 472.123 385.815 483.594 381.158 493.281C381.042 493.512 380.927 493.743 380.811 493.962C379.571 496.266 377.883 498.299 375.846 499.941C373.424 501.87 370.683 503.36 367.746 504.341C363.666 505.719 359.373 506.358 355.069 506.227C337.769 505.74 322.131 496.052 305.194 492.498C289.049 489.16 272.247 491.461 257.594 499.016C248.099 503.956 239.874 510.923 231.264 517.316C228.531 519.344 225.764 521.307 222.885 523.129C205.091 534.395 184.242 539.869 163.208 538.796C151.377 538.167 139.521 535.396 129.218 529.557C118.915 523.718 105.211 504.639 100.918 493.591" stroke="#171717" stroke-width="3.849" stroke-linecap="round" stroke-linejoin="round"/>
<path d="M263.509 441.608C256.644 437.13 252.538 430.599 249.318 423.055C246.098 415.511 244.455 407.439 242.928 399.394C242.376 396.443 241.628 393.171 239.142 391.503C237.28 390.445 235.097 390.094 232.996 390.515C231.621 390.701 230.265 391.006 228.942 391.426V391.439C227.177 391.995 225.453 392.677 223.784 393.479C214.76 397.74 206.809 403.976 200.521 411.725C198.555 414.128 196.767 416.671 195.17 419.334C192.913 422.785 191.405 426.671 190.743 430.741C190.435 434.519 190.808 438.322 191.843 441.968C192.891 446.911 194.732 451.652 197.296 456.005C197.353 456.084 197.434 456.143 197.526 456.173C197.618 456.203 197.717 456.203 197.809 456.172C197.848 456.159 197.861 456.108 197.835 456.044" stroke="#171717" stroke-width="3.849" stroke-linecap="round" stroke-linejoin="round"/>
<path d="M231.213 517.235C231.225 517.264 231.243 517.29 231.264 517.312C239.464 531.26 252.923 541.281 266.755 549.698C278.54 556.937 290.93 563.14 303.786 568.239C312.815 571.809 322.101 574.691 331.565 576.862C337.501 578.215 343.507 579.243 349.555 579.941C360.169 581.198 370.886 581.34 381.53 580.365C388.268 579.745 394.951 578.62 401.521 577" stroke="#171717" stroke-width="3.849" stroke-linecap="round" stroke-linejoin="round"/>
<path d="M381 494.062C383.455 497.686 386.759 500.654 390.623 502.71C393.561 504.42 396.945 505.207 400.336 504.969C405.764 504.369 410.203 500.234 413.103 495.589C416.017 490.887 417.759 485.554 418.184 480.038" stroke="#171717" stroke-width="3.849" stroke-linecap="round" stroke-linejoin="round"/>
<path d="M375.742 499.746C375.78 499.811 375.806 499.875 375.842 499.939C379.707 507.323 385.374 513.613 392.317 518.223C396.745 521.335 401.886 523.281 407.265 523.882C412.628 524.305 418.3 522.74 422.136 518.967C425.678 515.477 427.346 510.486 428.09 505.572C429.437 496.68 428.077 487.595 426.217 478.793" stroke="#171717" stroke-width="3.849" stroke-linecap="round" stroke-linejoin="round"/>
<path d="M367.749 504.327V504.34C367.349 506.675 368.609 508.934 369.866 510.948C372.486 515.45 375.687 519.587 379.387 523.253C383.791 527.113 388.797 530.225 394.207 532.466C399.392 534.926 404.929 536.562 410.618 537.316C416.341 538.047 422.149 536.975 427.234 534.249C433.355 530.734 437.499 524.357 439.398 517.556C441.297 510.755 441.118 503.544 440.143 496.551C439.162 489.609 437.401 482.799 434.895 476.251" stroke="#171717" stroke-width="3.849" stroke-linecap="round" stroke-linejoin="round"/>
<path d="M385.956 622.4C385.93 622.105 385.891 621.8 385.866 621.5C384.66 610.106 383.458 598.721 382.26 587.344C382.016 585.021 381.773 582.686 381.529 580.364C381.519 580.336 381.514 580.305 381.516 580.274" stroke="#171717" stroke-width="3.849" stroke-linecap="round" stroke-linejoin="round"/>
<path d="M370.726 426.507C370.576 424.785 371.055 423.066 372.073 421.67C372.6 420.991 373.326 420.493 374.15 420.247C374.974 420.001 375.854 420.018 376.667 420.297C377.343 420.711 378.067 421.043 378.822 421.285" stroke="#171717" stroke-width="3.849" stroke-linecap="round" stroke-linejoin="round"/>
<path d="M394.617 415.5C394.586 414.908 394.619 414.314 394.717 413.729C394.813 413.14 395.093 412.597 395.517 412.177C395.93 411.834 396.425 411.604 396.954 411.51C398.291 411.238 399.681 411.486 400.842 412.202" stroke="#171717" stroke-width="3.849" stroke-linecap="round" stroke-linejoin="round"/>
<path d="M375.177 411.276C374.807 410.948 374.359 410.721 373.876 410.616C373.393 410.511 372.892 410.531 372.419 410.676C371.478 410.972 370.617 411.481 369.904 412.164C368.538 413.352 367.349 414.73 366.375 416.257" stroke="#171717" stroke-width="3.849" stroke-linecap="round" stroke-linejoin="round"/>
<path d="M398.724 400.279C397.397 399.768 395.945 399.679 394.566 400.023C393.668 400.407 392.878 401.007 392.266 401.768C390.881 403.286 389.711 404.987 388.789 406.823" stroke="#171717" stroke-width="3.849" stroke-linecap="round" stroke-linejoin="round"/>
<path d="M392.565 436.04C393.142 436.17 393.74 436.176 394.319 436.058C394.898 435.94 395.446 435.702 395.927 435.358C396.408 435.014 396.811 434.572 397.109 434.062C397.408 433.552 397.595 432.984 397.659 432.396C397.709 432.126 397.705 431.849 397.648 431.58C397.591 431.311 397.481 431.056 397.325 430.83C396.748 430.099 395.644 430.137 394.72 430.13C393.627 430.12 392.542 429.947 391.5 429.616" stroke="#171717" stroke-width="3.849" stroke-linecap="round" stroke-linejoin="round"/>
<path d="M394.579 452.746C393.879 453.499 393.043 454.113 392.115 454.555C390.488 455.395 388.621 455.649 386.829 455.274C385.94 455.086 385.104 454.7 384.385 454.144C383.665 453.589 383.08 452.879 382.672 452.066" stroke="#171717" stroke-width="3.849" stroke-linecap="round" stroke-linejoin="round"/>
<path d="M228.915 391.363C232.415 383.382 235.741 375.195 236.815 366.534C237.237 364.166 237.1 361.732 236.415 359.426C236.159 358.506 235.569 357.714 234.76 357.206C234.216 356.971 233.618 356.891 233.032 356.975C232.445 357.059 231.893 357.303 231.437 357.681C230.533 358.447 229.795 359.39 229.268 360.452C225.239 367.762 221.873 375.419 219.209 383.33C218.785 384.511 218.362 385.704 217.951 386.885" stroke="#171717" stroke-width="3.849" stroke-linecap="round" stroke-linejoin="round"/>
<path d="M200.173 411.455C199.798 411.448 199.43 411.356 199.095 411.187C198.759 411.019 198.466 410.777 198.236 410.481C191.537 404.144 185.501 397.141 180.221 389.58C178.548 387.379 177.307 384.88 176.564 382.216C176.201 380.88 176.166 379.476 176.463 378.124C176.761 376.772 177.381 375.513 178.27 374.453C178.916 373.717 179.795 373.227 180.76 373.067C182.479 372.849 184.032 374.066 185.302 375.248C189.029 378.819 192.49 382.658 195.657 386.733C196.812 388.183 197.966 389.658 199.108 391.121" stroke="#171717" stroke-width="3.849" stroke-linecap="round" stroke-linejoin="round"/>
<path d="M219.049 383.265C218.839 377.622 218.074 372.014 216.765 366.521C215.623 361.183 214.224 355.755 211.094 351.277C209.964 349.402 208.218 347.978 206.154 347.248C205.734 347.107 205.281 347.094 204.854 347.21C204.503 347.406 204.206 347.685 203.989 348.023C203.772 348.361 203.641 348.747 203.609 349.147C203.211 351.563 203.198 354.027 203.571 356.447C204.315 363.171 205.598 369.804 206.445 376.515C206.573 377.554 206.701 378.607 206.804 379.646" stroke="#171717" stroke-width="3.849" stroke-linecap="round" stroke-linejoin="round"/>
<path d="M206.038 376.568C203.502 370.195 200.031 364.236 195.738 358.887C193.146 355.666 190.079 352.548 186.127 351.368C185.664 351.196 185.165 351.144 184.677 351.214C183.51 351.471 182.984 352.831 182.855 354.014C182.509 357.132 183.548 360.224 184.716 363.137C187.936 371.144 192.316 378.611 196.135 386.349" stroke="#171717" stroke-width="3.849" stroke-linecap="round" stroke-linejoin="round"/>
<path d="M501.257 261.51V261.485C500.611 249.556 498.876 237.71 496.074 226.096C495.342 223.068 494.495 219.989 492.648 217.496C492.325 216.966 491.817 216.574 491.223 216.396C490.681 216.331 490.136 216.474 489.696 216.796C487.567 218.207 487.156 221.12 487.015 223.673C486.566 231.244 486.591 238.827 486.707 246.41C486.745 248.656 486.787 250.902 486.835 253.147" stroke="#171717" stroke-width="3.849" stroke-linecap="round" stroke-linejoin="round"/>
<path d="M462.02 275.714C454.265 274.654 446.741 272.308 439.758 268.773C440.356 267.554 441.192 266.468 442.216 265.577C443.241 264.687 444.434 264.011 445.724 263.589C448.306 262.759 451.005 262.347 453.718 262.37C456.797 262.255 459.89 262.255 462.969 262.383C465.253 262.46 467.524 262.601 469.795 262.819" stroke="#171717" stroke-width="3.849" stroke-linecap="round" stroke-linejoin="round"/>
<path d="M486.335 246.408C484.926 240.992 483.098 235.694 480.869 230.562C479.65 227.739 478.033 224.723 475.146 223.697C474.507 223.43 473.796 223.389 473.131 223.582C472.645 223.827 472.223 224.182 471.898 224.618C471.573 225.054 471.354 225.56 471.258 226.096C470.586 229.041 470.556 232.095 471.168 235.053C471.746 238.838 472.58 242.584 473.414 246.331C474.268 250.256 475.546 254.076 477.225 257.725C477.571 258.525 477.956 259.342 478.366 260.189" stroke="#171717" stroke-width="3.849" stroke-linecap="round" stroke-linejoin="round"/>
<path d="M477.558 258.277C477.443 258.097 477.327 257.905 477.224 257.725C471.983 249.221 465.52 241.534 458.042 234.911C456.913 233.73 455.478 232.886 453.897 232.474C453.399 232.358 452.876 232.408 452.409 232.615C451.203 233.243 451.28 234.988 451.575 236.31C453.665 245.583 457.539 254.36 462.982 262.152" stroke="#171717" stroke-width="3.849" stroke-linecap="round" stroke-linejoin="round"/>
<path d="M523.968 629.469L385.867 621.501L308.931 617.074L272.773 614.983" stroke="#171717" stroke-width="3.849" stroke-linecap="round" stroke-linejoin="round"/>
<path d="M49.9727 776.797L272.773 614.983" stroke="#171717" stroke-width="3.849" stroke-linecap="round" stroke-linejoin="round"/>
<path d="M49.9727 776.797L316.348 736.866L918.103 646.676" stroke="#171717" stroke-width="3.849" stroke-linecap="round" stroke-linejoin="round"/>
<path d="M702.09 574.681L702.552 574.835L917.525 646.484L918.103 646.677" stroke="#171717" stroke-width="3.849" stroke-linecap="round" stroke-linejoin="round"/>
<path d="M545.396 520.789L546.153 521.02L576.64 530.297H576.653" stroke="#171717" stroke-width="3.849" stroke-linecap="round" stroke-linejoin="round"/>
<path d="M303.568 568.791L290.891 577.388" stroke="#171717" stroke-width="3.849" stroke-linecap="round" stroke-linejoin="round"/>
<path d="M309.008 617.242L308.931 617.075L290.891 577.389" stroke="#171717" stroke-width="3.849" stroke-linecap="round" stroke-linejoin="round"/>
<path d="M382.364 587.359L382.261 587.346L349.144 583.74L290.891 577.389" stroke="#171717" stroke-width="3.849" stroke-linecap="round" stroke-linejoin="round"/>
<path d="M701.18 611.353L701.63 611.43L916.705 646.446L918.104 646.677" stroke="#171717" stroke-width="3.849" stroke-linecap="round" stroke-linejoin="round"/>
<path d="M316.398 737.251L321.684 805.179" stroke="#171717" stroke-width="3.849" stroke-linecap="round" stroke-linejoin="round"/>
<path d="M918.104 646.676L321.686 805.179" stroke="#171717" stroke-width="3.849" stroke-linecap="round" stroke-linejoin="round"/>
<path d="M918.705 646.535L917.524 646.483L916.703 646.445L701.345 637.142L639.063 634.448H638.986" stroke="#171717" stroke-width="3.849" stroke-linecap="round" stroke-linejoin="round"/>
<path d="M221.885 261.19C232.162 261.972 243.402 262.665 251.833 256.724C255.615 253.943 258.435 250.052 259.903 245.593C261.37 241.134 261.411 236.328 260.019 231.845C259.333 229.659 258.192 227.643 256.67 225.93C251.91 220.797 243.454 220.515 237.243 223.761C231.032 227.007 226.735 233.012 223.514 239.223C225.798 231.973 227.338 224.39 226.837 216.807C226.336 209.224 223.668 201.607 218.42 196.097C216.137 193.566 213.19 191.726 209.913 190.785C202.304 188.848 194.298 193.903 190.281 200.665C186.264 207.427 185.329 215.498 184.469 223.312C183.725 218.077 182.969 212.765 180.774 207.966C178.579 203.167 174.717 198.843 169.649 197.38C166.476 196.608 163.169 196.56 159.974 197.239C155.496 197.983 150.992 199.395 147.541 202.32C145.472 204.185 143.825 206.472 142.712 209.026C141.599 211.58 141.045 214.342 141.087 217.128C141.226 222.721 143.05 228.141 146.322 232.679C143.757 229.522 140.338 227.169 136.473 225.9C132.609 224.631 128.461 224.498 124.523 225.519C120.585 226.54 117.024 228.67 114.262 231.657C111.5 234.643 109.655 238.36 108.945 242.366C108.396 244.652 108.68 247.058 109.745 249.154C110.798 250.713 112.24 251.969 113.928 252.798C125.297 259.278 138.028 258.316 150.587 258.367C165.869 258.418 181.138 258.824 196.394 259.586C204.898 260.009 213.395 260.544 221.885 261.19Z" stroke="url(#paint5_linear_36_3406)" stroke-width="3.849" stroke-linecap="round" stroke-linejoin="round"/>
<path d="M685.217 115.466C684.838 116.056 684.504 116.674 684.217 117.314C684.575 116.711 684.909 116.095 685.217 115.466Z" stroke="#171717" stroke-width="3.849" stroke-linecap="round" stroke-linejoin="round"/>
<path d="M685.217 115.466C686.588 112.717 687.379 109.715 687.542 106.647C687.705 103.579 687.237 100.511 686.166 97.6312C683.638 91.2922 677.415 86.4042 670.589 86.0832C664.109 85.7752 657.848 89.4962 654.075 94.7702C650.302 100.044 648.75 106.664 648.622 113.157C647.875 108.945 646.586 104.848 644.786 100.967C642.949 97.0703 639.834 93.9191 635.958 92.0372C630.671 89.7272 624.474 90.8432 619.158 93.0762C609.033 97.3863 600.93 105.393 596.498 115.466C594.637 119.752 593.47 124.551 594.498 129.119C596.962 140.089 607.586 140.975 616.683 141.565C630.618 142.465 644.527 143.887 658.474 144.721C666.391 145.196 674.308 145.621 682.238 146.056C688.438 146.389 694.71 146.723 700.792 145.542C706.874 144.361 712.878 141.488 716.6 136.522C718.138 134.467 719.242 132.12 719.844 129.625C720.447 127.13 720.535 124.538 720.104 122.008C719.673 119.477 718.731 117.061 717.337 114.906C715.942 112.751 714.124 110.902 711.993 109.472C709.861 108.042 707.461 107.061 704.938 106.587C702.415 106.114 699.822 106.16 697.317 106.72C694.812 107.281 692.448 108.346 690.367 109.849C688.287 111.353 686.534 113.264 685.215 115.466H685.217Z" stroke="#171717" stroke-width="3.849" stroke-linecap="round" stroke-linejoin="round"/>
<path d="M831.145 872.722C832.131 872.763 833.103 872.484 833.917 871.927C834.393 871.446 834.753 870.862 834.969 870.22C838.164 862.74 841.369 854.9 840.91 846.778C840.451 838.656 835.2 830.187 827.18 828.84C822.33 828.031 817.287 829.956 813.566 833.164C809.845 836.372 807.279 840.734 805.342 845.251C806.856 838.835 808.319 832.33 808.37 825.735C808.421 819.14 806.933 812.352 803.032 807.027C799.131 801.702 792.588 798.071 786.032 798.776C777.602 799.687 771.25 807.283 768.532 815.316C765.814 823.349 765.835 832 764.68 840.4C763.948 835.28 763.204 830.07 760.98 825.413C758.756 820.756 754.77 816.623 749.727 815.546C746.006 814.746 742.119 815.674 738.68 817.265C733.828 819.605 729.713 823.234 726.785 827.756C723.858 832.278 722.23 837.517 722.08 842.902C721.926 854.155 731.08 870.194 742.892 872.657C760.676 876.378 780.526 875.146 798.554 874.479C809.435 874.082 820.29 873.4 831.145 872.722Z" stroke="#171717" stroke-width="3.849" stroke-linecap="round" stroke-linejoin="round"/>
<path d="M895.918 518.98C891.385 514.836 886.852 510.703 882.318 506.58C878.161 502.78 874.008 498.991 869.859 495.212" stroke="#171717" stroke-width="3.849" stroke-linecap="round" stroke-linejoin="round"/>
<path d="M891.477 494.871C888.477 498.81 885.424 502.715 882.316 506.585C877.916 512.09 873.416 517.524 868.816 522.885" stroke="#171717" stroke-width="3.849" stroke-linecap="round" stroke-linejoin="round"/>
<path d="M382.967 316.7C385.661 313.567 388.278 310.376 390.82 307.128C393.758 303.395 396.593 299.584 399.327 295.696" stroke="#171717" stroke-width="3.849" stroke-linecap="round" stroke-linejoin="round"/>
<path d="M398.466 315.17C395.951 312.463 393.402 309.782 390.819 307.125C385.839 301.954 380.749 296.873 375.549 291.882" stroke="#171717" stroke-width="3.849" stroke-linecap="round" stroke-linejoin="round"/>
<path d="M100.913 417.062C100.63 412.122 100.143 407.182 99.4497 402.281C98.7943 397.725 97.9687 393.204 96.9727 388.718" stroke="url(#paint6_linear_36_3406)" stroke-width="3.849" stroke-linecap="round" stroke-linejoin="round"/>
<path d="M114.783 394.4C109.612 396.915 104.501 399.541 99.4496 402.278C93.663 405.384 87.9486 408.621 82.3066 411.991" stroke="url(#paint7_linear_36_3406)" stroke-width="3.849" stroke-linecap="round" stroke-linejoin="round"/>
<path d="M613.402 222.786L612.195 234.976L621.562 242.867L609.604 245.497L604.984 256.84L598.787 246.28L586.584 245.395L594.707 236.233L591.781 224.351L602.995 229.253L613.402 222.786Z" stroke="url(#paint8_linear_36_3406)" stroke-width="3.849" stroke-linecap="round" stroke-linejoin="round"/>
<path d="M756.522 718.707C678.779 729.648 602.657 750.011 529.834 779.346C518.341 783.978 506.579 789.075 498.101 798.113C489.623 807.151 485.255 821.201 490.894 832.235C497.166 844.508 514.386 848.535 526.768 842.483C536.709 837.624 543.709 824.262 537.199 815.316C535.6 813.118 533.378 811.451 530.82 810.531C528.262 809.61 525.487 809.479 522.854 810.153C520.221 810.828 517.851 812.277 516.051 814.314C514.251 816.351 513.104 818.881 512.758 821.577" stroke="#171717" stroke-width="3.849" stroke-linecap="round" stroke-linejoin="round"/>
<path d="M920.4 623.1L791.2 580.843C784.4 578.618 777.476 576.336 771.632 572.201C765.788 568.066 761.071 561.725 760.666 554.578C760.454 550.869 761.4 547.185 763.372 544.037C765.345 540.888 768.247 538.43 771.677 537.003C775.107 535.576 778.896 535.249 782.519 536.069C786.143 536.888 789.423 538.813 791.905 541.578C794.824 544.829 796.505 549.403 795.505 553.656C794.505 557.909 790.43 561.477 786.077 561.123C781.724 560.769 778.151 555.803 779.824 551.769" stroke="#171717" stroke-width="3.849" stroke-linecap="round" stroke-linejoin="round"/>
<path d="M214.363 615.759L197.568 615.598C180.061 615.43 162.541 615.261 145.057 616.183" stroke="#171717" stroke-width="3.849" stroke-linecap="round" stroke-linejoin="round"/>
<path d="M170.065 649.9C133.808 652.939 96.8987 648.55 61.1957 655.561C53.7027 657.033 45.4777 659.62 41.8647 666.348C40.524 668.725 40.0973 671.51 40.6647 674.179C41.8567 679.074 46.8197 682.126 51.6827 683.439C56.0827 684.626 60.9687 684.783 65.0097 682.682C69.0507 680.581 71.8857 675.802 70.7207 671.399C69.5557 666.996 63.6367 664.282 59.9977 667.022" stroke="#171717" stroke-width="3.849" stroke-linecap="round" stroke-linejoin="round"/>
<path d="M243.855 584.071C199.365 586.404 154.53 587.935 110.455 581.431C104.205 580.508 97.3549 579.058 93.5759 573.992C91.9291 571.63 91.0883 568.8 91.1784 565.922C91.2685 563.044 92.2847 560.272 94.0759 558.018C95.9575 555.837 98.4479 554.268 101.227 553.512C104.007 552.756 106.949 552.849 109.676 553.777C110.96 554.173 112.152 554.822 113.182 555.685C114.212 556.548 115.06 557.607 115.676 558.802C116.259 560.014 116.437 561.382 116.183 562.703C115.929 564.024 115.256 565.228 114.265 566.138C112.165 567.813 108.502 567.22 107.447 564.754" stroke="#171717" stroke-width="3.849" stroke-linecap="round" stroke-linejoin="round"/>
<path d="M726.9 260.567C730.227 255.075 733.555 249.584 736.883 244.093" stroke="#171717" stroke-width="3.849" stroke-linecap="round" stroke-linejoin="round"/>
<path d="M710.748 253.272C711.486 238.585 712.224 223.899 712.963 209.213" stroke="#171717" stroke-width="3.849" stroke-linecap="round" stroke-linejoin="round"/>
<path d="M691.706 261.839C687.138 256.075 683.32 249.756 680.342 243.031" stroke="#171717" stroke-width="3.849" stroke-linecap="round" stroke-linejoin="round"/>
<path d="M683.211 427.467C684.428 420.286 685.221 413.04 685.586 405.767" stroke="#171717" stroke-width="3.849" stroke-linecap="round" stroke-linejoin="round"/>
<path d="M669.117 428.101C669.251 420.245 669.573 412.396 670.085 404.553" stroke="#171717" stroke-width="3.849" stroke-linecap="round" stroke-linejoin="round"/>
<path d="M650.666 427.19C650.799 419.532 651.307 411.892 652.189 404.271" stroke="#171717" stroke-width="3.849" stroke-linecap="round" stroke-linejoin="round"/>
<path d="M634.428 425.136C634.583 425.249 634.347 425.507 634.172 425.43C633.997 425.353 633.943 425.13 633.911 424.946C632.65 417.618 632.258 410.166 632.742 402.746" stroke="#171717" stroke-width="3.849" stroke-linecap="round" stroke-linejoin="round"/>
<path d="M192.617 445.588C193.702 432.96 199.279 421.141 208.335 412.275C217.392 403.409 229.327 398.085 241.974 397.269" stroke="#171717" stroke-width="3.849" stroke-linecap="round" stroke-linejoin="round"/>
<path d="M235.628 421.458C235.757 421.587 235.584 421.825 235.402 421.819C235.22 421.787 235.059 421.685 234.952 421.534C232.138 418.516 228.688 416.161 224.852 414.641L225.245 414.146" stroke="#171717" stroke-width="3.849" stroke-linecap="round" stroke-linejoin="round"/>
<path d="M205.924 433.595C206.774 429.942 208.187 426.445 210.114 423.228" stroke="#171717" stroke-width="3.849" stroke-linecap="round" stroke-linejoin="round"/>
<path d="M292.31 510.963C288.895 508.461 285.642 505.747 282.568 502.836" stroke="#171717" stroke-width="3.849" stroke-linecap="round" stroke-linejoin="round"/>
<path d="M263.842 524.949C266.409 521.368 269.357 518.077 272.634 515.132C273.026 514.781 273.734 515.417 273.434 515.846C273.134 516.275 272.294 515.814 272.494 515.327" stroke="#171717" stroke-width="3.849" stroke-linecap="round" stroke-linejoin="round"/>
<path d="M318.036 526.691C315.457 523.413 312.582 520.378 309.447 517.625" stroke="#171717" stroke-width="3.849" stroke-linecap="round" stroke-linejoin="round"/>
<path d="M301.559 556.356C304.246 553.401 306.656 550.207 308.759 546.812" stroke="#171717" stroke-width="3.849" stroke-linecap="round" stroke-linejoin="round"/>
<path d="M358.039 520.24L345.975 511.192" stroke="#171717" stroke-width="3.849" stroke-linecap="round" stroke-linejoin="round"/>
<path d="M352.42 561.278C355.239 556.899 357.825 552.375 360.167 547.724" stroke="#171717" stroke-width="3.849" stroke-linecap="round" stroke-linejoin="round"/>
<path d="M415.514 558.054L423.344 545.91" stroke="#171717" stroke-width="3.849" stroke-linecap="round" stroke-linejoin="round"/>
<path d="M459.802 513.146C459.133 512.901 458.552 512.462 458.134 511.886C455.568 508.98 453.084 506.004 450.68 502.959" stroke="#171717" stroke-width="3.849" stroke-linecap="round" stroke-linejoin="round"/>
<path d="M472.711 495.874C474.335 491.675 476.358 487.641 478.753 483.828" stroke="#171717" stroke-width="3.849" stroke-linecap="round" stroke-linejoin="round"/>
<path d="M485.111 454.647C486.634 449.397 488.748 444.337 491.411 439.563" stroke="#171717" stroke-width="3.849" stroke-linecap="round" stroke-linejoin="round"/>
<path d="M435.646 567.318C433.021 565.736 430.659 563.753 428.646 561.441" stroke="#171717" stroke-width="3.849" stroke-linecap="round" stroke-linejoin="round"/>
<path d="M454.414 584.219C455.681 582.625 456.742 580.878 457.571 579.019C459.065 576.019 460.558 573.019 462.051 570.019" stroke="#171717" stroke-width="3.849" stroke-linecap="round" stroke-linejoin="round"/>
<path d="M460.375 302.374C468.152 290.9 479.809 282.619 493.203 279.053C506.597 275.487 520.829 276.876 533.281 282.964" stroke="#171717" stroke-width="3.849" stroke-linecap="round" stroke-linejoin="round"/>
<path d="M486.982 322.818C489.461 318.52 491.518 313.992 493.123 309.298C493.226 309.368 493.311 309.462 493.37 309.571C493.43 309.681 493.462 309.802 493.466 309.927C493.469 310.051 493.443 310.175 493.389 310.287C493.335 310.399 493.255 310.497 493.156 310.573" stroke="#171717" stroke-width="3.849" stroke-linecap="round" stroke-linejoin="round"/>
<path d="M536.283 333.976C533.031 331.365 529.539 329.067 525.854 327.114" stroke="#171717" stroke-width="3.849" stroke-linecap="round" stroke-linejoin="round"/>
<path d="M504.625 364.021C504.587 364.155 504.855 364.161 504.882 364.021C504.909 363.881 504.79 363.768 504.682 363.681L495.756 356.368" stroke="#171717" stroke-width="3.849" stroke-linecap="round" stroke-linejoin="round"/>
<path d="M520.61 383.083C520.498 383.245 520.386 383.406 520.275 383.569C522.181 378.209 524.087 372.848 525.993 367.487C526.246 366.777 526.96 365.908 527.556 366.367C527.627 366.364 527.697 366.383 527.757 366.421C527.816 366.459 527.863 366.515 527.89 366.58C527.918 366.645 527.924 366.718 527.91 366.787C527.895 366.856 527.859 366.919 527.807 366.967C527.558 367.137 527.18 366.767 527.342 366.518" stroke="#171717" stroke-width="3.849" stroke-linecap="round" stroke-linejoin="round"/>
<path d="M530.494 425.168C527.611 421.607 523.929 418.777 519.746 416.907" stroke="#171717" stroke-width="3.849" stroke-linecap="round" stroke-linejoin="round"/>
<path d="M415.208 601.786C410.242 597.978 405.036 594.493 399.623 591.353" stroke="#171717" stroke-width="3.849" stroke-linecap="round" stroke-linejoin="round"/>
<path d="M485.701 606.718C482.159 604.18 478.504 601.813 474.734 599.618" stroke="#171717" stroke-width="3.849" stroke-linecap="round" stroke-linejoin="round"/>
<path d="M549.368 605.541C548.481 606.1 547.717 606.833 547.121 607.696C546.129 608.996 545.209 610.555 545.488 612.164C545.783 613.312 546.416 614.345 547.305 615.129C547.774 615.661 548.344 616.094 548.983 616.403C549.602 616.623 550.269 616.675 550.915 616.554C551.561 616.432 552.163 616.142 552.66 615.713C553.646 614.837 554.357 613.694 554.707 612.423C555.08 611.382 555.188 610.265 555.02 609.172C554.583 606.887 551.566 604.3 549.368 605.541Z" stroke="url(#paint9_linear_36_3406)" stroke-width="3.849" stroke-linecap="round" stroke-linejoin="round"/>
<path d="M534.3 566.076C531.119 562.213 527.531 558.703 523.6 555.606C523.479 555.506 523.341 555.354 523.419 555.219C523.497 555.084 523.713 555.355 523.558 555.341" stroke="url(#paint10_linear_36_3406)" stroke-width="3.849" stroke-linecap="round" stroke-linejoin="round"/>
<path d="M523.326 569.405C526.028 564.231 529.454 559.468 533.5 555.26C533.581 555.177 533.667 555.07 533.634 554.96C533.601 554.85 533.38 554.869 533.416 554.978" stroke="url(#paint11_linear_36_3406)" stroke-width="3.849" stroke-linecap="round" stroke-linejoin="round"/>
<path d="M518.455 498.366C518.695 498.653 518.933 498.941 519.173 499.229C516.644 495.507 514.333 491.642 512.252 487.652" stroke="url(#paint12_linear_36_3406)" stroke-width="3.849" stroke-linecap="round" stroke-linejoin="round"/>
<path d="M509.762 497.771C509.716 497.685 509.6 497.852 509.684 497.904C509.768 497.956 509.871 497.891 509.947 497.829L520.409 489.396" stroke="url(#paint13_linear_36_3406)" stroke-width="3.849" stroke-linecap="round" stroke-linejoin="round"/>
<path d="M598.129 566.271C600.963 563.031 603.65 559.669 606.19 556.185" stroke="url(#paint14_linear_36_3406)" stroke-width="3.849" stroke-linecap="round" stroke-linejoin="round"/>
<path d="M606.1 566.06C603.478 561.834 600.496 557.841 597.189 554.126" stroke="url(#paint15_linear_36_3406)" stroke-width="3.849" stroke-linecap="round" stroke-linejoin="round"/>
<path d="M684.223 589.635C684.24 589.447 684.53 589.746 684.359 589.827C684.188 589.908 684.013 589.736 683.902 589.583L674.217 576.144" stroke="url(#paint16_linear_36_3406)" stroke-width="3.849" stroke-linecap="round" stroke-linejoin="round"/>
<path d="M671.979 590.807C676.622 585.47 679.849 578.939 684.997 574.088" stroke="url(#paint17_linear_36_3406)" stroke-width="3.849" stroke-linecap="round" stroke-linejoin="round"/>
<path d="M677.169 522.379C674.169 517.905 671.379 513.299 668.799 508.561" stroke="url(#paint18_linear_36_3406)" stroke-width="3.849" stroke-linecap="round" stroke-linejoin="round"/>
<path d="M665.949 520.401C670.129 516.561 674.388 512.809 678.727 509.146C678.657 509.254 678.589 509.362 678.52 509.469" stroke="url(#paint19_linear_36_3406)" stroke-width="3.849" stroke-linecap="round" stroke-linejoin="round"/>
<path d="M616.535 457.587C613.768 452.988 610.623 448.626 607.135 444.547" stroke="url(#paint20_linear_36_3406)" stroke-width="3.849" stroke-linecap="round" stroke-linejoin="round"/>
<path d="M605.879 457.627C609.728 452.552 614.153 447.943 619.067 443.891" stroke="url(#paint21_linear_36_3406)" stroke-width="3.849" stroke-linecap="round" stroke-linejoin="round"/>
<path d="M744.5 467.626C748.604 462.441 752.709 457.256 756.815 452.072" stroke="url(#paint22_linear_36_3406)" stroke-width="3.849" stroke-linecap="round" stroke-linejoin="round"/>
<path d="M759.63 465.968C755.644 460.316 750.975 455.177 745.73 450.668" stroke="url(#paint23_linear_36_3406)" stroke-width="3.849" stroke-linecap="round" stroke-linejoin="round"/>
<path d="M700.247 460.992C699.446 461.626 698.852 462.484 698.541 463.457C698.429 464.135 698.468 464.828 698.656 465.489C698.844 466.149 699.176 466.76 699.628 467.276C700.171 468.066 700.913 468.699 701.778 469.11C702.644 469.522 703.603 469.697 704.558 469.619C705.636 469.386 706.627 468.855 707.418 468.087C708.777 466.887 709.918 465.1 709.47 463.339C708.326 458.809 703.282 458.279 700.247 460.992Z" stroke="url(#paint24_linear_36_3406)" stroke-width="3.849" stroke-linecap="round" stroke-linejoin="round"/>
<path d="M654.688 447.62C654.056 448.525 653.733 449.609 653.766 450.711C653.831 451.397 654.053 452.058 654.416 452.643C654.778 453.228 655.271 453.722 655.856 454.085C656.927 454.727 658.195 454.956 659.423 454.728C660.651 454.499 661.752 453.83 662.521 452.846C666.259 447.656 658.509 441.787 654.688 447.62Z" stroke="url(#paint25_linear_36_3406)" stroke-width="3.849" stroke-linecap="round" stroke-linejoin="round"/>
<path d="M561.663 480.909C561.585 481.973 561.827 483.035 562.358 483.96C562.889 484.885 563.684 485.631 564.642 486.1C567.031 487.128 569.763 485.962 572.008 484.651C572.466 484.418 572.876 484.099 573.216 483.713C575.174 481.191 572.274 475.227 569.46 474.343C565.711 473.165 561.868 477.463 561.663 480.909Z" stroke="url(#paint26_linear_36_3406)" stroke-width="3.849" stroke-linecap="round" stroke-linejoin="round"/>
<path d="M638.666 560.209C639.294 560.853 640.091 561.306 640.965 561.518C641.84 561.729 642.756 561.689 643.609 561.404C647.599 560.104 649.968 552.87 644.996 551.251C640.401 549.756 635.201 556.364 638.666 560.209Z" stroke="url(#paint27_linear_36_3406)" stroke-width="3.849" stroke-linecap="round" stroke-linejoin="round"/>
<path d="M808.865 396.519C810.363 392.559 811.861 388.599 813.359 384.639C813.77 383.22 814.521 381.922 815.548 380.859" stroke="url(#paint28_linear_36_3406)" stroke-width="3.849" stroke-linecap="round" stroke-linejoin="round"/>
<path d="M804.441 385.145C810.055 387.231 815.557 389.605 820.925 392.258" stroke="url(#paint29_linear_36_3406)" stroke-width="3.849" stroke-linecap="round" stroke-linejoin="round"/>
<path d="M852.807 374.088C851.979 375.185 851.309 376.392 850.816 377.675C850.572 378.318 850.464 379.004 850.498 379.691C850.533 380.378 850.709 381.05 851.016 381.665C851.829 383.097 853.468 383.808 854.996 384.425C855.913 384.885 856.93 385.112 857.956 385.085C858.814 384.937 859.624 384.583 860.315 384.053C862.487 382.744 864.095 380.674 864.827 378.246C866.637 370.487 856.478 368.722 852.807 374.088Z" stroke="url(#paint30_linear_36_3406)" stroke-width="3.849" stroke-linecap="round" stroke-linejoin="round"/>
<path d="M854.963 341.02C859.973 336.362 863.356 330.187 868.282 325.442C870.049 323.742 872.061 322.156 873.06 319.917C873.304 319.955 873.297 320.399 873.051 320.428" stroke="url(#paint31_linear_36_3406)" stroke-width="3.849" stroke-linecap="round" stroke-linejoin="round"/>
<path d="M870.079 344.631C866.185 336.319 862.039 328.131 857.641 320.067" stroke="url(#paint32_linear_36_3406)" stroke-width="3.849" stroke-linecap="round" stroke-linejoin="round"/>
<g opacity="0.1">
<path d="M188.004 431.598C189.16 466.298 208.004 500.736 231.258 525.658C257.797 553.737 292.183 573.166 329.929 581.411C352.241 586.188 375.295 586.35 397.672 581.887L383.192 570.857C384.822 585.601 384.822 600.48 383.192 615.224H406.118L402.461 577.624C401.861 571.45 397.613 566.139 390.977 566.139C385.237 566.139 378.882 571.413 379.493 577.624L383.193 615.224C384.647 630.007 404.516 629.905 406.119 615.224C407.733 600.478 407.717 585.599 406.071 570.857C405.214 563.157 399.482 558.247 391.592 559.827C326.475 572.863 256.06 535.755 224.521 478.515C215.893 462.856 211.229 446.122 205.961 429.168C202.993 419.617 187.652 420.949 188.006 431.598H188.004Z" fill="#171717"/>
</g>
<g opacity="0.1">
<path d="M665.527 315.69C660.077 311.823 652.652 313.569 647.748 317.526C641.203 322.807 637.858 329.145 636.648 337.503C635.341 346.546 637.585 356.283 637.738 365.432C637.926 375.766 637.177 386.095 635.5 396.292C634.78 400.63 636.636 405.068 641.193 406.32C645.064 407.383 650.535 405.001 651.221 400.626C653.701 384.81 654.678 368.726 652.909 352.776C652.124 345.699 650.4 338.652 649.918 331.582C649.672 327.982 649.963 323.602 652.754 320.994C655.98 317.981 660.072 317.968 664.008 319.288C666.254 320.042 667.239 316.906 665.525 315.688L665.527 315.69Z" fill="#171717"/>
</g>
<g opacity="0.1">
<path d="M438.598 478.79C450.222 482.851 464.436 471.001 471.645 463.044C481.145 452.565 487.099 439.478 489.963 425.699C496.242 395.484 493.528 362.546 487.746 332.478C484.367 314.902 479.226 297.57 473.669 280.57C469.534 267.92 450.813 275.312 456.619 287.758C471.833 320.367 477.495 357.97 477.143 393.758C476.982 410.136 475.579 427.513 468.043 442.367C464.772 448.99 460.186 454.876 454.565 459.667C449.065 464.257 441.621 465.986 436.531 470.952C433.868 473.552 435.368 477.652 438.6 478.787L438.598 478.79Z" fill="#171717"/>
</g>
<defs>
<linearGradient id="paint0_linear_36_3406" x1="657.205" y1="86.0654" x2="657.205" y2="146.369" gradientUnits="userSpaceOnUse">
<stop stop-color="#FFB800"/>
<stop offset="1" stop-color="#FF7F0A"/>
</linearGradient>
<linearGradient id="paint1_linear_36_3406" x1="657.164" y1="402.38" x2="657.164" y2="428.147" gradientUnits="userSpaceOnUse">
<stop stop-color="#FFB800"/>
<stop offset="1" stop-color="#FF7F0A"/>
</linearGradient>
<linearGradient id="paint2_linear_36_3406" x1="390.551" y1="261.476" x2="390.551" y2="629.466" gradientUnits="userSpaceOnUse">
<stop stop-color="#FFB800"/>
<stop offset="1" stop-color="#FF7F0A"/>
</linearGradient>
<linearGradient id="paint3_linear_36_3406" x1="404.264" y1="475.967" x2="404.264" y2="537.539" gradientUnits="userSpaceOnUse">
<stop stop-color="#FFB800"/>
<stop offset="1" stop-color="#FF7F0A"/>
</linearGradient>
<linearGradient id="paint4_linear_36_3406" x1="227.078" y1="390.342" x2="227.078" y2="456.467" gradientUnits="userSpaceOnUse">
<stop stop-color="#FFB800"/>
<stop offset="1" stop-color="#FF7F0A"/>
</linearGradient>
<linearGradient id="paint5_linear_36_3406" x1="184.853" y1="190.367" x2="184.853" y2="261.7" gradientUnits="userSpaceOnUse">
<stop stop-color="#FFB800"/>
<stop offset="1" stop-color="#FF7F0A"/>
</linearGradient>
<linearGradient id="paint6_linear_36_3406" x1="98.9427" y1="388.718" x2="98.9427" y2="417.062" gradientUnits="userSpaceOnUse">
<stop stop-color="#FFB800"/>
<stop offset="1" stop-color="#FF7F0A"/>
</linearGradient>
<linearGradient id="paint7_linear_36_3406" x1="98.5446" y1="394.4" x2="98.5446" y2="411.991" gradientUnits="userSpaceOnUse">
<stop stop-color="#FFB800"/>
<stop offset="1" stop-color="#FF7F0A"/>
</linearGradient>
<linearGradient id="paint8_linear_36_3406" x1="604.073" y1="222.786" x2="604.073" y2="256.84" gradientUnits="userSpaceOnUse">
<stop stop-color="#FFB800"/>
<stop offset="1" stop-color="#FF7F0A"/>
</linearGradient>
<linearGradient id="paint9_linear_36_3406" x1="550.267" y1="605.219" x2="550.267" y2="616.617" gradientUnits="userSpaceOnUse">
<stop stop-color="#FFB800"/>
<stop offset="1" stop-color="#FF7F0A"/>
</linearGradient>
<linearGradient id="paint10_linear_36_3406" x1="528.848" y1="555.182" x2="528.848" y2="566.076" gradientUnits="userSpaceOnUse">
<stop stop-color="#FFB800"/>
<stop offset="1" stop-color="#FF7F0A"/>
</linearGradient>
<linearGradient id="paint11_linear_36_3406" x1="528.484" y1="554.887" x2="528.484" y2="569.405" gradientUnits="userSpaceOnUse">
<stop stop-color="#FFB800"/>
<stop offset="1" stop-color="#FF7F0A"/>
</linearGradient>
<linearGradient id="paint12_linear_36_3406" x1="515.712" y1="487.652" x2="515.712" y2="499.229" gradientUnits="userSpaceOnUse">
<stop stop-color="#FFB800"/>
<stop offset="1" stop-color="#FF7F0A"/>
</linearGradient>
<linearGradient id="paint13_linear_36_3406" x1="515.032" y1="489.396" x2="515.032" y2="497.922" gradientUnits="userSpaceOnUse">
<stop stop-color="#FFB800"/>
<stop offset="1" stop-color="#FF7F0A"/>
</linearGradient>
<linearGradient id="paint14_linear_36_3406" x1="602.159" y1="556.185" x2="602.159" y2="566.271" gradientUnits="userSpaceOnUse">
<stop stop-color="#FFB800"/>
<stop offset="1" stop-color="#FF7F0A"/>
</linearGradient>
<linearGradient id="paint15_linear_36_3406" x1="601.645" y1="554.126" x2="601.645" y2="566.06" gradientUnits="userSpaceOnUse">
<stop stop-color="#FFB800"/>
<stop offset="1" stop-color="#FF7F0A"/>
</linearGradient>
<linearGradient id="paint16_linear_36_3406" x1="679.315" y1="576.144" x2="679.315" y2="589.847" gradientUnits="userSpaceOnUse">
<stop stop-color="#FFB800"/>
<stop offset="1" stop-color="#FF7F0A"/>
</linearGradient>
<linearGradient id="paint17_linear_36_3406" x1="678.488" y1="574.088" x2="678.488" y2="590.807" gradientUnits="userSpaceOnUse">
<stop stop-color="#FFB800"/>
<stop offset="1" stop-color="#FF7F0A"/>
</linearGradient>
<linearGradient id="paint18_linear_36_3406" x1="672.984" y1="508.561" x2="672.984" y2="522.379" gradientUnits="userSpaceOnUse">
<stop stop-color="#FFB800"/>
<stop offset="1" stop-color="#FF7F0A"/>
</linearGradient>
<linearGradient id="paint19_linear_36_3406" x1="672.338" y1="509.146" x2="672.338" y2="520.401" gradientUnits="userSpaceOnUse">
<stop stop-color="#FFB800"/>
<stop offset="1" stop-color="#FF7F0A"/>
</linearGradient>
<linearGradient id="paint20_linear_36_3406" x1="611.835" y1="444.547" x2="611.835" y2="457.587" gradientUnits="userSpaceOnUse">
<stop stop-color="#FFB800"/>
<stop offset="1" stop-color="#FF7F0A"/>
</linearGradient>
<linearGradient id="paint21_linear_36_3406" x1="612.473" y1="443.891" x2="612.473" y2="457.627" gradientUnits="userSpaceOnUse">
<stop stop-color="#FFB800"/>
<stop offset="1" stop-color="#FF7F0A"/>
</linearGradient>
<linearGradient id="paint22_linear_36_3406" x1="750.658" y1="452.072" x2="750.658" y2="467.626" gradientUnits="userSpaceOnUse">
<stop stop-color="#FFB800"/>
<stop offset="1" stop-color="#FF7F0A"/>
</linearGradient>
<linearGradient id="paint23_linear_36_3406" x1="752.68" y1="450.668" x2="752.68" y2="465.968" gradientUnits="userSpaceOnUse">
<stop stop-color="#FFB800"/>
<stop offset="1" stop-color="#FF7F0A"/>
</linearGradient>
<linearGradient id="paint24_linear_36_3406" x1="704.024" y1="459.342" x2="704.024" y2="469.637" gradientUnits="userSpaceOnUse">
<stop stop-color="#FFB800"/>
<stop offset="1" stop-color="#FF7F0A"/>
</linearGradient>
<linearGradient id="paint25_linear_36_3406" x1="658.639" y1="445.195" x2="658.639" y2="454.814" gradientUnits="userSpaceOnUse">
<stop stop-color="#FFB800"/>
<stop offset="1" stop-color="#FF7F0A"/>
</linearGradient>
<linearGradient id="paint26_linear_36_3406" x1="567.752" y1="474.145" x2="567.752" y2="486.494" gradientUnits="userSpaceOnUse">
<stop stop-color="#FFB800"/>
<stop offset="1" stop-color="#FF7F0A"/>
</linearGradient>
<linearGradient id="paint27_linear_36_3406" x1="642.671" y1="551.035" x2="642.671" y2="561.651" gradientUnits="userSpaceOnUse">
<stop stop-color="#FFB800"/>
<stop offset="1" stop-color="#FF7F0A"/>
</linearGradient>
<linearGradient id="paint28_linear_36_3406" x1="812.207" y1="380.859" x2="812.207" y2="396.519" gradientUnits="userSpaceOnUse">
<stop stop-color="#FFB800"/>
<stop offset="1" stop-color="#FF7F0A"/>
</linearGradient>
<linearGradient id="paint29_linear_36_3406" x1="812.683" y1="385.145" x2="812.683" y2="392.258" gradientUnits="userSpaceOnUse">
<stop stop-color="#FFB800"/>
<stop offset="1" stop-color="#FF7F0A"/>
</linearGradient>
<linearGradient id="paint30_linear_36_3406" x1="857.766" y1="370.996" x2="857.766" y2="385.087" gradientUnits="userSpaceOnUse">
<stop stop-color="#FFB800"/>
<stop offset="1" stop-color="#FF7F0A"/>
</linearGradient>
<linearGradient id="paint31_linear_36_3406" x1="864.101" y1="319.917" x2="864.101" y2="341.02" gradientUnits="userSpaceOnUse">
<stop stop-color="#FFB800"/>
<stop offset="1" stop-color="#FF7F0A"/>
</linearGradient>
<linearGradient id="paint32_linear_36_3406" x1="863.86" y1="320.067" x2="863.86" y2="344.631" gradientUnits="userSpaceOnUse">
<stop stop-color="#FFB800"/>
<stop offset="1" stop-color="#FF7F0A"/>
</linearGradient>
</defs>
</svg>
