<svg width="480" height="480" viewBox="0 0 960 960" fill="none" xmlns="http://www.w3.org/2000/svg">
<g clip-path="url(#clip0_317_821)">
<path fill-rule="evenodd" clip-rule="evenodd" d="M450.606 473.211C450.584 473.222 450.584 473.211 450.606 473.2C451.861 472.733 533.754 427.646 577.333 369.307L574.933 368.541C571.536 369.896 568.04 371.272 564.388 371.372C560.736 371.472 556.807 370.04 554.92 366.91C554.359 365.979 553.996 364.94 553.634 363.903C553.181 362.606 552.729 361.313 551.89 360.239C548.89 356.409 543.018 357.375 538.29 358.862C538.181 358.894 538.072 358.93 537.965 358.966C537.887 358.991 537.81 359.017 537.735 359.04L506.645 369.263C501.839 370.846 497.032 372.426 492.226 374.002C486.998 375.723 481.271 377.887 478.107 382.15C477.516 382.95 477.024 383.818 476.642 384.736C475.41 387.729 475.528 390.981 475.647 394.252C475.732 396.609 475.818 398.976 475.399 401.263C473.901 409.477 465.888 415.359 457.629 416.525C449.37 417.691 441.023 414.96 433.565 411.231C412.779 400.837 397.073 382.967 383.665 363.731C380.884 359.735 378.192 355.684 375.584 351.622C354.764 319.234 336.906 285.034 322.228 249.438L320.741 247.873C313.922 249.594 307.199 251.636 300.573 254C290.535 257.558 280.766 261.837 271.343 266.802C269.778 267.623 268.204 268.5 266.704 269.488C263.411 271.653 260.536 274.339 259.304 278.002C257.795 282.464 259.093 287.343 260.481 291.843C261.787 296.098 263.178 300.323 264.654 304.519C278.285 343.523 298.786 380.251 326.635 410.709C327.345 411.486 328.066 412.263 328.788 413.029C359.212 445.495 398.294 470.292 441.427 481.169C444.257 478.263 447.328 475.6 450.606 473.211ZM314.801 267.373C314.497 266.506 313.546 266.049 312.679 266.354C311.811 266.659 311.355 267.609 311.66 268.476C332.398 327.53 369.437 379.502 418.49 418.377C419.211 418.948 420.258 418.827 420.829 418.106C421.4 417.385 421.279 416.338 420.559 415.767C371.999 377.283 335.331 325.833 314.801 267.373Z" fill="url(#paint0_linear_317_821)"/>
<path d="M478.556 620.536C477.19 605.03 475.822 589.524 474.45 574.018C474.394 573.385 474.339 572.752 474.305 572.109C474.083 568.746 474.216 565.294 476.105 562.585C478.214 559.577 481.999 558.279 485.584 557.435C497.228 554.704 509.315 554.849 521.236 553.935C530.536 553.213 540.05 551.759 548.519 547.996C550.899 546.947 553.186 545.7 555.357 544.267C565.235 537.696 572.339 525.775 570.219 514.109C592.696 500.024 630.401 490.3 669.283 473.151C672.369 471.786 675.366 470.399 678.274 468.967L679.184 470.798C681.693 495.961 681.138 521.69 674.411 546.065C667.684 570.44 654.443 593.449 634.675 609.211C614.129 625.611 588.023 633.264 562.294 638.68C554.535 640.312 546.71 641.788 538.852 642.98C519.583 645.91 500.114 647.198 480.752 645.333C480.021 637.064 479.289 628.798 478.556 620.536Z" fill="url(#paint1_linear_317_821)"/>
<path d="M510.456 325.641C509.589 322.156 508.716 318.674 507.836 315.197L507.703 314.875C508.305 314.628 508.929 314.442 509.568 314.32C512.468 313.765 515.961 315.097 516.783 317.938C517.515 320.502 515.772 323.255 513.442 324.565C512.509 325.077 511.507 325.451 510.467 325.675L510.456 325.641Z" fill="#171717"/>
<path d="M538.416 682.8C538.416 682.8 534.116 732.16 488.29 732.16C442.464 732.16 418.54 708.66 412.279 685.154C409.538 674.864 404.687 641.554 405.309 603.582L408.617 603.649C408.618 603.902 408.64 604.155 408.683 604.404C409.305 607.804 413.389 609.154 416.797 609.643C420.292 610.144 423.813 610.429 427.342 610.497C424.755 610.753 422.158 610.997 419.572 611.252C415.172 611.674 409.538 613.328 409.382 617.734C409.216 622.207 414.855 624.234 419.294 624.727C438.583 626.857 458.099 625.486 476.9 620.68L478.553 620.535C479.287 628.794 480.02 637.061 480.753 645.335C500.111 647.2 519.58 645.912 538.853 642.982L539.197 644.782C538.471 666.7 538.416 682.8 538.416 682.8Z" fill="#171717"/>
<path d="M326.635 410.709C327.345 411.486 328.066 412.263 328.788 413.029L327.6 414.139C319.44 415.804 311.027 415.797 302.87 414.119C294.713 412.44 286.98 409.124 280.141 404.372C273.302 399.62 267.497 393.53 263.078 386.471C258.659 379.411 255.718 371.529 254.432 363.301C251.332 343.433 258.032 323.501 264.654 304.518C278.285 343.523 298.786 380.251 326.635 410.709Z" fill="#171717"/>
<path d="M475.348 920.214C510.18 920.214 538.416 891.978 538.416 857.146C538.416 822.315 510.18 794.078 475.348 794.078C440.517 794.078 412.28 822.315 412.28 857.146C412.28 891.978 440.517 920.214 475.348 920.214Z" stroke="#171717" stroke-width="3.33" stroke-linecap="round" stroke-linejoin="round"/>
<path d="M450.606 473.201C451.861 472.735 533.754 427.648 577.331 369.308C593.881 347.164 604.914 323.108 603.904 298.87C603.204 281.621 596.411 264.27 581.194 247.445C538.604 200.35 454.436 149.691 403.278 225.635C374.285 268.679 410.537 326.63 384.497 363.159" stroke="#171717" stroke-width="3.33" stroke-linecap="round" stroke-linejoin="round"/>
<path d="M450.674 473.154C450.652 473.166 450.63 473.188 450.607 473.199C450.584 473.21 450.585 473.221 450.607 473.21" stroke="#171717" stroke-width="3.33" stroke-linecap="round" stroke-linejoin="round"/>
<path d="M539.193 644.777C538.471 666.699 538.416 682.804 538.416 682.804C538.416 682.804 534.116 732.164 488.29 732.164C442.464 732.164 418.54 708.664 412.279 685.158C409.538 674.868 404.687 641.558 405.309 603.586C406.019 559.476 414.109 509.073 441.427 481.168C444.257 478.262 447.328 475.599 450.606 473.21V473.2" stroke="#171717" stroke-width="3.33" stroke-linecap="round" stroke-linejoin="round"/>
<path d="M306.067 222.414C340.11 162.5 402.945 89.2292 505.317 94.1352C676.917 102.36 780.917 246.988 765.647 341.002C754.97 406.668 729.762 443.663 678.271 468.959V468.97C675.363 470.402 672.371 471.789 669.28 473.154C630.398 490.303 592.693 500.027 570.216 514.112C563.235 518.485 557.729 523.28 554.099 528.852C551.769 532.438 549.782 538.509 548.099 546.234" stroke="#171717" stroke-width="3.33" stroke-linecap="round" stroke-linejoin="round"/>
<path d="M501.953 318.66C503.668 317.116 505.607 315.84 507.703 314.875C508.305 314.628 508.929 314.442 509.568 314.32C512.468 313.765 515.961 315.097 516.783 317.938C517.515 320.502 515.772 323.255 513.442 324.565C512.509 325.077 511.507 325.451 510.467 325.675C508.895 325.999 507.298 326.196 505.694 326.263" stroke="#171717" stroke-width="3.33" stroke-linecap="round" stroke-linejoin="round"/>
<path d="M510.456 325.64C509.589 322.155 508.716 318.674 507.836 315.196" stroke="#171717" stroke-width="3.33" stroke-linecap="round" stroke-linejoin="round"/>
<path d="M494.106 285.449C493.762 282.663 493.429 279.877 493.085 277.091" stroke="#171717" stroke-width="3.33" stroke-linecap="round" stroke-linejoin="round"/>
<path d="M465.925 288.057C465.403 284.572 464.877 281.09 464.349 277.612" stroke="#171717" stroke-width="3.33" stroke-linecap="round" stroke-linejoin="round"/>
<path d="M432.192 309.801C426.209 298.724 420.182 287.524 416.808 275.392C413.434 263.26 412.857 249.952 417.708 238.331C422.603 226.576 432.648 217.541 443.903 211.58C457.8 204.178 473.643 201.244 489.268 203.18C504.913 205.202 519.41 212.468 530.392 223.792C538.75 232.55 544.522 243.405 550.216 254.105C555.91 264.805 561.748 275.627 570.195 284.305C578.642 292.983 590.208 299.39 602.317 298.923" stroke="#171717" stroke-width="3.33" stroke-linecap="round" stroke-linejoin="round"/>
<path d="M430.549 310.489C429.939 340.714 449.585 370.339 477.667 381.538" stroke="#171717" stroke-width="3.33" stroke-linecap="round" stroke-linejoin="round"/>
<path d="M444.257 257.301C439.107 281.709 448.942 308.648 468.61 324.001C476.535 330.183 485.792 334.545 493.473 341.027C501.154 347.509 507.359 357.127 505.927 367.067" stroke="#171717" stroke-width="3.33" stroke-linecap="round" stroke-linejoin="round"/>
<path d="M439.352 252.027C440.962 253.803 442.664 255.492 444.452 257.089C461.002 271.929 484.5 278.889 506.433 275.059C507.427 278.005 509.14 280.656 511.418 282.773C513.695 284.889 516.464 286.404 519.475 287.18C519.697 287.236 519.93 287.28 520.163 287.324C523.098 287.897 526.127 287.755 528.996 286.911C531.865 286.067 534.488 284.545 536.646 282.474" stroke="#171717" stroke-width="3.33" stroke-linecap="round" stroke-linejoin="round"/>
<path d="M480.143 291.01C481.203 292.332 481.878 293.921 482.094 295.603C482.31 297.284 482.058 298.992 481.366 300.539C480.675 302.087 479.57 303.413 478.173 304.374C476.777 305.334 475.143 305.891 473.45 305.984C476.358 306.949 479.266 307.904 482.174 308.87" stroke="#171717" stroke-width="3.33" stroke-linecap="round" stroke-linejoin="round"/>
<path d="M519.868 288.668C525.141 311.989 531.198 335.117 538.038 358.052" stroke="#171717" stroke-width="3.33" stroke-linecap="round" stroke-linejoin="round"/>
<path d="M322.229 249.441C336.906 285.037 354.764 319.237 375.585 351.625C378.193 355.687 380.885 359.738 383.666 363.734C397.074 382.97 412.78 400.84 433.566 411.234C441.024 414.963 449.371 417.694 457.63 416.528C465.889 415.362 473.902 409.48 475.4 401.266C476.4 395.805 474.523 389.889 476.643 384.739C477.024 383.821 477.516 382.953 478.108 382.153C481.272 377.89 486.999 375.726 492.227 374.005C497.033 372.429 501.839 370.85 506.646 369.266L537.736 359.043C537.913 358.988 538.101 358.921 538.29 358.865C543.018 357.378 548.891 356.412 551.891 360.242C553.4 362.173 553.656 364.815 554.921 366.913C556.808 370.043 560.737 371.475 564.389 371.375C568.041 371.275 571.537 369.899 574.934 368.544" stroke="#171717" stroke-width="3.33" stroke-linecap="round" stroke-linejoin="round"/>
<path d="M570.173 513.858C570.184 513.947 570.206 514.024 570.217 514.113C572.337 525.779 565.233 537.7 555.355 544.271C553.184 545.704 550.897 546.952 548.517 548.001C540.048 551.764 530.536 553.218 521.234 553.94C509.313 554.85 497.226 554.705 485.582 557.44C481.997 558.284 478.212 559.582 476.103 562.59C474.216 565.299 474.083 568.751 474.303 572.114C474.337 572.757 474.392 573.39 474.448 574.023C475.813 589.529 477.182 605.035 478.554 620.541C479.287 628.8 480.02 637.067 480.754 645.341C500.112 647.206 519.581 645.918 538.854 642.988C546.712 641.8 554.537 640.324 562.296 638.688C588.025 633.272 614.131 625.624 634.677 609.219C654.445 593.457 667.687 570.448 674.413 546.073C681.139 521.698 681.695 495.973 679.186 470.806" stroke="#171717" stroke-width="3.33" stroke-linecap="round" stroke-linejoin="round"/>
<path d="M427.343 610.5C424.756 610.756 422.158 611 419.572 611.255C415.172 611.677 409.538 613.331 409.382 617.737C409.216 622.21 414.856 624.237 419.295 624.73C438.584 626.859 458.099 625.487 476.9 620.68" stroke="#171717" stroke-width="3.33" stroke-linecap="round" stroke-linejoin="round"/>
<path d="M427.343 610.501C434.118 610.639 440.886 609.987 447.511 608.559C440.784 609.203 434.061 609.851 427.343 610.501Z" stroke="#171717" stroke-width="3.33" stroke-linecap="round" stroke-linejoin="round"/>
<path d="M425.077 596.672C423.146 596.794 421.226 596.905 419.306 597.016C416.852 597.161 414.322 597.327 412.146 598.47C411.153 598.946 410.304 599.677 409.684 600.587C409.065 601.498 408.697 602.555 408.617 603.654C408.618 603.907 408.64 604.16 408.683 604.409C409.305 607.809 413.389 609.159 416.797 609.648C420.291 610.149 423.813 610.434 427.342 610.502" stroke="#171717" stroke-width="3.33" stroke-linecap="round" stroke-linejoin="round"/>
<path d="M425.077 596.672C433.645 597.345 442.265 596.841 450.695 595.172C442.149 595.683 433.61 596.183 425.077 596.672Z" stroke="#171717" stroke-width="3.33" stroke-linecap="round" stroke-linejoin="round"/>
<path d="M472.739 572.208C466.291 566.48 459.838 560.753 453.381 555.025C450.645 562.605 450.835 570.933 453.914 578.379C442.992 579.713 432.067 581.041 421.137 582.364C418.679 582.499 416.271 583.121 414.055 584.195C411.924 585.405 410.237 587.758 410.57 590.189C411.092 593.974 415.67 595.539 419.45 596.072C421.326 596.339 423.202 596.539 425.077 596.672" stroke="#171717" stroke-width="3.33" stroke-linecap="round" stroke-linejoin="round"/>
<path d="M320.741 247.877C313.927 249.598 307.204 251.641 300.573 254.004C290.536 257.562 280.769 261.84 271.347 266.804C269.782 267.625 268.206 268.504 266.708 269.49C263.408 271.655 260.536 274.341 259.308 278.004C257.799 282.466 259.097 287.35 260.485 291.845C261.795 296.096 263.186 300.322 264.658 304.521C278.289 343.521 298.79 380.253 326.639 410.711C327.349 411.488 328.07 412.265 328.792 413.031C359.216 445.497 398.298 470.294 441.431 481.171L441.931 481.305" stroke="#171717" stroke-width="3.33" stroke-linecap="round" stroke-linejoin="round"/>
<path d="M259.949 228.22C257.719 222.972 255.182 217.86 252.349 212.913C250.384 209.495 247.065 205.654 243.303 206.842C240.838 207.63 239.495 210.449 239.573 213.042C239.651 215.635 240.85 218.036 242.015 220.356C250.096 236.462 258.184 252.567 266.279 268.673" stroke="#171717" stroke-width="3.33" stroke-linecap="round" stroke-linejoin="round"/>
<path d="M259.948 228.22C261.806 234.842 264.03 241.356 266.608 247.733C264.856 241.078 262.63 234.557 259.948 228.22V228.22Z" stroke="#171717" stroke-width="3.33" stroke-linecap="round" stroke-linejoin="round"/>
<path d="M276.087 228.087C273.693 219.272 270.594 210.664 266.819 202.346C265.176 198.728 261.957 194.51 258.205 195.831C254.705 197.063 254.498 201.88 255.053 205.554C256.208 213.205 257.845 220.775 259.953 228.22" stroke="#171717" stroke-width="3.33" stroke-linecap="round" stroke-linejoin="round"/>
<path d="M276.087 228.087C276.997 232.349 277.977 236.593 279.028 240.818C278.218 236.544 277.238 232.3 276.087 228.087Z" stroke="#171717" stroke-width="3.33" stroke-linecap="round" stroke-linejoin="round"/>
<path d="M300.474 253.738C305.403 246.765 307.998 238.411 307.888 229.874C307.975 228.029 307.573 226.195 306.723 224.557C306.172 223.633 305.333 222.916 304.336 222.515C303.627 222.214 302.837 222.159 302.094 222.359C300.463 222.825 299.475 224.424 298.642 225.9C296.144 230.35 293.644 234.794 291.142 239.23C289.312 224.4 285.677 209.849 280.317 195.9C279.117 192.792 276.654 189.1 273.457 190.006C270.316 190.906 270.116 195.245 270.605 198.486C272.114 208.41 273.942 218.277 276.088 228.087" stroke="#171717" stroke-width="3.33" stroke-linecap="round" stroke-linejoin="round"/>
<path d="M264.689 304.407C264.677 304.44 264.666 304.484 264.655 304.518C258.029 323.498 251.336 343.433 254.433 363.301C255.718 371.53 258.66 379.412 263.079 386.471C267.497 393.53 273.302 399.62 280.141 404.372C286.981 409.124 294.713 412.44 302.87 414.118C311.028 415.797 319.441 415.804 327.601 414.138" stroke="#171717" stroke-width="3.33" stroke-linecap="round" stroke-linejoin="round"/>
<path d="M186.007 156.518C198.453 171.983 211.396 188.593 213.662 208.318C214.817 218.373 212.736 229.292 205.784 236.648C198.832 244.004 186.359 246.442 178.315 240.299C170.271 234.156 170.576 219.288 179.778 215.075C189.121 210.797 200.306 219.736 201.885 229.889C203.464 240.042 198.387 250.001 192.61 258.501C186.833 267.001 180.043 275.201 177.458 285.143C173.658 299.774 180.342 316.094 192.376 325.243" stroke="#171717" stroke-width="3.33" stroke-linecap="round" stroke-linejoin="round"/>
<path d="M744.058 519.843C721.124 530.92 705.837 556.203 706.682 581.658C706.967 590.244 709.126 599.133 714.823 605.558C720.52 611.983 730.347 615.221 738.077 611.474C745.807 607.727 748.992 596.054 742.934 589.964C737.834 584.836 728.676 585.719 723.245 590.499C717.814 595.279 715.603 602.84 715.351 610.07C714.964 621.18 718.551 632.01 722.303 642.47C726.055 652.93 730.079 663.526 730.623 674.629C731.167 685.732 727.614 697.679 718.756 704.396C709.898 711.113 695.283 710.318 689.256 700.98" stroke="#171717" stroke-width="3.33" stroke-linecap="round" stroke-linejoin="round"/>
<path d="M820.884 488.892L809.131 468.912" stroke="#171717" stroke-width="3.33" stroke-linecap="round" stroke-linejoin="round"/>
<path d="M803.34 486.653L819.919 473.888" stroke="#171717" stroke-width="3.33" stroke-linecap="round" stroke-linejoin="round"/>
<path d="M825.193 345.476C825.211 342.769 825.895 340.108 827.184 337.728C828.474 335.348 830.33 333.323 832.588 331.83C834.846 330.338 837.437 329.424 840.132 329.17C842.827 328.916 845.543 329.33 848.04 330.375C850.537 331.419 852.739 333.063 854.45 335.16C856.161 337.257 857.33 339.744 857.853 342.399C858.375 345.055 858.236 347.799 857.447 350.388C856.658 352.978 855.243 355.333 853.328 357.246C848.336 362.232 840.828 363.493 834.592 366.801C828.356 370.109 823.058 378.077 827.011 383.921L827.911 380.743" stroke="#171717" stroke-width="3.33" stroke-linecap="round" stroke-linejoin="round"/>
<path d="M821.801 405.393L822.832 400.661" stroke="#171717" stroke-width="3.33" stroke-linecap="round" stroke-linejoin="round"/>
<path d="M746.174 54.1415C746.598 51.437 747.689 48.8806 749.347 46.703C751.006 44.5253 753.181 42.7949 755.676 41.6677C758.171 40.5406 760.907 40.0523 763.637 40.2467C766.368 40.4412 769.007 41.3124 771.317 42.7817C773.627 44.251 775.534 46.2722 776.868 48.663C778.201 51.0538 778.919 53.7389 778.955 56.4762C778.992 59.2135 778.346 61.9168 777.077 64.3423C775.808 66.7677 773.955 68.8391 771.685 70.3695C767.603 73.1205 762.526 73.9125 758.095 76.0585C753.664 78.2045 749.58 82.7765 750.772 87.5525L752.599 85.6635" stroke="#171717" stroke-width="3.33" stroke-linecap="round" stroke-linejoin="round"/>
<path d="M749.006 110.435L750.1 102.2" stroke="#171717" stroke-width="3.33" stroke-linecap="round" stroke-linejoin="round"/>
<path d="M607.975 57.7L599.801 45.916" stroke="#171717" stroke-width="3.33" stroke-linecap="round" stroke-linejoin="round"/>
<path d="M594.061 56.4003L606.988 45.8203" stroke="#171717" stroke-width="3.33" stroke-linecap="round" stroke-linejoin="round"/>
<path d="M360.184 75.2004L350.784 68.1484" stroke="#171717" stroke-width="3.33" stroke-linecap="round" stroke-linejoin="round"/>
<path d="M348.17 78.552L357.65 64.5" stroke="#171717" stroke-width="3.33" stroke-linecap="round" stroke-linejoin="round"/>
<path d="M243 258.182C236.851 248.415 232.817 237.468 231.158 226.047" stroke="#171717" stroke-width="3.33" stroke-linecap="round" stroke-linejoin="round"/>
<path d="M251.849 75.3057C250.502 72.1609 250.299 68.6434 251.277 65.3648C252.255 62.0862 254.35 59.2539 257.2 57.3607C259.282 55.9623 261.817 55.4045 264.294 55.7997C269.015 56.7687 271.686 62.0507 271.832 66.8677C271.978 71.6847 270.332 76.3607 269.716 81.1397C269.1 85.9187 269.821 91.3957 273.579 94.4127L272.824 94.0067" stroke="#171717" stroke-width="3.33" stroke-linecap="round" stroke-linejoin="round"/>
<path d="M283.401 108.501L280.267 103.801" stroke="#171717" stroke-width="3.33" stroke-linecap="round" stroke-linejoin="round"/>
<path d="M112.175 333.301C109.13 331.536 106.649 328.942 105.023 325.82C103.397 322.699 102.693 319.179 102.993 315.672C103.793 308.704 109.519 302.472 116.467 301.508C123.415 300.544 130.824 305.308 132.44 312.131C134.003 318.739 130.51 325.85 132.432 332.363C134.3 338.69 140.604 342.463 146.395 345.626" stroke="#171717" stroke-width="3.33" stroke-linecap="round" stroke-linejoin="round"/>
<path d="M160.39 355.301L156.865 352.559" stroke="#171717" stroke-width="3.33" stroke-linecap="round" stroke-linejoin="round"/>
<path d="M374.807 478.786C357.502 471.103 343.324 457.764 334.601 440.96" stroke="#171717" stroke-width="3.33" stroke-linecap="round" stroke-linejoin="round"/>
<path d="M346.258 476.707L337.899 468.873" stroke="#171717" stroke-width="3.33" stroke-linecap="round" stroke-linejoin="round"/>
<path d="M255.324 523.683C249.924 519.83 249.153 511.164 253.39 506.065C257.627 500.966 265.776 499.95 271.448 503.383C277.12 506.816 280.014 514.034 278.875 520.565C277.884 526.249 274.264 531.21 273.257 536.891C272.714 540.195 273.064 543.585 274.271 546.708C275.478 549.832 277.497 552.576 280.12 554.657" stroke="#171717" stroke-width="3.33" stroke-linecap="round" stroke-linejoin="round"/>
<path d="M294.109 573.772L290.975 569.594" stroke="#171717" stroke-width="3.33" stroke-linecap="round" stroke-linejoin="round"/>
<path d="M186.926 551.487L172.414 542.937" stroke="#171717" stroke-width="3.33" stroke-linecap="round" stroke-linejoin="round"/>
<path d="M175.017 554.968L182.329 541.388" stroke="#171717" stroke-width="3.33" stroke-linecap="round" stroke-linejoin="round"/>
<path d="M767.335 654.71L779.875 649.496" stroke="#171717" stroke-width="3.33" stroke-linecap="round" stroke-linejoin="round"/>
<path d="M776.224 657.346C773.601 654.178 771.806 650.409 771 646.377" stroke="#171717" stroke-width="3.33" stroke-linecap="round" stroke-linejoin="round"/>
<path d="M689.413 635.006L682.65 629.229" stroke="#171717" stroke-width="3.33" stroke-linecap="round" stroke-linejoin="round"/>
<path d="M680.71 638.581C683.142 634.19 686.677 630.508 690.967 627.9" stroke="#171717" stroke-width="3.33" stroke-linecap="round" stroke-linejoin="round"/>
<path d="M542.74 375.806L540.128 368.493" stroke="#171717" stroke-width="3.33" stroke-linecap="round" stroke-linejoin="round"/>
<path d="M525.576 381.529L523.558 375.238" stroke="#171717" stroke-width="3.33" stroke-linecap="round" stroke-linejoin="round"/>
<path d="M508.267 387.301C506.944 385.28 506.22 382.926 506.178 380.511" stroke="#171717" stroke-width="3.33" stroke-linecap="round" stroke-linejoin="round"/>
<path d="M488.725 393.638L486.802 387.838" stroke="#171717" stroke-width="3.33" stroke-linecap="round" stroke-linejoin="round"/>
<path d="M315.817 296.64C316.799 295.807 317.979 295.242 319.243 294.998C320.507 294.755 321.812 294.842 323.033 295.25C324.254 295.659 325.349 296.375 326.212 297.33C327.075 298.285 327.677 299.447 327.959 300.703C328.759 304.249 326.924 307.886 327.144 311.514C327.377 313.959 328.504 316.232 330.309 317.897C332.114 319.562 334.471 320.501 336.926 320.536" stroke="#171717" stroke-width="3.33" stroke-linecap="round" stroke-linejoin="round"/>
<path d="M338.284 387.189C338.83 386.106 339.65 385.184 340.662 384.517C341.675 383.849 342.845 383.459 344.056 383.385C345.266 383.311 346.475 383.555 347.562 384.094C348.648 384.633 349.574 385.447 350.248 386.456C353.097 390.721 350.675 396.956 353.389 401.308C354.446 402.869 356.058 403.969 357.897 404.384C359.736 404.799 361.664 404.499 363.289 403.544" stroke="#171717" stroke-width="3.33" stroke-linecap="round" stroke-linejoin="round"/>
<path d="M300.112 342.789C300.445 341.913 301.012 341.145 301.753 340.57C302.493 339.995 303.378 339.635 304.309 339.53C305.24 339.425 306.183 339.579 307.033 339.974C307.883 340.37 308.607 340.992 309.126 341.772C309.985 343.342 310.399 345.116 310.326 346.904C310.251 348.689 310.584 350.468 311.301 352.104C312.152 353.667 314.089 354.804 315.735 354.124" stroke="#171717" stroke-width="3.33" stroke-linecap="round" stroke-linejoin="round"/>
<path d="M405.248 424.573C406.925 420.891 412.677 420.017 415.372 423.035C417.01 424.87 417.389 427.471 417.724 429.908C418.059 432.345 418.507 434.951 420.224 436.708C421.941 438.465 425.391 438.683 426.568 436.523" stroke="#171717" stroke-width="3.33" stroke-linecap="round" stroke-linejoin="round"/>
<path d="M488.578 417.106C488.81 416.305 489.279 415.593 489.924 415.064C490.569 414.535 491.358 414.214 492.189 414.143C493.02 414.072 493.853 414.254 494.578 414.666C495.303 415.077 495.886 415.699 496.251 416.449C497.317 418.638 496.525 421.794 498.506 423.209C500.163 424.393 502.479 423.342 504.058 422.056C505.637 420.77 507.27 419.156 509.306 419.223" stroke="#171717" stroke-width="3.33" stroke-linecap="round" stroke-linejoin="round"/>
<path d="M656.782 512.083L657.234 513.72C656.925 512.688 656.341 511.759 655.545 511.033C654.749 510.307 653.771 509.811 652.716 509.597C651.66 509.383 650.566 509.46 649.55 509.819C648.534 510.178 647.635 510.806 646.948 511.636C644.775 514.261 645.232 518.169 646.365 521.384C647.498 524.599 649.205 527.736 649.186 531.144C649.167 534.552 646.458 538.286 643.086 537.765L642.564 536.149" stroke="#171717" stroke-width="3.33" stroke-linecap="round" stroke-linejoin="round"/>
<path d="M596.13 524.6C593.772 522.634 589.909 523.557 587.955 525.925C586.001 528.293 585.621 531.61 585.955 534.662C586.289 537.714 587.238 540.668 587.632 543.712C588.026 546.756 587.787 550.064 585.981 552.546C583.292 556.246 577.669 556.934 573.599 554.852" stroke="#171717" stroke-width="3.33" stroke-linecap="round" stroke-linejoin="round"/>
<path d="M616.037 602.405C616.508 599.155 613.437 596.111 610.167 595.885C606.897 595.659 603.775 597.695 601.889 600.385C600.412 602.492 599.56 604.961 598.432 607.274C597.304 609.587 595.78 611.86 593.479 613.012C591.178 614.164 587.961 613.793 586.57 611.628" stroke="#171717" stroke-width="3.33" stroke-linecap="round" stroke-linejoin="round"/>
<path d="M543.644 598.839C543.928 597.029 543.758 595.176 543.148 593.448C542.539 591.72 541.509 590.171 540.151 588.94C538.794 587.709 537.151 586.835 535.372 586.397C533.593 585.959 531.732 585.971 529.959 586.431C526.883 587.231 524.316 589.295 521.887 591.343C519.458 593.391 516.972 595.525 513.95 596.507C510.928 597.489 507.188 597.018 505.224 594.521" stroke="#171717" stroke-width="3.33" stroke-linecap="round" stroke-linejoin="round"/>
<path fill-rule="evenodd" clip-rule="evenodd" d="M519.469 287.181C519.691 287.237 519.924 287.281 520.157 287.325L519.863 288.672C525.151 312.006 531.207 335.134 538.033 358.056L538.289 358.866C543.02 357.379 548.889 356.413 551.889 360.243C552.729 361.317 553.18 362.61 553.634 363.907C553.995 364.943 554.358 365.981 554.919 366.914C556.806 370.044 560.724 371.476 564.387 371.376C568.05 371.276 571.532 369.9 574.932 368.545L577.332 369.311C593.882 347.167 604.915 323.115 603.905 298.873L602.317 298.928C590.208 299.395 578.642 292.988 570.195 284.31C561.748 275.632 555.91 264.81 550.216 254.11L550.196 254.071C544.508 243.383 538.74 232.544 530.392 223.797C519.41 212.473 504.913 205.207 489.268 203.185C473.643 201.249 457.8 204.183 443.903 211.585C432.648 217.546 422.603 226.581 417.708 238.336C412.857 249.957 413.434 263.265 416.808 275.397C420.182 287.529 426.209 298.729 432.192 309.806L430.549 310.494C429.939 340.719 449.585 370.343 477.667 381.543L478.111 382.154C481.275 377.891 487.002 375.727 492.23 374.006C497.036 372.422 501.842 370.843 506.649 369.267L505.927 367.067C507.359 357.127 501.154 347.509 493.473 341.027C489.331 337.531 484.73 334.652 480.127 331.771C476.195 329.31 472.261 326.849 468.61 324.001C448.942 308.648 439.107 281.709 444.257 257.301L444.446 257.09C460.996 271.93 484.494 278.89 506.427 275.06C507.422 278.005 509.135 280.656 511.412 282.773C513.69 284.889 516.459 286.404 519.469 287.181ZM519.676 227.161C508.587 216.956 493.511 209.612 478.187 211.473C477.274 211.584 476.624 212.414 476.735 213.327C476.846 214.24 477.676 214.89 478.588 214.779C492.61 213.076 506.758 219.798 517.421 229.611C527.219 238.628 534.515 249.953 541.886 261.393L541.898 261.411C542.561 262.44 543.225 263.47 543.891 264.5C551.918 276.903 560.649 289.578 572.798 298.578C573.537 299.125 574.579 298.97 575.127 298.231C575.674 297.492 575.519 296.45 574.78 295.902C563.17 287.302 554.722 275.107 546.687 262.691C546.01 261.644 545.333 260.594 544.654 259.54C537.329 248.165 529.805 236.483 519.676 227.161Z" fill="#171717"/>
<path fill-rule="evenodd" clip-rule="evenodd" d="M474.301 572.108C474.081 568.745 474.214 565.293 476.101 562.584C478.212 559.576 482.001 558.278 485.586 557.438C494.107 555.437 502.866 554.977 511.624 554.518C514.833 554.35 518.041 554.182 521.238 553.938C530.54 553.216 540.052 551.762 548.521 547.999L548.1 546.234C549.783 538.509 551.77 532.438 554.1 528.852C557.73 523.28 563.236 518.485 570.217 514.112C583.415 505.842 601.863 499.075 622.716 491.426C637.378 486.048 653.229 480.234 669.281 473.154C672.372 471.789 675.364 470.402 678.272 468.97V468.959C729.763 443.663 754.971 406.668 765.648 341.002C780.918 246.988 676.918 102.36 505.318 94.1352C402.946 89.2292 340.111 162.5 306.064 222.415L304.332 222.515C305.329 222.917 306.168 223.634 306.719 224.557C307.569 226.196 307.971 228.03 307.884 229.874C307.994 238.412 305.399 246.766 300.47 253.738L300.57 254.004C307.2 251.641 313.923 249.599 320.738 247.877L322.225 249.442C336.902 285.038 354.76 319.238 375.581 351.626C378.189 355.688 380.876 359.735 383.662 363.735L384.494 363.158C397.143 345.414 395.094 322.615 392.964 298.925C390.71 273.846 388.365 247.769 403.275 225.634C454.433 149.69 538.601 200.349 581.191 247.444C596.408 264.269 603.201 281.62 603.901 298.869C604.911 323.107 593.878 347.163 577.328 369.307C533.751 427.647 451.858 472.734 450.603 473.2V473.211C447.324 475.6 444.254 478.263 441.424 481.169C414.106 509.074 406.016 559.477 405.306 603.587L408.614 603.654C408.693 602.556 409.061 601.498 409.681 600.588C410.301 599.677 411.15 598.947 412.143 598.47C414.319 597.327 416.849 597.161 419.303 597.016C421.223 596.905 423.143 596.794 425.074 596.672C423.198 596.539 421.323 596.339 419.447 596.072C415.667 595.539 411.089 593.974 410.567 590.189C410.234 587.758 411.921 585.405 414.052 584.195C416.268 583.121 418.675 582.499 421.134 582.364C432.063 581.041 442.989 579.713 453.911 578.379C450.832 570.932 450.642 562.605 453.378 555.025C459.834 560.753 466.287 566.48 472.736 572.208L474.301 572.108ZM668.573 172.135C667.769 171.688 666.755 171.977 666.308 172.78C665.861 173.583 666.149 174.597 666.953 175.045C715.644 202.152 748.097 256.336 749.008 312.06C749.919 367.784 719.258 423 671.476 451.685C670.687 452.159 670.432 453.181 670.905 453.97C671.378 454.758 672.401 455.014 673.19 454.54C721.991 425.243 753.268 368.918 752.337 312.006C751.407 255.093 718.302 199.821 668.573 172.135Z" fill="#171717"/>
<path fill-rule="evenodd" clip-rule="evenodd" d="M538.416 857.146C538.416 891.978 510.18 920.214 475.348 920.214C440.517 920.214 412.28 891.978 412.28 857.146C412.28 822.315 440.517 794.078 475.348 794.078C510.18 794.078 538.416 822.315 538.416 857.146ZM486.788 806.629C485.894 806.415 484.995 806.966 484.781 807.86C484.567 808.755 485.118 809.653 486.013 809.867C493.496 811.659 500.442 815.217 506.27 820.243C512.097 825.268 516.637 831.616 519.509 838.756C522.381 845.895 523.502 853.618 522.779 861.279C522.055 868.94 519.508 876.317 515.35 882.792C514.853 883.566 515.078 884.596 515.852 885.093C516.626 885.59 517.656 885.365 518.152 884.592C522.597 877.669 525.321 869.783 526.094 861.592C526.868 853.402 525.669 845.145 522.598 837.513C519.528 829.88 514.675 823.094 508.445 817.721C502.215 812.348 494.789 808.545 486.788 806.629Z" fill="#171717"/>
<g opacity="0.1">
<path d="M264.929 271.673C263.863 276.935 262.439 281.516 262.748 286.948C263.158 292.63 263.916 298.282 265.018 303.871C266.799 313.791 269.639 323.492 273.49 332.805C280.801 349.965 290.001 366.255 300.921 381.376C334.661 428.998 382.204 465.116 437.128 484.852C447.479 488.611 452.128 471.887 441.689 468.309C376.7 446.03 322.358 396.119 292.437 334.52C290.374 330.274 288.337 326.009 286.422 321.695C284.408 317.161 281.703 313.003 279.822 308.412C277.408 302.737 275.374 296.907 273.733 290.961C273.04 288.309 272.528 285.641 272.044 282.946C271.399 279.359 270.054 275.986 269.81 272.333C269.634 269.702 265.519 268.765 264.93 271.673H264.929Z" fill="#171717"/>
</g>
<g opacity="0.1">
<path d="M441.87 263.328C441.188 270.95 447.338 275.063 452.95 278.92C459.263 283.26 466.036 285.152 473.594 286.246C481.7 287.42 489.885 287.401 498.004 288.386C501.796 288.821 505.538 289.62 509.176 290.772C513.035 292.023 516.336 293.649 520.465 293.994C525.53 294.418 528.934 287.929 526.293 283.837C518.247 271.373 496.842 272.186 483.793 271.306C476.576 270.896 469.421 269.745 462.439 267.872C456.417 266.216 452.127 261.648 446.139 260.072C445.639 259.944 445.116 259.932 444.61 260.035C444.104 260.138 443.627 260.354 443.216 260.667C442.806 260.98 442.471 261.382 442.237 261.842C442.003 262.303 441.876 262.81 441.866 263.327L441.87 263.328Z" fill="#171717"/>
</g>
<g opacity="0.1">
<path d="M479.754 383.176C476.985 385.502 475.464 389.776 473.954 392.993C472.105 396.94 472.105 401.375 472.83 405.593C474.103 412.993 486.251 411.266 485.905 403.823C485.761 400.718 485.631 397.605 485.337 394.512C485.065 391.64 486.592 389.004 486.951 386.162C487.458 382.151 482.193 381.127 479.751 383.179L479.754 383.176Z" fill="#171717"/>
</g>
</g>
<defs>
<linearGradient id="paint0_linear_317_821" x1="417.981" y1="247.873" x2="417.981" y2="481.169" gradientUnits="userSpaceOnUse">
<stop stop-color="#FFB800"/>
<stop offset="1" stop-color="#FF7F0A"/>
</linearGradient>
<linearGradient id="paint1_linear_317_821" x1="577.392" y1="468.967" x2="577.392" y2="646.204" gradientUnits="userSpaceOnUse">
<stop stop-color="#FFB800"/>
<stop offset="1" stop-color="#FF7F0A"/>
</linearGradient>
<clipPath id="clip0_317_821">
<rect width="759" height="884" fill="white" transform="translate(101 38)"/>
</clipPath>
</defs>
</svg>
