<?xml version="1.0" standalone="no"?>
<!DOCTYPE svg PUBLIC "-//W3C//DTD SVG 20010904//EN"
 "http://www.w3.org/TR/2001/REC-SVG-20010904/DTD/svg10.dtd">
<svg version="1.0" xmlns="http://www.w3.org/2000/svg"
 width="1454.000000pt" height="1468.000000pt" viewBox="0 0 1454.000000 1468.000000"
 preserveAspectRatio="xMidYMid meet">

<g transform="translate(0.000000,1468.000000) scale(0.100000,-0.100000)"
fill="#000000" stroke="none">
<path d="M6940 12830 c-8 -5 -40 -10 -70 -10 -31 0 -60 -4 -65 -9 -6 -5 -32
-12 -60 -14 -27 -3 -75 -11 -105 -17 -30 -6 -72 -14 -93 -17 -20 -3 -40 -9
-43 -14 -3 -5 -20 -9 -39 -9 -19 0 -37 -4 -40 -10 -3 -5 -17 -10 -31 -10 -14
0 -44 -9 -66 -20 -23 -11 -48 -20 -55 -20 -7 0 -21 -4 -31 -9 -9 -6 -45 -20
-79 -33 -35 -13 -63 -26 -63 -30 0 -5 -9 -8 -20 -8 -11 0 -20 -4 -20 -10 0 -5
-6 -10 -14 -10 -17 0 -100 -42 -104 -52 -2 -5 -12 -8 -23 -8 -10 0 -19 -3 -19
-8 0 -4 -17 -15 -37 -24 -38 -17 -94 -49 -103 -58 -5 -5 -25 -17 -75 -44 -11
-6 -27 -19 -36 -28 -9 -10 -23 -18 -30 -18 -8 0 -21 -9 -29 -20 -8 -11 -19
-20 -25 -20 -6 0 -31 -18 -55 -40 -24 -22 -48 -40 -52 -40 -5 0 -24 -15 -43
-34 -18 -19 -51 -47 -71 -62 -21 -16 -92 -82 -157 -147 -85 -85 -123 -115
-130 -108 -6 6 -21 11 -34 11 -13 0 -23 5 -23 10 0 6 -7 10 -15 10 -8 0 -23 4
-33 9 -9 5 -30 14 -47 21 -16 7 -38 16 -47 21 -10 5 -27 9 -38 9 -11 0 -20 5
-20 10 0 6 -7 10 -15 10 -8 0 -24 5 -35 10 -11 6 -29 15 -40 20 -11 6 -31 10
-45 10 -14 0 -25 5 -25 10 0 6 -13 10 -28 10 -15 0 -32 4 -38 9 -5 5 -34 12
-64 15 -96 9 -144 17 -165 26 -11 5 -42 12 -70 15 -27 3 -93 10 -145 17 -179
21 -419 13 -630 -22 -36 -6 -85 -13 -110 -16 -25 -3 -49 -10 -55 -15 -5 -5
-24 -9 -41 -9 -18 0 -36 -4 -39 -10 -3 -5 -19 -10 -35 -10 -16 0 -32 -4 -35
-10 -3 -5 -19 -10 -36 -10 -16 0 -29 -4 -29 -10 0 -5 -13 -10 -30 -10 -16 0
-30 -4 -30 -8 0 -5 -23 -15 -50 -22 -28 -7 -50 -17 -50 -22 0 -4 -9 -8 -20 -8
-11 0 -29 -4 -40 -10 -11 -6 -29 -15 -40 -20 -11 -6 -29 -10 -40 -10 -11 0
-20 -4 -20 -10 0 -5 -7 -10 -15 -10 -8 0 -23 -4 -33 -9 -9 -5 -28 -13 -42 -18
-44 -18 -84 -35 -102 -44 -10 -5 -25 -9 -33 -9 -8 0 -15 -4 -15 -10 0 -5 -9
-10 -20 -10 -11 0 -20 -4 -20 -10 0 -5 -6 -10 -12 -10 -16 0 -182 -82 -186
-92 -2 -5 -12 -8 -23 -8 -10 0 -19 -4 -19 -8 0 -4 -22 -19 -50 -33 -27 -13
-50 -27 -50 -31 0 -5 -6 -8 -13 -8 -7 0 -22 -8 -33 -17 -10 -10 -31 -24 -46
-32 -16 -8 -28 -18 -28 -23 0 -4 -9 -8 -20 -8 -11 0 -20 -3 -20 -8 0 -4 -18
-18 -40 -32 -22 -14 -40 -28 -40 -32 0 -5 -6 -8 -12 -8 -7 0 -29 -14 -48 -30
-19 -16 -39 -30 -43 -30 -5 0 -22 -13 -37 -30 -15 -16 -32 -30 -37 -30 -5 0
-26 -16 -47 -35 -21 -19 -42 -35 -47 -35 -5 0 -23 -15 -41 -32 -18 -18 -50
-46 -71 -62 -21 -15 -53 -42 -70 -60 -18 -17 -49 -43 -69 -59 -50 -37 -456
-443 -538 -537 -36 -41 -81 -91 -100 -110 -19 -19 -55 -60 -80 -90 -25 -30
-61 -71 -80 -90 -20 -19 -47 -51 -60 -70 -14 -19 -34 -45 -46 -57 -12 -11 -40
-56 -64 -100 -46 -83 -82 -139 -184 -286 -35 -51 -86 -129 -115 -174 l-51 -83
66 0 c74 0 104 -12 104 -40 0 -11 7 -20 15 -20 8 0 15 -4 15 -10 0 -5 6 -10
14 -10 17 0 95 -40 114 -57 7 -7 17 -13 21 -13 5 0 24 -13 42 -30 19 -16 37
-30 42 -30 10 0 177 -170 177 -180 0 -4 20 -30 45 -56 25 -27 45 -55 45 -61 0
-7 4 -13 8 -13 5 0 15 -12 23 -27 8 -16 21 -35 29 -43 8 -8 21 -27 29 -42 8
-16 18 -28 23 -28 4 0 8 -9 8 -20 0 -11 4 -20 8 -20 5 0 15 -12 23 -27 8 -16
22 -37 32 -47 9 -11 17 -26 17 -33 0 -7 4 -13 9 -13 5 0 14 -13 21 -30 7 -16
16 -30 21 -30 5 0 9 -6 9 -13 0 -7 8 -22 18 -33 9 -10 23 -31 31 -46 8 -16 18
-28 23 -28 4 0 8 -7 8 -15 0 -9 9 -25 20 -37 11 -12 20 -28 20 -35 0 -7 4 -13
8 -13 4 0 16 -14 26 -32 22 -36 192 -208 207 -208 5 0 21 -11 34 -24 13 -14
34 -27 45 -31 11 -3 20 -11 20 -16 0 -5 6 -9 13 -9 7 0 23 -9 35 -20 12 -11
28 -20 37 -20 8 0 15 -4 15 -10 0 -5 9 -10 20 -10 11 0 20 -4 20 -10 0 -5 9
-10 19 -10 11 0 21 -3 23 -7 8 -20 242 -133 273 -133 14 0 25 -4 25 -10 0 -5
6 -10 13 -10 18 0 67 -24 67 -32 0 -5 9 -8 20 -8 11 0 20 -4 20 -10 0 -5 9
-10 20 -10 11 0 20 -4 20 -8 0 -5 12 -15 27 -23 16 -8 37 -22 47 -31 11 -10
24 -18 29 -18 5 0 17 -8 26 -18 9 -9 34 -30 55 -46 22 -17 94 -84 160 -150 67
-67 137 -132 156 -146 19 -14 48 -37 64 -52 16 -16 35 -28 42 -28 7 0 14 -3
16 -7 4 -10 57 -42 80 -50 10 -3 18 -9 18 -14 0 -5 9 -9 20 -9 11 0 20 -4 20
-10 0 -5 9 -10 20 -10 11 0 20 -4 20 -10 0 -5 9 -10 20 -10 11 0 20 -4 20 -10
0 -5 9 -10 20 -10 11 0 20 -4 20 -10 0 -5 9 -10 19 -10 11 0 23 -4 26 -10 3
-5 19 -10 35 -10 16 0 32 -4 35 -10 3 -5 28 -10 56 -10 28 0 49 -5 49 -11 0
-13 227 -6 310 10 187 35 210 41 210 52 0 13 58 11 66 -2 3 -6 11 -124 16
-262 14 -357 37 -695 58 -842 6 -44 16 -111 21 -150 5 -38 14 -100 19 -137 10
-70 23 -160 40 -283 5 -38 12 -97 16 -130 3 -33 9 -69 14 -80 5 -11 12 -42 15
-70 12 -105 17 -135 25 -135 4 0 10 -19 13 -42 3 -24 10 -62 16 -85 26 -101
30 -120 36 -148 4 -16 10 -39 15 -50 5 -11 11 -36 15 -55 3 -19 10 -57 16 -85
5 -27 12 -66 15 -85 3 -19 9 -44 14 -55 8 -20 12 -44 31 -195 35 -278 37 -349
19 -615 -10 -157 -22 -259 -40 -360 -6 -33 -13 -80 -16 -105 -3 -25 -9 -54
-13 -65 -11 -26 -29 -92 -35 -130 -15 -85 -18 -102 -26 -120 -20 -47 -43 -203
-42 -290 1 -79 12 -155 23 -155 5 0 9 -9 9 -20 0 -11 5 -20 10 -20 6 0 10 -7
10 -16 0 -18 109 -124 127 -124 7 0 13 -4 13 -8 0 -4 32 -13 70 -20 89 -15
750 -17 750 -2 0 6 18 10 39 10 22 0 43 -4 46 -10 4 -6 129 -10 343 -10 277 0
344 3 377 16 22 8 48 17 58 21 9 3 17 9 17 14 0 5 7 9 16 9 19 0 84 68 84 87
0 7 5 13 10 13 6 0 10 9 10 19 0 11 5 23 10 26 24 15 9 208 -21 267 -5 10 -9
29 -9 42 0 13 -3 26 -8 28 -4 1 -17 35 -30 73 -13 39 -27 79 -31 90 -5 11 -18
54 -31 95 -12 41 -26 89 -31 106 -5 17 -9 44 -9 62 0 17 -4 34 -10 37 -5 3
-10 21 -10 39 0 17 -4 36 -9 42 -5 5 -12 36 -15 69 -4 33 -11 101 -17 150 -16
127 -16 875 -1 995 18 136 31 238 41 327 15 121 21 145 38 139 8 -3 17 -6 19
-6 2 0 4 -6 4 -14 0 -16 61 -80 115 -122 22 -16 62 -51 91 -79 57 -56 54 -44
73 -295 4 -52 10 -102 14 -110 4 -8 9 -76 12 -150 14 -351 18 -410 25 -410 4
0 11 -46 14 -102 4 -57 11 -159 16 -228 6 -69 14 -217 19 -330 5 -113 11 -223
15 -245 3 -22 8 -72 10 -110 3 -39 8 -81 13 -95 5 -14 8 -65 7 -115 -1 -49 2
-103 7 -120 8 -31 29 -264 34 -390 3 -67 12 -132 35 -255 6 -30 13 -70 17 -88
3 -18 9 -35 14 -38 5 -3 9 -16 9 -29 0 -13 5 -27 10 -30 6 -3 10 -13 10 -21 0
-8 9 -34 20 -56 11 -23 20 -48 20 -55 0 -7 5 -13 10 -13 6 0 10 -9 10 -20 0
-11 5 -20 10 -20 6 0 10 -9 10 -20 0 -11 5 -20 10 -20 6 0 10 -6 10 -12 0 -7
12 -26 26 -43 14 -16 32 -44 40 -61 8 -17 24 -41 34 -52 11 -12 20 -25 20 -30
0 -5 19 -29 43 -54 23 -25 60 -65 82 -89 51 -56 126 -119 143 -119 6 0 12 -4
12 -10 0 -5 9 -10 20 -10 11 0 20 -4 20 -10 0 -5 8 -10 18 -10 10 0 23 -5 30
-12 17 -17 277 -17 294 0 7 7 22 12 35 12 13 0 23 5 23 10 0 6 9 10 20 10 11
0 20 5 20 10 0 6 6 10 13 10 33 1 226 190 227 223 0 4 9 17 20 29 11 12 20 28
20 35 0 7 5 13 10 13 6 0 10 9 10 20 0 11 5 20 10 20 6 0 10 7 10 16 0 9 10
35 21 58 12 22 25 49 30 58 5 10 9 25 9 33 0 8 4 15 8 15 5 0 15 22 22 50 7
27 17 50 22 50 4 0 8 14 8 30 0 17 5 30 10 30 6 0 10 14 10 30 0 17 4 30 9 30
5 0 11 15 14 33 9 54 18 91 27 112 10 23 17 76 30 230 6 61 14 160 20 220 13
143 27 379 24 384 -2 2 -85 3 -186 3 -127 0 -168 3 -133 8 28 5 114 9 193 9
l142 1 2 33 c1 37 3 47 11 67 9 24 18 132 28 335 4 105 13 240 18 300 38 403
52 594 57 750 2 83 7 159 10 170 11 40 25 174 33 330 5 88 10 164 10 168 1 4
19 26 41 48 22 22 40 45 40 49 0 5 16 25 35 44 19 20 35 39 35 44 0 4 20 29
44 56 48 53 56 49 56 -24 0 -21 5 -42 10 -45 6 -3 10 -34 10 -69 0 -34 4 -66
9 -72 5 -5 12 -36 15 -69 3 -33 10 -89 16 -125 55 -326 55 -1125 0 -1340 -7
-25 -14 -67 -17 -95 -3 -27 -9 -54 -14 -59 -5 -6 -9 -27 -9 -47 0 -21 -4 -41
-10 -44 -5 -3 -10 -19 -10 -35 0 -16 -4 -32 -10 -35 -5 -3 -10 -15 -10 -26 0
-10 -4 -27 -9 -37 -16 -31 -29 -66 -42 -107 -6 -22 -15 -48 -20 -57 -5 -10 -9
-29 -9 -42 0 -14 -4 -28 -10 -31 -5 -3 -10 -17 -10 -30 0 -13 -4 -27 -10 -30
-14 -9 -12 -192 3 -234 6 -20 20 -45 30 -55 9 -11 17 -24 17 -29 0 -18 108
-97 134 -97 8 0 18 -4 21 -10 4 -6 140 -10 376 -10 239 0 369 4 369 10 0 6 18
10 39 10 22 0 43 -4 46 -10 9 -15 647 -13 738 2 40 6 74 14 77 18 3 3 21 17
40 30 42 29 80 70 80 88 0 6 5 12 10 12 6 0 10 9 10 20 0 11 5 20 10 20 6 0
10 14 10 30 0 17 5 30 10 30 6 0 10 45 10 114 0 66 -4 117 -10 121 -5 3 -10
20 -10 37 0 18 -4 45 -9 62 -10 31 -24 87 -42 159 -17 71 -33 122 -40 132 -3
6 -9 26 -12 45 -4 19 -11 60 -17 90 -52 262 -69 643 -41 930 6 69 14 157 17
195 2 39 9 79 14 90 8 19 14 51 26 158 3 26 10 47 15 47 5 0 9 18 9 39 0 22 4
42 9 45 8 6 12 24 27 129 3 23 10 46 15 51 5 6 9 29 9 52 0 24 5 46 10 49 6 3
10 28 10 54 0 26 4 51 9 57 5 5 12 36 15 69 3 33 10 94 16 135 6 41 15 111 20
155 9 76 16 127 40 305 50 370 73 673 96 1240 3 80 10 149 15 155 6 5 9 5 9
-3 0 -7 13 -12 30 -12 17 0 30 -4 30 -10 0 -5 14 -10 30 -10 17 0 30 -4 30 -9
0 -5 19 -12 43 -15 23 -3 71 -10 107 -17 94 -16 270 -22 294 -10 12 5 39 12
61 15 63 8 108 17 130 25 39 16 121 54 180 84 33 16 70 35 82 41 13 6 23 14
23 19 0 4 9 7 20 7 11 0 20 4 20 8 0 5 12 15 28 23 15 8 34 21 42 29 8 9 31
27 50 40 19 14 96 86 170 160 74 74 151 146 170 160 19 13 44 32 54 42 11 10
24 18 28 18 5 0 18 9 30 20 12 11 28 20 35 20 7 0 13 5 13 10 0 6 6 10 13 10
7 0 23 9 35 20 12 11 28 20 37 20 8 0 15 5 15 10 0 6 9 10 20 10 11 0 20 5 20
10 0 6 9 10 20 10 11 0 20 5 20 10 0 6 11 10 24 10 14 0 28 5 31 10 3 6 17 10
30 10 13 0 27 5 30 10 3 6 15 10 26 10 10 0 19 5 19 10 0 6 6 10 14 10 8 0 33
9 55 20 141 69 205 103 209 113 2 4 10 7 18 7 8 0 24 9 36 20 12 11 28 20 35
20 7 0 13 5 13 10 0 6 6 10 13 10 6 0 25 11 41 25 16 14 33 25 37 25 4 0 19
11 33 25 14 14 29 25 35 25 12 0 101 89 101 101 0 5 14 23 30 41 17 17 30 37
30 44 0 8 4 14 8 14 4 0 19 22 33 50 13 27 27 50 32 50 4 0 7 7 7 15 0 9 9 25
20 37 11 12 20 28 20 35 0 7 5 13 10 13 6 0 10 9 10 20 0 11 4 20 9 20 5 0 14
14 21 30 7 17 16 30 21 30 5 0 9 9 9 20 0 11 4 20 9 20 5 0 11 8 14 18 6 17
37 72 47 82 3 3 11 17 19 33 8 15 18 27 23 27 4 0 8 6 8 13 0 6 11 25 25 41
14 16 25 32 25 36 0 4 11 20 25 36 14 16 25 33 25 38 0 5 8 16 18 25 9 9 37
41 62 71 55 68 94 105 131 127 16 10 29 21 29 25 0 4 6 8 13 8 7 0 23 9 35 20
12 11 28 20 37 20 8 0 15 5 15 10 0 6 9 10 20 10 11 0 20 4 20 8 0 4 21 14 48
21 56 16 120 51 146 80 18 20 18 21 -14 78 -39 68 -145 220 -224 318 -31 39
-70 97 -88 130 -17 33 -43 71 -58 85 -14 14 -37 41 -50 60 -13 19 -44 54 -67
79 -24 24 -43 48 -43 53 0 4 -24 31 -52 60 -29 30 -73 78 -98 108 -59 72 -561
573 -625 625 -28 22 -61 51 -75 65 -14 14 -41 37 -60 50 -19 14 -53 42 -75 62
-22 21 -43 38 -48 38 -4 0 -21 14 -39 30 -17 17 -35 30 -40 30 -4 0 -22 14
-40 30 -17 17 -35 30 -41 30 -5 0 -17 8 -26 18 -9 9 -28 23 -43 31 -16 8 -28
18 -28 23 0 4 -6 8 -13 8 -7 0 -22 8 -33 18 -10 9 -31 23 -46 31 -16 8 -28 18
-28 23 0 4 -9 8 -19 8 -11 0 -21 3 -23 8 -4 9 -57 41 -80 49 -10 3 -18 9 -18
14 0 5 -9 9 -20 9 -11 0 -20 3 -20 8 0 4 -10 12 -23 18 -60 30 -194 96 -209
105 -10 5 -25 9 -33 9 -8 0 -15 5 -15 10 0 6 -7 10 -15 10 -8 0 -24 5 -35 10
-11 6 -29 15 -40 20 -11 6 -27 10 -35 10 -8 0 -15 4 -15 8 0 5 -22 15 -50 22
-27 7 -50 16 -50 20 0 4 -22 13 -50 20 -27 7 -50 16 -50 20 0 4 -22 13 -50 20
-27 7 -50 16 -50 20 0 4 -22 13 -50 20 -27 7 -50 17 -50 22 0 4 -11 8 -24 8
-14 0 -28 5 -31 10 -3 6 -19 10 -36 10 -16 0 -29 5 -29 10 0 6 -11 10 -24 10
-14 0 -28 5 -31 10 -3 6 -19 10 -34 10 -15 0 -31 4 -36 9 -6 5 -30 12 -55 15
-25 3 -74 10 -110 16 -178 29 -240 34 -425 33 -110 0 -240 -5 -290 -12 -49 -6
-114 -14 -142 -17 -29 -3 -53 -10 -53 -15 0 -5 -20 -9 -44 -9 -25 0 -48 -4
-51 -10 -3 -5 -30 -10 -60 -10 -30 0 -57 -4 -60 -10 -3 -5 -19 -10 -36 -10
-16 0 -29 -4 -29 -10 0 -5 -13 -10 -30 -10 -16 0 -30 -4 -30 -10 0 -5 -13 -10
-30 -10 -16 0 -30 -4 -30 -10 0 -5 -9 -10 -20 -10 -11 0 -28 -4 -38 -9 -9 -5
-30 -14 -47 -21 -16 -7 -38 -16 -47 -21 -10 -5 -25 -9 -33 -9 -8 0 -15 -4 -15
-10 0 -5 -7 -10 -15 -10 -8 0 -30 -9 -50 -20 -20 -11 -42 -20 -50 -20 -9 0
-76 61 -150 135 -74 74 -139 135 -144 135 -5 0 -30 20 -57 45 -26 25 -52 45
-57 45 -5 0 -17 8 -26 18 -9 10 -32 29 -51 42 -19 14 -44 32 -54 42 -11 10
-26 18 -33 18 -7 0 -13 4 -13 8 0 5 -12 15 -27 23 -16 8 -37 22 -47 32 -11 9
-25 17 -32 17 -7 0 -14 3 -16 8 -4 9 -57 41 -80 49 -10 3 -18 9 -18 14 0 5 -9
9 -20 9 -11 0 -20 3 -20 8 0 4 -10 12 -23 18 -12 6 -69 35 -127 63 -58 29
-113 56 -122 61 -10 6 -25 10 -33 10 -8 0 -23 4 -33 9 -47 24 -131 51 -160 51
-11 0 -24 5 -27 10 -3 6 -22 10 -41 10 -19 0 -34 5 -34 10 0 6 -18 10 -39 10
-22 0 -43 5 -46 10 -3 6 -23 10 -44 10 -20 0 -41 4 -46 9 -6 5 -32 12 -60 15
-27 3 -84 10 -125 17 -101 14 -620 22 -640 9z m-5573 -3252 c6 -13 14 -31 17
-40 4 -13 16 -18 41 -18 41 0 47 -22 14 -51 -18 -15 -21 -26 -17 -64 5 -38 3
-45 -11 -45 -10 0 -27 9 -39 20 -19 18 -25 19 -44 8 -13 -7 -25 -16 -28 -19
-3 -3 -17 -9 -32 -13 -29 -7 -36 2 -17 21 19 19 14 72 -9 92 -33 28 -28 51 10
51 32 0 68 24 68 45 0 12 20 35 30 35 4 0 11 -10 17 -22z m719 8 c8 -8 14 -21
14 -28 0 -24 23 -38 62 -38 47 0 51 -23 8 -48 -23 -13 -30 -24 -30 -47 0 -17
5 -36 11 -42 7 -7 9 -19 5 -28 -5 -13 -10 -14 -28 -4 -12 6 -30 20 -41 30 -16
14 -24 15 -43 7 -13 -6 -24 -14 -24 -18 0 -4 -10 -10 -21 -13 -20 -5 -21 -3
-16 40 4 39 1 48 -19 66 -37 32 -32 57 12 57 36 0 64 18 64 42 0 13 19 38 28
38 2 0 10 -6 18 -14z m747 -26 c15 -36 21 -40 52 -40 27 0 35 -4 35 -18 0 -10
-9 -24 -20 -32 -16 -11 -20 -26 -20 -67 0 -56 -8 -64 -35 -37 -18 18 -74 22
-84 6 -3 -5 -16 -12 -28 -16 -21 -7 -22 -5 -16 43 5 47 4 52 -26 76 -17 15
-31 31 -31 35 0 5 21 10 47 12 42 3 48 6 66 41 10 20 24 37 31 37 6 0 19 -18
29 -40z m725 12 c4 -24 47 -52 82 -52 30 0 25 -28 -12 -62 -22 -19 -29 -31
-20 -35 6 -2 12 -18 12 -34 0 -22 -5 -29 -20 -29 -11 0 -20 5 -20 10 0 18 -74
10 -100 -10 -14 -11 -28 -20 -32 -20 -12 0 -10 48 2 55 17 10 11 55 -7 62 -25
10 -43 29 -43 47 0 10 13 16 43 18 37 3 44 7 62 41 22 41 48 46 53 9z m7537
-10 c16 -29 27 -38 53 -40 38 -4 42 -26 10 -53 -17 -15 -21 -29 -19 -69 1 -28
-2 -50 -6 -50 -5 0 -25 11 -46 26 l-37 25 -33 -23 c-17 -12 -33 -26 -35 -30
-2 -4 -8 -8 -13 -8 -12 0 -12 47 1 55 20 13 10 57 -20 85 -16 15 -30 31 -30
34 0 3 18 6 40 6 43 0 80 29 80 62 0 32 34 20 55 -20z m741 1 c18 -34 25 -38
62 -41 51 -4 55 -23 12 -49 -23 -13 -30 -24 -30 -50 0 -17 5 -35 10 -38 12 -8
13 -45 1 -45 -4 0 -21 10 -36 21 -34 27 -81 27 -104 0 -28 -32 -34 -25 -27 29
6 45 4 52 -19 72 -38 33 -33 58 11 58 35 0 64 18 64 40 0 12 21 39 31 40 3 0
14 -17 25 -37z m744 -3 c0 -21 28 -40 60 -40 28 0 31 -3 25 -22 -4 -13 -15
-29 -26 -37 -20 -14 -25 -46 -9 -56 16 -10 12 -45 -5 -45 -9 0 -25 9 -37 20
-23 21 -48 27 -48 10 0 -5 -5 -10 -11 -10 -6 0 -24 -9 -40 -21 l-29 -20 0 25
c0 15 5 35 12 45 10 17 7 24 -20 49 -45 42 -42 62 8 62 35 0 43 4 66 40 22 33
28 37 40 25 8 -7 14 -19 14 -25z m735 2 c17 -31 26 -37 58 -40 44 -4 46 -12
12 -46 -20 -20 -25 -35 -25 -76 0 -52 -8 -60 -34 -35 -8 8 -21 15 -29 15 -9 0
-17 6 -19 12 -3 9 -16 5 -41 -12 -20 -14 -37 -28 -37 -32 0 -5 -4 -8 -10 -8
-5 0 -10 11 -10 24 0 14 5 28 10 31 21 13 10 60 -20 84 -17 13 -30 27 -30 32
0 5 22 9 48 9 43 0 50 3 62 28 18 34 31 52 39 52 3 0 15 -17 26 -38z m-11561
-647 c10 -14 24 -25 30 -25 6 0 18 -4 26 -10 12 -7 11 -12 -8 -28 -15 -13 -22
-31 -22 -56 0 -35 -20 -50 -35 -26 -3 6 -17 10 -30 10 -13 0 -27 -4 -30 -10
-3 -5 -12 -10 -20 -10 -10 0 -12 9 -8 35 5 29 1 39 -17 55 -31 27 -20 50 25
50 28 0 35 4 35 20 0 28 31 25 54 -5z m710 13 c7 -7 15 -21 19 -30 4 -11 17
-18 32 -18 30 0 32 -11 5 -30 -14 -10 -20 -26 -20 -52 0 -31 -4 -38 -20 -38
-11 0 -20 5 -20 10 0 6 -13 10 -30 10 -16 0 -30 -4 -30 -10 0 -5 -4 -10 -10
-10 -5 0 -10 16 -10 36 0 25 -7 43 -21 55 -23 19 -17 41 9 38 28 -3 52 12 52
32 0 22 25 25 44 7z m729 -8 c7 -10 25 -24 40 -29 33 -13 34 -27 5 -58 -17
-18 -19 -26 -10 -35 7 -7 12 -18 12 -25 0 -15 -36 -18 -45 -3 -3 6 -17 10 -31
10 -13 0 -24 -4 -24 -10 0 -5 -9 -10 -20 -10 -17 0 -20 7 -20 40 0 22 -4 40
-9 40 -13 0 -21 27 -15 45 4 8 18 15 33 15 15 0 33 9 41 20 18 25 25 25 43 0z
m8287 4 c0 -23 25 -44 54 -44 31 0 33 -10 6 -30 -14 -10 -20 -26 -20 -52 0
-31 -4 -38 -20 -38 -11 0 -20 5 -20 10 0 6 -13 10 -30 10 -16 0 -30 -4 -30
-10 0 -5 -9 -10 -20 -10 -22 0 -26 20 -10 49 7 14 5 23 -10 36 -31 28 -26 55
10 55 19 0 34 7 42 20 15 24 48 27 48 4z m724 4 c7 -7 15 -21 19 -30 4 -11 17
-18 32 -18 30 0 32 -11 5 -35 -12 -11 -20 -31 -20 -52 0 -26 -4 -33 -20 -33
-11 0 -20 5 -20 10 0 6 -11 10 -24 10 -14 0 -28 -4 -31 -10 -3 -5 -15 -10 -26
-10 -10 0 -19 5 -19 10 0 6 5 10 10 10 18 0 11 46 -10 65 -24 21 -26 35 -5 35
28 0 65 24 65 42 0 21 25 24 44 6z m755 -19 c13 -16 30 -28 37 -25 24 9 27
-15 5 -38 -16 -17 -20 -30 -16 -49 8 -32 -10 -43 -42 -26 -19 10 -28 10 -43 1
-36 -22 -49 -15 -43 23 5 28 1 39 -17 55 -20 17 -21 21 -7 35 9 8 26 15 39 15
13 0 29 9 36 20 16 27 23 25 51 -11z m-1131 -596 c6 -15 12 -33 12 -40 0 -8
13 -13 36 -13 44 0 72 -23 52 -43 -7 -7 -21 -16 -32 -20 -19 -7 -19 -38 -1
-94 10 -30 -17 -31 -47 -3 -28 26 -52 25 -88 -2 -36 -27 -48 -18 -32 25 12 30
10 34 -23 65 -50 47 -45 60 25 72 28 4 39 13 55 43 11 20 22 37 25 37 3 0 11
-12 18 -27z m-9738 -18 c8 -19 19 -35 26 -35 25 0 64 -23 64 -38 0 -7 -9 -16
-20 -19 -17 -5 -20 -14 -20 -64 0 -66 -13 -75 -52 -39 -12 11 -31 20 -43 20
-11 0 -27 -9 -35 -20 -15 -21 -50 -28 -50 -10 0 6 5 10 10 10 6 0 10 20 10 45
0 25 -4 45 -8 45 -5 0 -20 9 -33 21 -27 24 -18 34 42 44 26 5 40 14 50 33 14
26 28 42 40 42 3 0 11 -16 19 -35z m1478 -5 c8 -17 20 -30 27 -30 22 0 65 -22
65 -33 0 -5 -11 -20 -25 -33 -22 -20 -24 -28 -19 -68 8 -52 -7 -61 -44 -26
-26 25 -40 25 -72 0 -33 -26 -60 -26 -60 0 0 11 5 20 10 20 18 0 12 70 -7 77
-10 4 -24 13 -31 20 -20 19 8 43 51 43 30 0 37 5 51 35 19 39 35 38 54 -5z
m7519 5 c9 -19 22 -35 28 -35 16 0 65 -24 65 -32 0 -9 -27 -35 -48 -47 -14 -8
-15 -14 -4 -43 6 -19 12 -40 12 -46 0 -19 -34 -14 -50 8 -8 11 -26 20 -41 20
-14 0 -34 -9 -44 -20 -10 -11 -24 -20 -32 -20 -16 0 -17 43 -2 71 8 17 5 25
-20 48 -47 44 -41 61 18 61 46 0 50 2 65 35 9 19 21 35 27 35 5 0 17 -16 26
-35z m-8257 -4 c10 -24 19 -30 48 -33 46 -4 56 -36 19 -61 -22 -14 -24 -21
-19 -66 5 -57 -10 -68 -43 -31 -10 11 -30 20 -44 20 -15 0 -33 -9 -41 -20 -15
-21 -50 -28 -50 -10 0 6 5 10 10 10 6 0 10 17 10 39 0 31 -6 43 -32 65 -31 25
-31 26 -12 41 10 8 33 15 50 15 25 0 34 6 44 30 16 39 44 39 60 1z m9750 11
c0 -25 19 -42 48 -42 13 0 30 -7 39 -15 13 -14 11 -19 -18 -46 -31 -28 -32
-32 -21 -63 7 -18 12 -38 12 -44 0 -19 -29 -14 -52 8 -23 21 -68 27 -68 10 0
-5 -9 -10 -19 -10 -11 0 -21 -6 -24 -12 -2 -7 -8 -10 -12 -6 -5 5 -2 26 5 48
13 39 13 40 -21 70 -39 34 -32 45 31 56 27 4 39 13 49 35 14 33 51 41 51 11z
m-6472 -1158 c81 -6 83 -7 89 -35 3 -16 9 -29 14 -29 5 0 9 -15 9 -34 0 -19 4
-37 9 -40 5 -3 11 -20 14 -38 3 -18 12 -60 20 -93 28 -110 39 -199 34 -270
-15 -184 -36 -287 -81 -388 -8 -18 -20 -47 -27 -64 -8 -18 -17 -33 -21 -33 -5
0 -8 -9 -8 -20 0 -11 -3 -20 -8 -20 -4 0 -18 -25 -31 -55 -13 -30 -37 -68 -52
-85 -16 -16 -29 -37 -29 -45 0 -8 -4 -15 -8 -15 -5 0 -15 -12 -23 -27 -8 -16
-21 -35 -29 -43 -9 -8 -26 -30 -39 -48 -25 -36 -142 -162 -205 -221 -21 -20
-59 -55 -84 -78 -25 -24 -50 -43 -56 -43 -7 0 -18 -9 -26 -20 -8 -11 -19 -20
-25 -20 -5 0 -23 -11 -39 -25 -16 -13 -37 -27 -47 -30 -11 -4 -19 -11 -19 -16
0 -5 -9 -9 -19 -9 -11 0 -21 -3 -23 -7 -4 -11 -87 -53 -104 -53 -8 0 -14 -4
-14 -10 0 -5 -9 -10 -19 -10 -11 0 -23 -4 -26 -10 -3 -5 -17 -10 -30 -10 -13
0 -26 -4 -29 -9 -3 -5 -20 -12 -38 -15 -18 -4 -55 -12 -83 -18 -55 -12 -352
-14 -427 -3 -27 4 -48 11 -48 16 0 5 -11 9 -24 9 -14 0 -28 5 -31 10 -3 6 -15
10 -26 10 -10 0 -19 5 -19 10 0 6 -9 10 -20 10 -11 0 -20 5 -20 10 0 6 -7 10
-15 10 -19 0 -91 64 -157 139 -100 113 -137 319 -77 433 5 10 9 25 9 33 0 8 5
15 10 15 6 0 10 6 10 14 0 19 105 126 124 126 9 0 16 5 16 10 0 6 14 10 30 10
17 0 30 5 30 10 0 14 142 13 177 -1 64 -26 80 -36 118 -74 58 -59 85 -121 85
-201 0 -57 -19 -134 -33 -134 -5 0 -5 -4 -2 -10 3 -5 17 -10 30 -10 13 0 27 5
30 10 3 6 24 10 45 10 21 0 42 5 45 10 3 6 19 10 36 10 16 0 29 5 29 10 0 6
11 10 24 10 14 0 28 5 31 10 3 6 15 10 26 10 10 0 19 5 19 10 0 6 6 10 13 10
18 0 67 24 67 33 0 4 9 7 20 7 11 0 20 5 20 10 0 6 6 10 14 10 7 0 27 14 44
30 18 17 36 30 41 30 15 0 205 192 227 228 10 18 21 32 25 32 4 0 12 14 19 30
7 17 16 30 19 30 10 0 91 164 91 184 0 9 5 16 10 16 6 0 10 6 10 13 0 7 9 32
20 55 11 22 20 52 20 66 0 14 5 28 10 31 6 3 10 21 10 40 0 19 5 37 10 40 6 3
10 24 10 45 0 21 5 42 10 45 6 3 10 33 10 65 0 32 4 61 9 64 4 3 11 52 15 108
7 123 16 229 20 243 3 10 44 8 264 -11z m2477 -26 c3 -24 11 -65 16 -93 4 -27
11 -68 14 -90 4 -22 10 -49 15 -60 9 -22 18 -66 27 -132 3 -24 9 -43 14 -43 5
0 9 -18 9 -39 0 -22 5 -43 10 -46 6 -3 10 -22 10 -41 0 -19 5 -34 10 -34 6 0
10 -15 10 -34 0 -19 5 -38 10 -41 6 -3 10 -16 10 -27 0 -23 17 -81 31 -110 5
-10 9 -29 9 -43 0 -14 5 -25 10 -25 6 0 10 -13 10 -30 0 -16 5 -30 10 -30 6 0
10 -11 10 -24 0 -14 4 -27 8 -30 4 -3 14 -28 22 -55 7 -28 17 -51 22 -51 4 0
8 -9 8 -20 0 -11 5 -20 10 -20 6 0 10 -9 10 -20 0 -11 4 -20 9 -20 5 0 11 -8
14 -17 7 -23 37 -72 60 -97 9 -11 17 -24 17 -29 0 -13 159 -168 189 -185 13
-8 39 -22 58 -33 18 -10 42 -19 51 -19 10 0 22 -4 28 -9 12 -11 109 -20 124
-11 9 6 9 13 1 28 -14 26 -15 172 -1 172 6 0 10 7 10 15 0 36 113 145 150 145
10 0 22 5 25 10 8 12 169 13 193 1 9 -5 29 -14 43 -20 58 -27 141 -124 159
-185 6 -23 16 -55 21 -72 22 -75 1 -175 -62 -284 -20 -35 -129 -143 -161 -159
-16 -8 -28 -18 -28 -23 0 -4 -9 -8 -20 -8 -11 0 -20 -4 -20 -10 0 -5 -11 -10
-24 -10 -14 0 -28 -4 -31 -10 -3 -5 -17 -10 -30 -10 -13 0 -26 -4 -29 -9 -6
-9 -127 -24 -206 -25 -48 0 -112 8 -243 30 -20 3 -40 10 -43 15 -3 5 -16 9
-30 9 -13 0 -24 5 -24 10 0 6 -9 10 -20 10 -11 0 -20 5 -20 10 0 6 -9 10 -20
10 -11 0 -20 5 -20 10 0 6 -9 10 -20 10 -11 0 -20 5 -20 10 0 6 -6 10 -13 10
-7 0 -22 8 -33 19 -11 10 -30 24 -43 30 -53 29 -233 209 -292 292 -13 19 -31
43 -41 53 -10 11 -18 24 -18 28 0 5 -9 18 -20 30 -11 12 -20 28 -20 35 0 7 -4
13 -9 13 -5 0 -11 8 -14 18 -12 38 -58 102 -74 102 -9 0 -63 115 -63 135 0 8
-4 17 -10 20 -5 3 -10 15 -10 26 0 10 -4 19 -10 19 -5 0 -10 7 -10 15 0 8 -9
34 -19 58 -18 39 -42 109 -71 212 -20 71 1 269 49 460 6 22 13 54 17 70 4 17
10 35 14 40 3 6 12 30 19 55 7 25 17 53 22 62 5 10 9 26 9 35 1 47 51 73 138
73 31 0 64 5 72 10 24 15 27 12 35 -32z m-1637 -4595 c-10 -2 -26 -2 -35 0
-10 3 -2 5 17 5 19 0 27 -2 18 -5z"/>
</g>
</svg>
